<svg width="1290" height="168" viewBox="0 0 1290 168" fill="none" xmlns="http://www.w3.org/2000/svg">
    <path d="M434.583 15.2089C435.502 16.0133 436.192 16.9902 436.652 18.1394C437.111 19.7483 437.169 21.7594 436.824 24.1727C436.479 25.7815 435.962 27.5628 435.272 29.5165C434.123 32.3894 432.572 35.5497 430.618 38.9973C428.779 42.1002 426.768 45.0307 424.585 47.7887C423.321 49.3976 422.114 50.7767 420.965 51.9259C419.241 53.6496 417.747 54.8563 416.483 55.5458C415.219 56.3503 414.127 56.1204 413.208 54.8563C412.403 53.4773 412.691 52.3281 414.07 51.4087C414.185 51.4087 414.242 51.4087 414.242 51.4087C415.161 50.949 416.311 50.0297 417.69 48.6506C418.839 47.6164 419.988 46.4097 421.137 45.0307C423.206 42.3875 425.16 39.6869 426.998 36.9288C428.952 33.711 430.503 30.7231 431.652 27.965C432.342 26.3562 432.802 24.8622 433.032 23.4831C433.376 21.7593 433.434 20.3803 433.204 19.346C432.744 18.1968 431.94 17.4498 430.791 17.1051C429.756 16.8752 428.262 16.8178 426.309 16.9327C423.321 17.2775 420.16 18.1394 416.828 19.5184C411.427 21.587 405.566 24.9196 399.245 29.5165C396.602 31.4701 393.901 33.5961 391.143 35.8945C389.879 36.9288 388.615 38.0205 387.351 39.1697C386.317 40.204 385.684 40.7786 385.455 40.8935L383.558 42.7897C378.732 47.6164 374.192 52.6728 369.94 57.9592C360.747 69.2213 353.162 80.5984 347.186 92.0904C343.969 98.2961 341.268 104.559 339.084 110.88C336.556 117.89 334.89 124.44 334.085 130.531C333.051 138.346 333.396 144.954 335.12 150.355C336.154 153.688 337.763 156.446 339.946 158.629C342.13 160.813 344.888 162.364 348.221 163.283C353.852 164.777 360.345 164.605 367.699 162.766C373.56 161.157 379.709 158.514 386.144 154.837C391.66 151.619 397.291 147.827 403.037 143.46C405.91 141.161 408.554 138.978 410.967 136.909C412.231 135.645 413.438 134.496 414.587 133.462C415.161 132.772 415.736 132.14 416.311 131.565C417 130.876 417.517 130.359 417.862 130.014V129.842C418.781 128.577 419.873 128.405 421.137 129.324C422.516 130.244 422.689 131.393 421.654 132.772C421.31 133.232 420.678 133.979 419.758 135.013C419.184 135.588 418.494 136.162 417.69 136.737C416.541 137.886 415.276 139.035 413.897 140.184C411.139 142.483 408.381 144.666 405.623 146.735C399.647 151.217 393.786 155.009 388.04 158.112C380.915 161.904 374.422 164.547 368.561 166.041C365.114 166.961 361.609 167.478 358.046 167.593C354.024 167.708 350.404 167.248 347.186 166.214C343.394 165.065 340.291 163.226 337.878 160.698C335.464 158.169 333.626 155.009 332.362 151.217C330.523 145.356 330.178 138.346 331.327 130.186C332.247 123.866 333.97 117.085 336.499 109.846C338.797 103.525 341.613 97.2043 344.945 90.8837C351.381 78.5873 358.966 67.0378 367.699 56.2354C372.066 50.8341 376.721 45.6627 381.662 40.7212C385.684 36.584 390.971 32.0447 397.521 27.1031C403.957 22.2765 409.933 18.714 415.449 16.4156C419.126 14.9216 422.574 13.9448 425.792 13.4851C426.596 13.3702 427.515 13.3127 428.55 13.3127C429.699 13.3127 430.733 13.4276 431.652 13.6575C432.802 14.0023 433.779 14.5194 434.583 15.2089ZM531.84 86.919C532.76 86.3444 533.449 86.5168 533.909 87.4361C534.483 88.3555 534.311 89.1025 533.392 89.6771C532.243 90.2517 530.404 91.171 527.876 92.4352C525.347 93.5844 523.394 94.4463 522.015 95.0209L516.326 97.7789L510.638 100.192C501.444 104.214 493.629 107.145 487.194 108.984C486.734 109.099 484.723 109.616 481.161 110.535C477.943 110.995 475.817 111.225 474.782 111.225C473.978 111.339 472.886 111.397 471.507 111.397C470.933 111.397 469.898 111.225 468.404 110.88C465.646 110.305 463.635 109.386 462.371 108.122C460.647 106.628 459.556 104.674 459.096 102.261C458.636 100.307 458.579 98.1237 458.924 95.7104C459.038 94.4463 459.268 93.0672 459.613 91.5733C459.613 91.5733 458.062 93.3545 454.959 96.917C449.902 102.663 446.11 106.57 443.582 108.639C442.203 109.673 440.939 110.42 439.789 110.88C438.87 111.225 438.008 111.339 437.204 111.225C436.514 111.11 435.997 110.88 435.652 110.535C435.193 110.075 434.905 109.558 434.79 108.984C434.56 108.294 434.56 107.432 434.79 106.398C434.905 105.708 435.078 105.019 435.307 104.329C435.652 103.295 436.169 101.974 436.859 100.365C438.583 96.5723 441.168 91.7456 444.616 85.8847C445.42 84.5057 446.512 84.2184 447.891 85.0228C449.27 85.8273 449.558 86.919 448.753 88.298C448.638 88.413 448.581 88.5279 448.581 88.6428H448.408C447.144 90.2517 445.593 92.3777 443.754 95.0209C442.26 97.3193 440.939 99.5602 439.789 101.744C439.1 102.893 438.525 104.042 438.066 105.191C437.491 106.685 437.261 107.72 437.376 108.294V108.466L437.721 108.639C438.066 108.754 438.468 108.696 438.927 108.466C439.847 108.122 440.881 107.547 442.03 106.743C443.639 105.479 445.593 103.697 447.891 101.399C449.385 99.79 451.109 97.7789 453.063 95.3656C456.625 90.7688 459.556 86.3444 461.854 82.0924C462.544 80.5984 463.578 80.2536 464.957 81.0581C466.451 81.7476 466.853 82.7819 466.163 84.1609C466.049 84.3908 465.876 84.6206 465.646 84.8504C465.531 84.9654 465.302 85.1952 464.957 85.54C464.612 85.8847 464.44 86.1146 464.44 86.2295C462.831 89.4472 461.797 92.665 461.337 95.8828C460.532 100.709 461.337 104.329 463.75 106.743C464.784 107.892 466.451 108.696 468.749 109.156C470.243 109.386 471.22 109.501 471.68 109.501C472.944 109.616 473.978 109.616 474.782 109.501C475.702 109.501 477.713 109.271 480.816 108.811C484.378 108.007 486.389 107.547 486.849 107.432C493.4 105.593 501.099 102.606 509.948 98.4685C516.269 95.5955 523.566 91.7456 531.84 86.919ZM626.232 87.6085C626.806 87.2638 627.209 87.3787 627.438 87.9533C627.668 88.413 627.553 88.7577 627.094 88.9876C612.154 97.8364 597.674 105.479 583.654 111.914C575.15 115.821 567.565 118.867 560.9 121.05C556.303 122.544 552.281 123.636 548.833 124.325C543.662 125.245 539.41 125.417 536.077 124.843C533.434 124.383 531.308 123.349 529.699 121.74C528.205 120.131 527.113 118.12 526.424 115.706C525.389 112.259 525.332 107.949 526.251 102.778C527.63 96.2275 530.561 88.413 535.043 79.3343C538.375 72.6689 542.455 65.5439 547.282 57.9592C551.993 50.7192 556.705 43.9389 561.417 37.6183C562.451 36.3542 563.6 36.2393 564.865 37.2735C566.129 38.1929 566.301 39.2847 565.382 40.5488H565.209V40.7212C560.383 46.8119 555.671 53.3624 551.074 60.3725C546.133 67.7274 541.938 74.68 538.49 81.2305C534.008 89.8495 531.135 97.2618 529.871 103.467C528.952 108.064 528.895 111.857 529.699 114.845C530.159 116.683 530.963 118.177 532.112 119.326C533.262 120.476 534.755 121.223 536.594 121.567C539.582 122.257 543.489 122.199 548.316 121.395C551.649 120.82 555.556 119.844 560.038 118.465C566.703 116.396 574.231 113.466 582.62 109.673C596.64 103.467 611.177 96.1126 626.232 87.6085ZM717.243 86.4019C718.277 86.2869 718.852 86.7466 718.967 87.7809C719.197 88.8152 718.794 89.3898 717.76 89.5047C717.76 89.6196 717.703 89.6771 717.588 89.6771C716.898 89.6771 713.336 89.9644 706.9 90.539C705.406 90.6539 703.338 90.8837 700.695 91.2285C698.051 91.5733 696.5 91.8031 696.04 91.918C692.133 92.4926 688.571 93.0098 685.353 93.4694C685.008 93.5844 683.457 93.9291 680.698 94.5037C678.055 94.9634 676.044 95.3656 674.665 95.7104C667.08 97.2043 660.185 99.158 653.98 101.571C653.635 101.686 653.06 101.916 652.256 102.261C651.222 103.525 650.13 104.789 648.981 106.053C646.797 108.466 644.671 110.593 642.603 112.431C641.223 113.58 639.902 114.5 638.638 115.189C637.603 115.764 636.684 116.109 635.88 116.224C635.765 116.224 635.592 116.281 635.363 116.396H635.19L634.845 116.224C634.501 116.224 634.213 116.166 633.984 116.051C633.754 115.936 633.524 115.764 633.294 115.534C633.179 115.304 633.064 115.074 632.949 114.845C632.834 114.73 632.777 114.615 632.777 114.5C632.662 114.27 632.604 114.04 632.604 113.81C632.604 113.58 632.604 113.351 632.604 113.121C632.719 112.776 632.834 112.431 632.949 112.086C633.179 111.512 633.409 111.11 633.639 110.88C633.639 110.765 633.639 110.707 633.639 110.707C633.754 110.593 633.811 110.535 633.811 110.535C635.88 108.352 639.04 106.226 643.292 104.157C644.096 103.697 645.361 103.123 647.084 102.433C648.923 100.594 650.532 98.7558 651.911 96.917C653.98 94.3888 655.646 92.0329 656.91 89.8495C657.714 88.4704 658.289 87.2638 658.634 86.2295C658.864 85.54 658.979 85.0228 658.979 84.6781C658.864 84.3333 658.749 84.1035 658.634 83.9885C658.519 83.8736 658.117 83.8162 657.427 83.8162C656.853 83.8162 656.221 83.9311 655.531 84.1609C654.267 84.5057 653.003 84.9654 651.739 85.54C647.716 87.4936 643.005 90.8263 637.603 95.538C629.559 102.548 621.63 111.052 613.815 121.05C610.367 125.647 607.035 130.416 603.817 135.358C602.208 137.771 600.772 140.242 599.508 142.77C597.784 145.873 596.749 148.344 596.405 150.182C596.29 151.561 595.543 152.308 594.164 152.423C593.015 152.538 592.268 152.021 591.923 150.872C591.693 150.412 591.578 149.953 591.578 149.493C591.578 149.033 591.578 148.688 591.578 148.459L591.75 146.735C592.21 145.356 592.497 144.436 592.612 143.977C592.957 142.942 593.647 141.276 594.681 138.978C595.945 136.45 597.611 133.347 599.68 129.669C601.978 125.647 605.541 119.729 610.367 111.914L621.572 94.3313C626.858 86.0571 630.593 80.1962 632.777 76.7486C633.696 75.3695 634.788 75.1397 636.052 76.0591C637.431 76.8635 637.718 77.9552 636.914 79.3343C636.799 79.3343 636.742 79.3917 636.742 79.5067C632.949 84.1035 628.812 89.6196 624.33 96.0551C620.653 101.112 616.746 106.858 612.608 113.293C608.586 119.729 605.139 125.704 602.266 131.221C602.266 131.221 602.266 131.278 602.266 131.393C602.151 131.623 602.036 131.738 601.921 131.738C604.334 128.52 607.609 124.383 611.746 119.326C620.595 108.639 628.64 100.02 635.88 93.4694C641.396 88.6428 646.28 85.1952 650.532 83.1266C652.026 82.4371 653.462 81.8625 654.841 81.4028C655.761 81.173 656.565 81.0006 657.255 80.8857C658.404 80.8857 659.381 81.0581 660.185 81.4028C660.76 81.7476 661.22 82.2073 661.564 82.7819C661.794 83.2416 661.909 83.8162 661.909 84.5057C661.909 85.3101 661.794 86.172 661.564 87.0914C661.22 88.3555 660.587 89.8495 659.668 91.5733C658.174 94.1015 656.335 96.8596 654.152 99.8475C660.932 97.5491 667.713 95.6529 674.493 94.159C675.872 93.8142 677.883 93.412 680.526 92.9523C683.169 92.3777 684.663 92.0329 685.008 91.918L695.696 90.0218L706.555 88.1257C712.991 87.0914 716.554 86.5168 717.243 86.4019ZM637.431 113.81C637.431 113.81 637.374 113.81 637.259 113.81C637.259 113.925 637.259 113.983 637.259 113.983C637.259 113.868 637.316 113.81 637.431 113.81ZM639.327 109.501C639.672 109.271 639.844 109.099 639.844 108.984C639.959 108.984 640.132 108.869 640.362 108.639C640.476 108.524 640.591 108.466 640.706 108.466C640.591 108.466 640.419 108.524 640.189 108.639C640.074 108.754 639.959 108.869 639.844 108.984C639.844 109.099 639.787 109.213 639.672 109.328C639.557 109.328 639.442 109.386 639.327 109.501ZM796.24 86.7466C797.16 86.2869 797.849 86.5742 798.309 87.6085C798.768 88.5279 798.539 89.2174 797.619 89.6771C797.619 89.6771 797.562 89.6771 797.447 89.6771C788.483 93.2396 782.048 95.7104 778.14 97.0894C769.636 99.9624 762.971 101.974 758.144 103.123C754.467 104.042 751.077 104.732 747.974 105.191C744.181 105.766 740.676 105.996 737.459 105.881C733.322 105.766 729.816 105.019 726.943 103.64C724.3 102.261 722.462 100.25 721.427 97.6066C718.669 102.433 716.084 106.455 713.67 109.673C712.751 111.167 711.889 112.316 711.085 113.121C710.395 113.925 709.82 114.5 709.361 114.845C708.786 115.304 708.212 115.592 707.637 115.706C707.522 115.706 707.407 115.706 707.292 115.706H707.12C706.89 115.706 706.718 115.706 706.603 115.706C706.258 115.592 705.913 115.477 705.568 115.362C704.994 115.017 704.534 114.5 704.189 113.81C703.959 113.351 703.787 112.833 703.672 112.259C703.672 111.569 703.73 110.707 703.845 109.673C703.959 108.409 704.304 106.973 704.879 105.364C706.718 100.077 709.418 94.9059 712.981 89.8495C715.279 86.7466 717.348 84.5057 719.186 83.1266C720.221 82.552 721.14 82.1498 721.944 81.92C723.323 81.6901 724.588 81.9774 725.737 82.7819C726.541 83.3565 727.231 84.1609 727.805 85.1952C728.265 85.9996 728.61 86.8615 728.84 87.7809C728.955 88.4704 728.84 89.1025 728.495 89.6771C728.15 90.1368 727.633 90.4815 726.943 90.7114C726.369 90.8263 725.794 90.7688 725.22 90.539C724.645 90.1942 724.3 89.6771 724.185 88.9876C724.185 88.8726 724.185 88.8152 724.185 88.8152C723.956 87.5511 723.553 86.8041 722.979 86.5742C722.864 86.4593 722.806 86.4019 722.806 86.4019C722.462 86.5168 722.059 86.6892 721.6 86.919C720.106 87.9533 718.324 89.792 716.256 92.4352C712.808 96.917 710.165 101.629 708.326 106.57C707.752 107.949 707.407 109.213 707.292 110.363C707.177 110.937 707.12 111.454 707.12 111.914C707.12 112.144 707.12 112.316 707.12 112.431C707.235 112.431 707.35 112.374 707.465 112.259C707.809 112.029 708.212 111.627 708.671 111.052C709.476 110.248 710.338 109.213 711.257 107.949C714.015 104.387 717.118 99.7326 720.565 93.9866H720.738C720.853 92.9523 721.37 92.4352 722.289 92.4352C723.323 92.4352 723.841 92.9523 723.841 93.9866C723.841 94.1015 723.841 94.159 723.841 94.159V94.3313C723.841 94.9059 723.898 95.5955 724.013 96.3999C724.243 96.9745 724.53 97.6066 724.875 98.2961C725.679 99.6751 726.771 100.767 728.15 101.571C730.563 102.95 733.724 103.755 737.631 103.985C740.734 104.214 744.124 104.042 747.801 103.467C748.031 103.467 749.698 103.18 752.8 102.606C752.915 102.606 753.605 102.491 754.869 102.261C756.133 101.916 757.11 101.629 757.799 101.399C764.465 99.6751 770.958 97.5491 777.278 95.0209C783.139 92.8374 789.46 90.0793 796.24 86.7466ZM903.45 87.0914C904.254 86.4019 905.001 86.4593 905.691 87.2638C906.38 88.0682 906.323 88.8152 905.518 89.5047C897.934 95.5955 890.579 101.227 883.454 106.398C875.179 112.374 867.537 117.43 860.527 121.567C850.759 127.198 842.37 131.106 835.36 133.289C830.073 134.898 825.419 135.588 821.397 135.358C818.754 135.128 816.398 134.553 814.329 133.634C812.031 132.485 810.25 130.876 808.986 128.807C807.721 126.854 806.86 124.555 806.4 121.912C806.055 119.844 805.998 117.488 806.227 114.845C806.457 110.822 807.319 106.283 808.813 101.227C810.537 95.7104 812.835 89.792 815.708 83.4714C815.364 83.7012 814.789 84.2758 813.985 85.1952C813.18 85.9996 812.548 86.6892 812.088 87.2638L799.849 99.5027C797.436 101.916 795.368 103.985 793.644 105.708C792.38 106.858 791.288 107.834 790.369 108.639C789.679 109.328 789.162 109.846 788.817 110.19C788.472 110.42 788.128 110.65 787.783 110.88C787.668 110.995 787.438 111.167 787.093 111.397C787.093 111.397 786.978 111.454 786.749 111.569C786.404 111.569 786.231 111.569 786.231 111.569H785.714C785.025 111.454 784.393 111.11 783.818 110.535C783.473 109.96 783.243 109.386 783.129 108.811C783.129 108.007 783.186 107.087 783.301 106.053C783.646 104.789 784.163 103.295 784.852 101.571C786.002 99.0431 787.496 96.4574 789.334 93.8142C791.518 90.5964 793.414 88.2406 795.023 86.7466C796.632 85.2527 798.126 84.2758 799.505 83.8162C800.769 83.4714 801.975 83.5863 803.125 84.1609C803.699 84.3908 804.216 84.7355 804.676 85.1952C804.906 85.425 805.136 85.6549 805.366 85.8847C805.595 86.2295 805.768 86.5168 805.883 86.7466C806.457 88.2406 805.998 89.3323 804.504 90.0218C803.125 90.5964 802.09 90.1368 801.401 88.6428C801.401 88.5279 801.401 88.4704 801.401 88.4704C801.286 88.3555 801.228 88.298 801.228 88.298C801.114 88.1831 800.884 88.1257 800.539 88.1257C799.735 88.3555 798.815 88.9301 797.781 89.8495C795.827 91.4583 793.989 93.4694 792.265 95.8828C790.541 98.2961 789.104 100.652 787.955 102.95C787.266 104.444 786.749 105.708 786.404 106.743C786.174 107.432 786.116 107.949 786.231 108.294V108.466C786.461 108.237 786.691 108.064 786.921 107.949C787.266 107.605 787.783 107.145 788.472 106.57C789.392 105.766 790.483 104.789 791.748 103.64C793.356 102.031 795.425 100.02 797.953 97.6066C801.401 94.2739 805.423 90.1942 810.02 85.3676C813.467 81.8051 816.685 78.4149 819.673 75.1972C823.81 67.0378 828.407 59.1658 833.464 51.5811C836.222 47.3291 838.922 43.5942 841.565 40.3764C843.289 38.3078 844.841 36.5266 846.22 35.0326C847.254 33.9983 848.173 33.1939 848.978 32.6193C849.552 32.1596 850.069 31.7574 850.529 31.4126C851.219 31.0679 851.793 30.8955 852.253 30.8955C852.598 30.6656 852.942 30.6082 853.287 30.7231C853.402 30.7231 853.575 30.7806 853.804 30.8955C853.804 30.8955 853.862 30.8955 853.977 30.8955C854.322 31.0104 854.609 31.1253 854.839 31.2403C855.068 31.3552 855.298 31.5275 855.528 31.7574C855.758 32.1022 855.93 32.3895 856.045 32.6193C856.16 32.7342 856.218 33.0215 856.218 33.4812C856.333 33.826 856.39 34.0558 856.39 34.1707C856.39 34.6304 856.333 34.9177 856.218 35.0326C856.103 35.7221 855.758 36.6415 855.183 37.7907C854.609 38.9399 853.804 40.204 852.77 41.5831C851.391 43.6516 849.61 46.0075 847.426 48.6506C843.634 53.1325 839.784 57.4995 835.877 61.7515C830.935 67.1528 825.764 72.7838 820.363 78.6448C816.111 86.8041 812.893 94.5037 810.709 101.744C809.215 106.685 808.354 111.11 808.124 115.017C807.779 120.418 808.583 124.67 810.537 127.773C812.606 131.336 816.283 133.232 821.569 133.462C825.362 133.691 829.729 133.059 834.67 131.565C842.025 129.267 850.242 125.36 859.321 119.844C866.331 115.592 873.915 110.42 882.075 104.329C888.855 99.158 895.98 93.412 903.45 87.0914ZM852.598 35.3774C852.713 35.3774 852.77 35.3774 852.77 35.3774C852.655 35.3774 852.598 35.3774 852.598 35.3774ZM835.532 52.9601C832.314 57.6719 829.097 62.7858 825.879 68.302C828.867 64.9693 831.395 62.0963 833.464 59.6829C838.29 54.0519 841.91 49.57 844.323 46.2373C846.277 43.5942 847.943 41.2958 849.322 39.3421C850.127 37.8482 850.759 36.6415 851.219 35.7221C851.334 35.3774 851.449 35.0901 851.563 34.8602C851.449 34.8602 851.391 34.8028 851.391 34.6879C851.161 34.8028 850.989 34.9177 850.874 35.0326C850.069 35.6072 849.208 36.2967 848.288 37.1012C846.909 38.4802 845.415 40.1466 843.806 42.1002C841.163 45.203 838.405 48.823 835.532 52.9601ZM962.063 86.7466C963.097 86.4019 963.729 86.8041 963.959 87.9533C964.304 88.9876 963.959 89.6196 962.925 89.8495C962.81 89.8495 962.753 89.8495 962.753 89.8495C961.833 89.9644 960.512 90.1368 958.788 90.3666C957.064 90.5964 955.857 90.7114 955.168 90.7114C954.593 90.8263 953.444 90.9987 951.72 91.2285C949.996 91.3434 948.675 91.4009 947.755 91.4009C941.55 91.8606 936.493 92.0904 932.586 92.0904C927.185 91.9755 922.186 91.6882 917.589 91.2285C914.716 90.8837 912.245 90.539 910.177 90.1942C909.372 89.9644 908.51 89.792 907.591 89.6771C907.706 90.7114 907.763 91.9755 907.763 93.4694C907.648 95.7678 907.131 98.1237 906.212 100.537C905.407 103.065 904.373 105.249 903.109 107.087C902.19 108.352 901.27 109.328 900.351 110.018C899.776 110.593 899.087 110.995 898.282 111.225C897.363 111.454 896.501 111.454 895.697 111.225C894.777 110.88 894.03 110.305 893.456 109.501C892.881 108.926 892.536 108.122 892.422 107.087C892.307 105.938 892.479 104.559 892.939 102.95C893.398 100.997 894.318 98.7558 895.697 96.2275C897.65 92.8948 899.661 90.0218 901.73 87.6085C901.5 87.1488 901.443 86.7466 901.558 86.4019C901.902 85.3676 902.534 84.9654 903.454 85.1952C903.569 85.3101 903.684 85.3676 903.799 85.3676C903.799 85.2527 903.914 85.1377 904.143 85.0228C904.258 84.793 904.373 84.6206 904.488 84.5057C905.637 83.4714 906.787 83.5289 907.936 84.6781C908.625 85.3676 908.798 86.2295 908.453 87.2638C909.257 87.4936 910.004 87.7234 910.694 87.9533C912.647 88.413 915.061 88.9301 917.934 89.5047C922.301 90.1942 927.185 90.539 932.586 90.539C936.149 90.539 938.677 90.4815 940.171 90.3666C941.665 90.2517 944.078 89.9644 947.411 89.5047C948.215 89.5047 950.686 89.1599 954.823 88.4704C958.041 87.666 960.454 87.0914 962.063 86.7466ZM905.522 93.2971C905.637 92.1479 905.637 91.1136 905.522 90.1942C903.339 92.4926 901.27 95.1932 899.317 98.2961C897.938 100.48 896.961 102.376 896.386 103.985C896.041 105.134 895.927 106.053 896.041 106.743C896.041 107.317 896.271 107.72 896.731 107.949C897.191 108.179 897.765 108.007 898.455 107.432C899.144 106.973 899.834 106.283 900.523 105.364C901.787 103.755 902.879 101.859 903.799 99.6751C904.603 97.4916 905.178 95.3656 905.522 93.2971Z" fill="#9562E5"/>
    <path d="M306.257 26.4316L300.741 6.88764H304.129L306.705 16.7436L308.413 23.3796H308.581L310.289 16.7436L312.893 6.88764H316.141L310.625 26.4316H306.257ZM326.896 -0.000363005L330.256 4.19964L328.632 5.37564L325.328 2.12764L321.996 5.37564L320.456 4.19964L323.816 -0.000363005H326.896ZM319.252 26.4316V6.88764H331.488V9.51964H322.388V15.2036H331.152V17.8356H322.388V23.7996H331.488V26.4316H319.252ZM358.849 26.7676C357.617 26.7676 356.544 26.5436 355.629 26.0956C354.733 25.629 353.987 24.9663 353.389 24.1076C352.811 23.249 352.381 22.1943 352.101 20.9436C351.821 19.693 351.681 18.265 351.681 16.6596C351.681 15.073 351.821 13.6543 352.101 12.4036C352.381 11.1343 352.811 10.0703 353.389 9.21164C353.987 8.35297 354.733 7.69964 355.629 7.25164C356.544 6.78497 357.617 6.55164 358.849 6.55164C360.081 6.55164 361.145 6.78497 362.041 7.25164C362.956 7.69964 363.703 8.35297 364.281 9.21164C364.879 10.0703 365.317 11.1343 365.597 12.4036C365.877 13.6543 366.017 15.073 366.017 16.6596C366.017 18.265 365.877 19.693 365.597 20.9436C365.317 22.1943 364.879 23.249 364.281 24.1076C363.703 24.9663 362.956 25.629 362.041 26.0956C361.145 26.5436 360.081 26.7676 358.849 26.7676ZM358.849 24.1636C360.249 24.1636 361.239 23.641 361.817 22.5956C362.396 21.5316 362.685 20.0943 362.685 18.2836V15.0076C362.685 13.2156 362.396 11.797 361.817 10.7516C361.239 9.68764 360.249 9.15564 358.849 9.15564C357.449 9.15564 356.46 9.68764 355.881 10.7516C355.303 11.797 355.013 13.2156 355.013 15.0076V18.3116C355.013 20.1036 355.303 21.5316 355.881 22.5956C356.46 23.641 357.449 24.1636 358.849 24.1636ZM375.484 26.7676C373.785 26.7676 372.357 26.469 371.2 25.8716C370.043 25.2743 369.091 24.481 368.344 23.4916L370.36 21.5596C371.107 22.4556 371.9 23.1183 372.74 23.5476C373.58 23.9583 374.532 24.1636 375.596 24.1636C376.828 24.1636 377.771 23.8836 378.424 23.3236C379.096 22.7636 379.432 21.961 379.432 20.9156C379.432 20.0756 379.189 19.4316 378.704 18.9836C378.219 18.517 377.388 18.181 376.212 17.9756L374.084 17.6396C373.151 17.4903 372.367 17.2476 371.732 16.9116C371.097 16.557 370.584 16.1463 370.192 15.6796C369.8 15.1943 369.511 14.6623 369.324 14.0836C369.156 13.4863 369.072 12.861 369.072 12.2076C369.072 10.3596 369.669 8.95964 370.864 8.00764C372.059 7.03697 373.701 6.55164 375.792 6.55164C377.341 6.55164 378.657 6.80364 379.74 7.30764C380.841 7.79297 381.728 8.48364 382.4 9.37964L380.44 11.3396C379.899 10.6863 379.255 10.1636 378.508 9.77164C377.78 9.36097 376.875 9.15564 375.792 9.15564C374.635 9.15564 373.748 9.40764 373.132 9.91164C372.535 10.397 372.236 11.1156 372.236 12.0676C372.236 12.8703 372.469 13.505 372.936 13.9716C373.421 14.4196 374.271 14.7463 375.484 14.9516L377.556 15.3156C379.311 15.633 380.589 16.277 381.392 17.2476C382.195 18.1996 382.596 19.3663 382.596 20.7476C382.596 21.6436 382.437 22.465 382.12 23.2116C381.821 23.9583 381.364 24.593 380.748 25.1156C380.151 25.6383 379.404 26.049 378.508 26.3476C377.631 26.6276 376.623 26.7676 375.484 26.7676ZM409.817 26.7676C407.335 26.7676 405.487 25.8903 404.273 24.1356C403.079 22.381 402.481 19.889 402.481 16.6596C402.481 13.4303 403.079 10.9383 404.273 9.18364C405.487 7.42897 407.335 6.55164 409.817 6.55164C410.769 6.55164 411.591 6.6823 412.281 6.94364C412.991 7.18631 413.597 7.53164 414.101 7.97964C414.605 8.40897 415.025 8.92231 415.361 9.51964C415.716 10.0983 416.005 10.7236 416.229 11.3956L413.401 12.3476C413.252 11.8996 413.084 11.4796 412.897 11.0876C412.711 10.6956 412.477 10.3596 412.197 10.0796C411.917 9.79964 411.581 9.57564 411.189 9.40764C410.816 9.23964 410.349 9.15564 409.789 9.15564C408.408 9.15564 407.4 9.68764 406.765 10.7516C406.131 11.797 405.813 13.2156 405.813 15.0076V18.3116C405.813 20.1036 406.131 21.5316 406.765 22.5956C407.4 23.641 408.408 24.1636 409.789 24.1636C410.349 24.1636 410.816 24.0796 411.189 23.9116C411.581 23.7436 411.917 23.5196 412.197 23.2396C412.477 22.9596 412.711 22.6236 412.897 22.2316C413.084 21.8396 413.252 21.4196 413.401 20.9716L416.229 21.9236C416.005 22.5956 415.716 23.2303 415.361 23.8276C415.025 24.4063 414.605 24.9196 414.101 25.3676C413.597 25.797 412.991 26.1423 412.281 26.4036C411.591 26.6463 410.769 26.7676 409.817 26.7676ZM422.728 6.88764V18.8996C422.728 19.7023 422.747 20.4303 422.784 21.0836C422.84 21.737 422.98 22.297 423.204 22.7636C423.428 23.2116 423.764 23.557 424.212 23.7996C424.66 24.0423 425.276 24.1636 426.06 24.1636C426.844 24.1636 427.46 24.0423 427.908 23.7996C428.356 23.557 428.692 23.2116 428.916 22.7636C429.14 22.297 429.271 21.737 429.308 21.0836C429.364 20.4303 429.392 19.7023 429.392 18.8996V6.88764H432.528V18.3396C432.528 19.7396 432.444 20.9716 432.276 22.0356C432.127 23.081 431.819 23.9583 431.352 24.6676C430.885 25.3583 430.223 25.881 429.364 26.2356C428.524 26.5903 427.423 26.7676 426.06 26.7676C424.697 26.7676 423.587 26.5903 422.728 26.2356C421.888 25.881 421.235 25.3583 420.768 24.6676C420.301 23.9583 419.984 23.081 419.816 22.0356C419.667 20.9716 419.592 19.7396 419.592 18.3396V6.88764H422.728ZM437.487 26.4316V6.88764H440.623V23.7996H449.527V26.4316H437.487ZM453.618 26.4316V6.88764H460.926C462.792 6.88764 464.211 7.41031 465.182 8.45564C466.171 9.50097 466.666 10.9383 466.666 12.7676C466.666 14.597 466.171 16.0343 465.182 17.0796C464.211 18.125 462.792 18.6476 460.926 18.6476H456.754V26.4316H453.618ZM456.754 16.0436H460.45C462.391 16.0436 463.362 15.1476 463.362 13.3556V12.1516C463.362 10.3783 462.391 9.49164 460.45 9.49164H456.754V16.0436ZM481.004 26.4316L479.52 21.2236H473.304L471.82 26.4316H468.628L474.34 6.88764H478.624L484.336 26.4316H481.004ZM476.524 10.0516H476.3L473.892 18.6196H478.932L476.524 10.0516ZM487.167 6.88764H492.991C495.492 6.88764 497.34 7.71831 498.535 9.37964C499.748 11.041 500.355 13.4676 500.355 16.6596C500.355 19.8516 499.748 22.2783 498.535 23.9396C497.34 25.601 495.492 26.4316 492.991 26.4316H487.167V6.88764ZM492.795 23.8556C494.232 23.8556 495.296 23.3796 495.987 22.4276C496.696 21.457 497.051 20.0756 497.051 18.2836V15.0356C497.051 13.2436 496.696 11.8716 495.987 10.9196C495.296 9.94897 494.232 9.46364 492.795 9.46364H490.275V23.8556H492.795ZM510.074 26.7676C508.842 26.7676 507.768 26.5436 506.854 26.0956C505.958 25.629 505.211 24.9663 504.614 24.1076C504.035 23.249 503.606 22.1943 503.326 20.9436C503.046 19.693 502.906 18.265 502.906 16.6596C502.906 15.073 503.046 13.6543 503.326 12.4036C503.606 11.1343 504.035 10.0703 504.614 9.21164C505.211 8.35297 505.958 7.69964 506.854 7.25164C507.768 6.78497 508.842 6.55164 510.074 6.55164C511.306 6.55164 512.37 6.78497 513.266 7.25164C514.18 7.69964 514.927 8.35297 515.506 9.21164C516.103 10.0703 516.542 11.1343 516.822 12.4036C517.102 13.6543 517.242 15.073 517.242 16.6596C517.242 18.265 517.102 19.693 516.822 20.9436C516.542 22.1943 516.103 23.249 515.506 24.1076C514.927 24.9663 514.18 25.629 513.266 26.0956C512.37 26.5436 511.306 26.7676 510.074 26.7676ZM510.074 24.1636C511.474 24.1636 512.463 23.641 513.042 22.5956C513.62 21.5316 513.91 20.0943 513.91 18.2836V15.0076C513.91 13.2156 513.62 11.797 513.042 10.7516C512.463 9.68764 511.474 9.15564 510.074 9.15564C508.674 9.15564 507.684 9.68764 507.106 10.7516C506.527 11.797 506.238 13.2156 506.238 15.0076V18.3116C506.238 20.1036 506.527 21.5316 507.106 22.5956C507.684 23.641 508.674 24.1636 510.074 24.1636ZM526.709 26.7676C525.01 26.7676 523.582 26.469 522.425 25.8716C521.267 25.2743 520.315 24.481 519.569 23.4916L521.585 21.5596C522.331 22.4556 523.125 23.1183 523.965 23.5476C524.805 23.9583 525.757 24.1636 526.821 24.1636C528.053 24.1636 528.995 23.8836 529.649 23.3236C530.321 22.7636 530.657 21.961 530.657 20.9156C530.657 20.0756 530.414 19.4316 529.929 18.9836C529.443 18.517 528.613 18.181 527.437 17.9756L525.309 17.6396C524.375 17.4903 523.591 17.2476 522.957 16.9116C522.322 16.557 521.809 16.1463 521.417 15.6796C521.025 15.1943 520.735 14.6623 520.549 14.0836C520.381 13.4863 520.297 12.861 520.297 12.2076C520.297 10.3596 520.894 8.95964 522.089 8.00764C523.283 7.03697 524.926 6.55164 527.017 6.55164C528.566 6.55164 529.882 6.80364 530.965 7.30764C532.066 7.79297 532.953 8.48364 533.625 9.37964L531.665 11.3396C531.123 10.6863 530.479 10.1636 529.733 9.77164C529.005 9.36097 528.099 9.15564 527.017 9.15564C525.859 9.15564 524.973 9.40764 524.357 9.91164C523.759 10.397 523.461 11.1156 523.461 12.0676C523.461 12.8703 523.694 13.505 524.161 13.9716C524.646 14.4196 525.495 14.7463 526.709 14.9516L528.781 15.3156C530.535 15.633 531.814 16.277 532.617 17.2476C533.419 18.1996 533.821 19.3663 533.821 20.7476C533.821 21.6436 533.662 22.465 533.345 23.2116C533.046 23.9583 532.589 24.593 531.973 25.1156C531.375 25.6383 530.629 26.049 529.733 26.3476C528.855 26.6276 527.847 26.7676 526.709 26.7676ZM554.378 6.88764H560.202C562.703 6.88764 564.551 7.71831 565.746 9.37964C566.959 11.041 567.566 13.4676 567.566 16.6596C567.566 19.8516 566.959 22.2783 565.746 23.9396C564.551 25.601 562.703 26.4316 560.202 26.4316H554.378V6.88764ZM560.006 23.8556C561.443 23.8556 562.507 23.3796 563.198 22.4276C563.907 21.457 564.262 20.0756 564.262 18.2836V15.0356C564.262 13.2436 563.907 11.8716 563.198 10.9196C562.507 9.94897 561.443 9.46364 560.006 9.46364H557.486V23.8556H560.006ZM581.821 26.4316L580.337 21.2236H574.121L572.637 26.4316H569.445L575.157 6.88764H579.441L585.153 26.4316H581.821ZM577.341 10.0516H577.117L574.709 18.6196H579.749L577.341 10.0516ZM593.92 26.7676C592.221 26.7676 590.793 26.469 589.636 25.8716C588.478 25.2743 587.526 24.481 586.78 23.4916L588.796 21.5596C589.542 22.4556 590.336 23.1183 591.176 23.5476C592.016 23.9583 592.968 24.1636 594.032 24.1636C595.264 24.1636 596.206 23.8836 596.86 23.3236C597.532 22.7636 597.868 21.961 597.868 20.9156C597.868 20.0756 597.625 19.4316 597.14 18.9836C596.654 18.517 595.824 18.181 594.648 17.9756L592.52 17.6396C591.586 17.4903 590.802 17.2476 590.168 16.9116C589.533 16.557 589.02 16.1463 588.628 15.6796C588.236 15.1943 587.946 14.6623 587.76 14.0836C587.592 13.4863 587.508 12.861 587.508 12.2076C587.508 10.3596 588.105 8.95964 589.3 8.00764C590.494 7.03697 592.137 6.55164 594.228 6.55164C595.777 6.55164 597.093 6.80364 598.176 7.30764C599.277 7.79297 600.164 8.48364 600.836 9.37964L598.876 11.3396C598.334 10.6863 597.69 10.1636 596.944 9.77164C596.216 9.36097 595.31 9.15564 594.228 9.15564C593.07 9.15564 592.184 9.40764 591.568 9.91164C590.97 10.397 590.672 11.1156 590.672 12.0676C590.672 12.8703 590.905 13.505 591.372 13.9716C591.857 14.4196 592.706 14.7463 593.92 14.9516L595.992 15.3156C597.746 15.633 599.025 16.277 599.828 17.2476C600.63 18.1996 601.032 19.3663 601.032 20.7476C601.032 21.6436 600.873 22.465 600.556 23.2116C600.257 23.9583 599.8 24.593 599.184 25.1156C598.586 25.6383 597.84 26.049 596.944 26.3476C596.066 26.6276 595.058 26.7676 593.92 26.7676ZM631.333 23.7436H631.137C630.969 24.1356 630.764 24.5183 630.521 24.8916C630.297 25.2463 630.008 25.5636 629.653 25.8436C629.317 26.1236 628.906 26.3476 628.421 26.5156C627.936 26.6836 627.376 26.7676 626.741 26.7676C624.706 26.7676 623.176 25.8996 622.149 24.1636C621.122 22.4276 620.609 19.973 620.609 16.7996C620.609 13.477 621.197 10.9383 622.373 9.18364C623.549 7.42897 625.35 6.55164 627.777 6.55164C628.729 6.55164 629.56 6.6823 630.269 6.94364C630.997 7.20497 631.613 7.55964 632.117 8.00764C632.621 8.43697 633.041 8.9503 633.377 9.54764C633.713 10.1263 633.984 10.7423 634.189 11.3956L631.361 12.3476C631.212 11.9183 631.044 11.517 630.857 11.1436C630.67 10.7516 630.437 10.4063 630.157 10.1076C629.896 9.80897 629.569 9.57564 629.177 9.40764C628.804 9.23964 628.346 9.15564 627.805 9.15564C626.442 9.15564 625.453 9.68764 624.837 10.7516C624.24 11.797 623.941 13.2156 623.941 15.0076V18.1156C623.941 19.0116 624.006 19.833 624.137 20.5796C624.268 21.3263 624.482 21.9703 624.781 22.5116C625.098 23.0343 625.5 23.445 625.985 23.7436C626.489 24.0423 627.096 24.1916 627.805 24.1916C628.944 24.1916 629.812 23.8556 630.409 23.1836C631.025 22.493 631.333 21.6156 631.333 20.5516V18.7876H627.553V16.4356H634.189V26.4316H631.333V23.7436ZM641.556 26.4316H638.448V6.88764H645.756C647.622 6.88764 649.041 7.41031 650.012 8.45564C651.001 9.50097 651.496 10.9383 651.496 12.7676C651.496 14.261 651.132 15.493 650.404 16.4636C649.676 17.4343 648.63 18.0316 647.268 18.2556L651.776 26.4316H648.304L644.16 18.5356H641.556V26.4316ZM645.308 16.0156C647.249 16.0156 648.22 15.129 648.22 13.3556V12.1516C648.22 10.3783 647.249 9.49164 645.308 9.49164H641.556V16.0156H645.308ZM665.834 26.4316L664.35 21.2236H658.134L656.65 26.4316H653.458L659.17 6.88764H663.454L669.166 26.4316H665.834ZM661.354 10.0516H661.13L658.722 18.6196H663.762L661.354 10.0516ZM674.713 11.3956H674.461V26.4316H671.717V6.88764H675.749L681.489 21.9236H681.741V6.88764H684.485V26.4316H680.453L674.713 11.3956ZM688.8 6.88764H694.624C697.125 6.88764 698.973 7.71831 700.168 9.37964C701.381 11.041 701.988 13.4676 701.988 16.6596C701.988 19.8516 701.381 22.2783 700.168 23.9396C698.973 25.601 697.125 26.4316 694.624 26.4316H688.8V6.88764ZM694.428 23.8556C695.865 23.8556 696.929 23.3796 697.62 22.4276C698.329 21.457 698.684 20.0756 698.684 18.2836V15.0356C698.684 13.2436 698.329 11.8716 697.62 10.9196C696.929 9.94897 695.865 9.46364 694.428 9.46364H691.908V23.8556H694.428ZM705.715 26.4316V6.88764H717.951V9.51964H708.851V15.2036H717.615V17.8356H708.851V23.7996H717.951V26.4316H705.715ZM728.341 26.7676C726.643 26.7676 725.215 26.469 724.057 25.8716C722.9 25.2743 721.948 24.481 721.201 23.4916L723.217 21.5596C723.964 22.4556 724.757 23.1183 725.597 23.5476C726.437 23.9583 727.389 24.1636 728.453 24.1636C729.685 24.1636 730.628 23.8836 731.281 23.3236C731.953 22.7636 732.289 21.961 732.289 20.9156C732.289 20.0756 732.047 19.4316 731.561 18.9836C731.076 18.517 730.245 18.181 729.069 17.9756L726.941 17.6396C726.008 17.4903 725.224 17.2476 724.589 16.9116C723.955 16.557 723.441 16.1463 723.049 15.6796C722.657 15.1943 722.368 14.6623 722.181 14.0836C722.013 13.4863 721.929 12.861 721.929 12.2076C721.929 10.3596 722.527 8.95964 723.721 8.00764C724.916 7.03697 726.559 6.55164 728.649 6.55164C730.199 6.55164 731.515 6.80364 732.597 7.30764C733.699 7.79297 734.585 8.48364 735.257 9.37964L733.297 11.3396C732.756 10.6863 732.112 10.1636 731.365 9.77164C730.637 9.36097 729.732 9.15564 728.649 9.15564C727.492 9.15564 726.605 9.40764 725.989 9.91164C725.392 10.397 725.093 11.1156 725.093 12.0676C725.093 12.8703 725.327 13.505 725.793 13.9716C726.279 14.4196 727.128 14.7463 728.341 14.9516L730.413 15.3156C732.168 15.633 733.447 16.277 734.249 17.2476C735.052 18.1996 735.453 19.3663 735.453 20.7476C735.453 21.6436 735.295 22.465 734.977 23.2116C734.679 23.9583 734.221 24.593 733.605 25.1156C733.008 25.6383 732.261 26.049 731.365 26.3476C730.488 26.6276 729.48 26.7676 728.341 26.7676ZM755.955 26.4316V24.0516H760.547V9.26764H755.955V6.88764H768.275V9.26764H763.683V24.0516H768.275V26.4316H755.955ZM772.814 6.88764H778.638C781.139 6.88764 782.987 7.71831 784.182 9.37964C785.395 11.041 786.002 13.4676 786.002 16.6596C786.002 19.8516 785.395 22.2783 784.182 23.9396C782.987 25.601 781.139 26.4316 778.638 26.4316H772.814V6.88764ZM778.442 23.8556C779.879 23.8556 780.943 23.3796 781.634 22.4276C782.343 21.457 782.698 20.0756 782.698 18.2836V15.0356C782.698 13.2436 782.343 11.8716 781.634 10.9196C780.943 9.94897 779.879 9.46364 778.442 9.46364H775.922V23.8556H778.442ZM789.728 26.4316V6.88764H801.964V9.51964H792.864V15.2036H801.628V17.8356H792.864V23.7996H801.964V26.4316H789.728ZM806.363 26.4316V24.0516H810.955V9.26764H806.363V6.88764H818.683V9.26764H814.091V24.0516H818.683V26.4316H806.363ZM833.862 26.4316L832.378 21.2236H826.162L824.678 26.4316H821.486L827.198 6.88764H831.482L837.194 26.4316H833.862ZM829.382 10.0516H829.158L826.75 18.6196H831.79L829.382 10.0516ZM845.961 26.7676C844.262 26.7676 842.834 26.469 841.677 25.8716C840.519 25.2743 839.567 24.481 838.821 23.4916L840.837 21.5596C841.583 22.4556 842.377 23.1183 843.217 23.5476C844.057 23.9583 845.009 24.1636 846.073 24.1636C847.305 24.1636 848.247 23.8836 848.901 23.3236C849.573 22.7636 849.909 21.961 849.909 20.9156C849.909 20.0756 849.666 19.4316 849.181 18.9836C848.695 18.517 847.865 18.181 846.689 17.9756L844.561 17.6396C843.627 17.4903 842.843 17.2476 842.209 16.9116C841.574 16.557 841.061 16.1463 840.669 15.6796C840.277 15.1943 839.987 14.6623 839.801 14.0836C839.633 13.4863 839.549 12.861 839.549 12.2076C839.549 10.3596 840.146 8.95964 841.341 8.00764C842.535 7.03697 844.178 6.55164 846.269 6.55164C847.818 6.55164 849.134 6.80364 850.217 7.30764C851.318 7.79297 852.205 8.48364 852.877 9.37964L850.917 11.3396C850.375 10.6863 849.731 10.1636 848.985 9.77164C848.257 9.36097 847.351 9.15564 846.269 9.15564C845.111 9.15564 844.225 9.40764 843.609 9.91164C843.011 10.397 842.713 11.1156 842.713 12.0676C842.713 12.8703 842.946 13.505 843.413 13.9716C843.898 14.4196 844.747 14.7463 845.961 14.9516L848.033 15.3156C849.787 15.633 851.066 16.277 851.869 17.2476C852.671 18.1996 853.073 19.3663 853.073 20.7476C853.073 21.6436 852.914 22.465 852.597 23.2116C852.298 23.9583 851.841 24.593 851.225 25.1156C850.627 25.6383 849.881 26.049 848.985 26.3476C848.107 26.6276 847.099 26.7676 845.961 26.7676ZM873.63 6.88764H879.454C881.955 6.88764 883.803 7.71831 884.998 9.37964C886.211 11.041 886.818 13.4676 886.818 16.6596C886.818 19.8516 886.211 22.2783 884.998 23.9396C883.803 25.601 881.955 26.4316 879.454 26.4316H873.63V6.88764ZM879.258 23.8556C880.695 23.8556 881.759 23.3796 882.45 22.4276C883.159 21.457 883.514 20.0756 883.514 18.2836V15.0356C883.514 13.2436 883.159 11.8716 882.45 10.9196C881.759 9.94897 880.695 9.46364 879.258 9.46364H876.738V23.8556H879.258ZM890.545 26.4316V6.88764H902.781V9.51964H893.681V15.2036H902.445V17.8356H893.681V23.7996H902.781V26.4316H890.545ZM937.002 26.4316H923.506V23.4356L929.89 17.8636C930.898 16.9676 931.673 16.1183 932.214 15.3156C932.774 14.513 933.054 13.6636 933.054 12.7676V12.4596C933.054 11.433 932.774 10.649 932.214 10.1076C931.654 9.54764 930.842 9.26764 929.778 9.26764C928.696 9.26764 927.856 9.55697 927.258 10.1356C926.68 10.7143 926.26 11.4516 925.998 12.3476L923.254 11.3116C923.441 10.6956 923.712 10.1076 924.066 9.54764C924.421 8.96897 924.869 8.45564 925.41 8.00764C925.97 7.55964 926.624 7.20497 927.37 6.94364C928.136 6.6823 929.013 6.55164 930.002 6.55164C931.01 6.55164 931.906 6.70097 932.69 6.99964C933.493 7.27964 934.165 7.67164 934.706 8.17564C935.248 8.67964 935.658 9.28631 935.938 9.99564C936.218 10.6863 936.358 11.4516 936.358 12.2916C936.358 13.0756 936.237 13.8036 935.994 14.4756C935.77 15.129 935.444 15.7636 935.014 16.3796C934.604 16.977 934.109 17.5556 933.53 18.1156C932.952 18.6756 932.317 19.2356 931.626 19.7956L926.894 23.7716H937.002V26.4316ZM946.945 26.7676C945.713 26.7676 944.64 26.5436 943.725 26.0956C942.829 25.629 942.082 24.9663 941.485 24.1076C940.906 23.249 940.477 22.1943 940.197 20.9436C939.917 19.693 939.777 18.265 939.777 16.6596C939.777 15.073 939.917 13.6543 940.197 12.4036C940.477 11.1343 940.906 10.0703 941.485 9.21164C942.082 8.35297 942.829 7.69964 943.725 7.25164C944.64 6.78497 945.713 6.55164 946.945 6.55164C948.177 6.55164 949.241 6.78497 950.137 7.25164C951.052 7.69964 951.798 8.35297 952.377 9.21164C952.974 10.0703 953.413 11.1343 953.693 12.4036C953.973 13.6543 954.113 15.073 954.113 16.6596C954.113 18.265 953.973 19.693 953.693 20.9436C953.413 22.1943 952.974 23.249 952.377 24.1076C951.798 24.9663 951.052 25.629 950.137 26.0956C949.241 26.5436 948.177 26.7676 946.945 26.7676ZM946.945 24.1916C948.364 24.1916 949.372 23.669 949.969 22.6236C950.585 21.5596 950.893 20.1316 950.893 18.3396V14.9796C950.893 13.1876 950.585 11.769 949.969 10.7236C949.372 9.65964 948.364 9.12764 946.945 9.12764C946.236 9.12764 945.629 9.26764 945.125 9.54764C944.621 9.80897 944.21 10.201 943.893 10.7236C943.576 11.2276 943.342 11.8436 943.193 12.5716C943.062 13.281 942.997 14.0836 942.997 14.9796V18.3396C942.997 19.2356 943.062 20.0476 943.193 20.7756C943.342 21.485 943.576 22.101 943.893 22.6236C944.21 23.1276 944.621 23.5196 945.125 23.7996C945.629 24.061 946.236 24.1916 946.945 24.1916ZM946.945 18.3116C946.292 18.3116 945.834 18.181 945.573 17.9196C945.33 17.6583 945.209 17.341 945.209 16.9676V16.3516C945.209 15.9783 945.33 15.661 945.573 15.3996C945.834 15.1383 946.292 15.0076 946.945 15.0076C947.598 15.0076 948.046 15.1383 948.289 15.3996C948.55 15.661 948.681 15.9783 948.681 16.3516V16.9676C948.681 17.341 948.55 17.6583 948.289 17.9196C948.046 18.181 947.598 18.3116 946.945 18.3116ZM970.608 26.4316H957.112V23.4356L963.496 17.8636C964.504 16.9676 965.278 16.1183 965.82 15.3156C966.38 14.513 966.66 13.6636 966.66 12.7676V12.4596C966.66 11.433 966.38 10.649 965.82 10.1076C965.26 9.54764 964.448 9.26764 963.384 9.26764C962.301 9.26764 961.461 9.55697 960.864 10.1356C960.285 10.7143 959.865 11.4516 959.604 12.3476L956.86 11.3116C957.046 10.6956 957.317 10.1076 957.672 9.54764C958.026 8.96897 958.474 8.45564 959.016 8.00764C959.576 7.55964 960.229 7.20497 960.976 6.94364C961.741 6.6823 962.618 6.55164 963.608 6.55164C964.616 6.55164 965.512 6.70097 966.296 6.99964C967.098 7.27964 967.77 7.67164 968.312 8.17564C968.853 8.67964 969.264 9.28631 969.544 9.99564C969.824 10.6863 969.964 11.4516 969.964 12.2916C969.964 13.0756 969.842 13.8036 969.6 14.4756C969.376 15.129 969.049 15.7636 968.62 16.3796C968.209 16.977 967.714 17.5556 967.136 18.1156C966.557 18.6756 965.922 19.2356 965.232 19.7956L960.5 23.7716H970.608V26.4316ZM980.606 26.7676C979.505 26.7676 978.525 26.5903 977.666 26.2356C976.808 25.881 976.08 25.377 975.482 24.7236C974.885 24.0516 974.428 23.249 974.11 22.3156C973.793 21.3823 973.634 20.3276 973.634 19.1516C973.634 17.733 973.849 16.3983 974.278 15.1476C974.708 13.897 975.268 12.749 975.958 11.7036C976.649 10.6583 977.414 9.73431 978.254 8.93164C979.094 8.11031 979.925 7.42897 980.746 6.88764H984.946C983.826 7.69031 982.818 8.46497 981.922 9.21164C981.026 9.95831 980.242 10.7236 979.57 11.5076C978.917 12.2916 978.366 13.1223 977.918 13.9996C977.47 14.8583 977.125 15.8196 976.882 16.8836L977.078 16.9396C977.284 16.5476 977.526 16.1836 977.806 15.8476C978.086 15.493 978.413 15.185 978.786 14.9236C979.16 14.6623 979.589 14.457 980.074 14.3076C980.56 14.1583 981.11 14.0836 981.726 14.0836C982.566 14.0836 983.341 14.2236 984.05 14.5036C984.76 14.7836 985.376 15.1943 985.898 15.7356C986.421 16.2583 986.822 16.893 987.102 17.6396C987.401 18.3863 987.55 19.2263 987.55 20.1596C987.55 21.1303 987.382 22.0263 987.046 22.8476C986.729 23.6503 986.262 24.341 985.646 24.9196C985.049 25.4983 984.321 25.9556 983.462 26.2916C982.604 26.609 981.652 26.7676 980.606 26.7676ZM980.578 24.2476C981.773 24.2476 982.697 23.9303 983.35 23.2956C984.004 22.6423 984.33 21.7276 984.33 20.5516V20.2716C984.33 19.0956 984.004 18.1903 983.35 17.5556C982.697 16.9023 981.773 16.5756 980.578 16.5756C979.402 16.5756 978.488 16.9023 977.834 17.5556C977.181 18.1903 976.854 19.0956 976.854 20.2716V20.5516C976.854 21.7276 977.181 22.6423 977.834 23.2956C978.488 23.9303 979.402 24.2476 980.578 24.2476ZM997.353 26.7116C996.457 26.7116 995.822 26.525 995.449 26.1516C995.094 25.7783 994.917 25.321 994.917 24.7796V24.0516C994.917 23.5103 995.094 23.053 995.449 22.6796C995.822 22.3063 996.457 22.1196 997.353 22.1196C998.249 22.1196 998.874 22.3063 999.229 22.6796C999.602 23.053 999.789 23.5103 999.789 24.0516V24.7796C999.789 25.321 999.602 25.7783 999.229 26.1516C998.874 26.525 998.249 26.7116 997.353 26.7116ZM-0.000263914 59.4316V39.8876H12.2357V42.5196H3.13574V48.2036H11.8997V50.8356H3.13574V56.7996H12.2357V59.4316H-0.000263914ZM22.6265 59.7676C20.9278 59.7676 19.4998 59.469 18.3425 58.8716C17.1851 58.2743 16.2331 57.481 15.4865 56.4916L17.5025 54.5596C18.2491 55.4556 19.0425 56.1183 19.8825 56.5476C20.7225 56.9583 21.6745 57.1636 22.7385 57.1636C23.9705 57.1636 24.9131 56.8836 25.5665 56.3236C26.2385 55.7636 26.5745 54.961 26.5745 53.9156C26.5745 53.0756 26.3318 52.4316 25.8465 51.9836C25.3611 51.517 24.5305 51.181 23.3545 50.9756L21.2265 50.6396C20.2931 50.4903 19.5091 50.2476 18.8745 49.9116C18.2398 49.557 17.7265 49.1463 17.3345 48.6796C16.9425 48.1943 16.6531 47.6623 16.4665 47.0836C16.2985 46.4863 16.2145 45.861 16.2145 45.2076C16.2145 43.3596 16.8118 41.9596 18.0065 41.0076C19.2011 40.037 20.8438 39.5516 22.9345 39.5516C24.4838 39.5516 25.7998 39.8036 26.8825 40.3076C27.9838 40.793 28.8705 41.4836 29.5425 42.3796L27.5825 44.3396C27.0411 43.6863 26.3971 43.1636 25.6505 42.7716C24.9225 42.361 24.0171 42.1556 22.9345 42.1556C21.7771 42.1556 20.8905 42.4076 20.2745 42.9116C19.6771 43.397 19.3785 44.1156 19.3785 45.0676C19.3785 45.8703 19.6118 46.505 20.0785 46.9716C20.5638 47.4196 21.4131 47.7463 22.6265 47.9516L24.6985 48.3156C26.4531 48.633 27.7318 49.277 28.5345 50.2476C29.3371 51.1996 29.7385 52.3663 29.7385 53.7476C29.7385 54.6436 29.5798 55.465 29.2625 56.2116C28.9638 56.9583 28.5065 57.593 27.8905 58.1156C27.2931 58.6383 26.5465 59.049 25.6505 59.3476C24.7731 59.6276 23.7651 59.7676 22.6265 59.7676ZM41.1652 42.5196V59.4316H38.0292V42.5196H31.8972V39.8876H47.2972V42.5196H41.1652ZM60.9359 59.4316L59.4519 54.2236H53.2359L51.7519 59.4316H48.5599L54.2719 39.8876H58.5559L64.2679 59.4316H60.9359ZM56.4559 43.0516H56.2319L53.8239 51.6196H58.8639L56.4559 43.0516ZM73.0347 59.7676C71.336 59.7676 69.908 59.469 68.7507 58.8716C67.5933 58.2743 66.6413 57.481 65.8947 56.4916L67.9107 54.5596C68.6573 55.4556 69.4507 56.1183 70.2907 56.5476C71.1307 56.9583 72.0827 57.1636 73.1467 57.1636C74.3787 57.1636 75.3213 56.8836 75.9747 56.3236C76.6467 55.7636 76.9827 54.961 76.9827 53.9156C76.9827 53.0756 76.74 52.4316 76.2547 51.9836C75.7693 51.517 74.9387 51.181 73.7627 50.9756L71.6347 50.6396C70.7013 50.4903 69.9173 50.2476 69.2827 49.9116C68.648 49.557 68.1347 49.1463 67.7427 48.6796C67.3507 48.1943 67.0613 47.6623 66.8747 47.0836C66.7067 46.4863 66.6227 45.861 66.6227 45.2076C66.6227 43.3596 67.22 41.9596 68.4147 41.0076C69.6093 40.037 71.252 39.5516 73.3427 39.5516C74.892 39.5516 76.208 39.8036 77.2907 40.3076C78.392 40.793 79.2787 41.4836 79.9507 42.3796L77.9907 44.3396C77.4493 43.6863 76.8053 43.1636 76.0587 42.7716C75.3307 42.361 74.4253 42.1556 73.3427 42.1556C72.1853 42.1556 71.2987 42.4076 70.6827 42.9116C70.0853 43.397 69.7867 44.1156 69.7867 45.0676C69.7867 45.8703 70.02 46.505 70.4867 46.9716C70.972 47.4196 71.8213 47.7463 73.0347 47.9516L75.1067 48.3156C76.8613 48.633 78.14 49.277 78.9427 50.2476C79.7453 51.1996 80.1467 52.3663 80.1467 53.7476C80.1467 54.6436 79.988 55.465 79.6707 56.2116C79.372 56.9583 78.9147 57.593 78.2987 58.1156C77.7013 58.6383 76.9547 59.049 76.0587 59.3476C75.1813 59.6276 74.1733 59.7676 73.0347 59.7676ZM106.64 59.7676C104.941 59.7676 103.513 59.469 102.356 58.8716C101.199 58.2743 100.247 57.481 99.5002 56.4916L101.516 54.5596C102.263 55.4556 103.056 56.1183 103.896 56.5476C104.736 56.9583 105.688 57.1636 106.752 57.1636C107.984 57.1636 108.927 56.8836 109.58 56.3236C110.252 55.7636 110.588 54.961 110.588 53.9156C110.588 53.0756 110.345 52.4316 109.86 51.9836C109.375 51.517 108.544 51.181 107.368 50.9756L105.24 50.6396C104.307 50.4903 103.523 50.2476 102.888 49.9116C102.253 49.557 101.74 49.1463 101.348 48.6796C100.956 48.1943 100.667 47.6623 100.48 47.0836C100.312 46.4863 100.228 45.861 100.228 45.2076C100.228 43.3596 100.825 41.9596 102.02 41.0076C103.215 40.037 104.857 39.5516 106.948 39.5516C108.497 39.5516 109.813 39.8036 110.896 40.3076C111.997 40.793 112.884 41.4836 113.556 42.3796L111.596 44.3396C111.055 43.6863 110.411 43.1636 109.664 42.7716C108.936 42.361 108.031 42.1556 106.948 42.1556C105.791 42.1556 104.904 42.4076 104.288 42.9116C103.691 43.397 103.392 44.1156 103.392 45.0676C103.392 45.8703 103.625 46.505 104.092 46.9716C104.577 47.4196 105.427 47.7463 106.64 47.9516L108.712 48.3156C110.467 48.633 111.745 49.277 112.548 50.2476C113.351 51.1996 113.752 52.3663 113.752 53.7476C113.752 54.6436 113.593 55.465 113.276 56.2116C112.977 56.9583 112.52 57.593 111.904 58.1156C111.307 58.6383 110.56 59.049 109.664 59.3476C108.787 59.6276 107.779 59.7676 106.64 59.7676ZM128.147 59.4316L126.663 54.2236H120.447L118.963 59.4316H115.771L121.483 39.8876H125.767L131.479 59.4316H128.147ZM123.667 43.0516H123.443L121.035 51.6196H126.075L123.667 43.0516ZM125.683 37.7596C125.216 37.7596 124.815 37.6943 124.479 37.5636C124.143 37.4143 123.816 37.265 123.499 37.1156C123.07 36.9103 122.687 36.7516 122.351 36.6396C122.034 36.5276 121.726 36.4716 121.427 36.4716C121.11 36.4716 120.83 36.537 120.587 36.6676C120.344 36.7796 120.083 36.957 119.803 37.1996L118.655 35.7436C118.935 35.3143 119.308 34.941 119.775 34.6236C120.26 34.3063 120.848 34.1476 121.539 34.1476C122.006 34.1476 122.407 34.2223 122.743 34.3716C123.079 34.5023 123.406 34.6423 123.723 34.7916C124.152 34.997 124.526 35.1556 124.843 35.2676C125.179 35.3796 125.496 35.4356 125.795 35.4356C126.112 35.4356 126.392 35.3796 126.635 35.2676C126.878 35.137 127.139 34.9503 127.419 34.7076L128.567 36.1636C128.287 36.593 127.904 36.9663 127.419 37.2836C126.952 37.601 126.374 37.7596 125.683 37.7596ZM140.414 59.7676C139.182 59.7676 138.108 59.5436 137.194 59.0956C136.298 58.629 135.551 57.9663 134.954 57.1076C134.375 56.249 133.946 55.1943 133.666 53.9436C133.386 52.693 133.246 51.265 133.246 49.6596C133.246 48.073 133.386 46.6543 133.666 45.4036C133.946 44.1343 134.375 43.0703 134.954 42.2116C135.551 41.353 136.298 40.6996 137.194 40.2516C138.108 39.785 139.182 39.5516 140.414 39.5516C141.646 39.5516 142.71 39.785 143.606 40.2516C144.52 40.6996 145.267 41.353 145.846 42.2116C146.443 43.0703 146.882 44.1343 147.162 45.4036C147.442 46.6543 147.582 48.073 147.582 49.6596C147.582 51.265 147.442 52.693 147.162 53.9436C146.882 55.1943 146.443 56.249 145.846 57.1076C145.267 57.9663 144.52 58.629 143.606 59.0956C142.71 59.5436 141.646 59.7676 140.414 59.7676ZM140.414 57.1636C141.814 57.1636 142.803 56.641 143.382 55.5956C143.96 54.5316 144.25 53.0943 144.25 51.2836V48.0076C144.25 46.2156 143.96 44.797 143.382 43.7516C142.803 42.6876 141.814 42.1556 140.414 42.1556C139.014 42.1556 138.024 42.6876 137.446 43.7516C136.867 44.797 136.578 46.2156 136.578 48.0076V51.3116C136.578 53.1036 136.867 54.5316 137.446 55.5956C138.024 56.641 139.014 57.1636 140.414 57.1636ZM178.555 59.4316L177.071 54.2236H170.855L169.371 59.4316H166.179L171.891 39.8876H176.175L181.887 59.4316H178.555ZM174.075 43.0516H173.851L171.443 51.6196H176.483L174.075 43.0516ZM190.654 59.7676C188.955 59.7676 187.527 59.469 186.37 58.8716C185.212 58.2743 184.26 57.481 183.514 56.4916L185.53 54.5596C186.276 55.4556 187.07 56.1183 187.91 56.5476C188.75 56.9583 189.702 57.1636 190.766 57.1636C191.998 57.1636 192.94 56.8836 193.594 56.3236C194.266 55.7636 194.602 54.961 194.602 53.9156C194.602 53.0756 194.359 52.4316 193.874 51.9836C193.388 51.517 192.558 51.181 191.382 50.9756L189.254 50.6396C188.32 50.4903 187.536 50.2476 186.902 49.9116C186.267 49.557 185.754 49.1463 185.362 48.6796C184.97 48.1943 184.68 47.6623 184.494 47.0836C184.326 46.4863 184.242 45.861 184.242 45.2076C184.242 43.3596 184.839 41.9596 186.034 41.0076C187.228 40.037 188.871 39.5516 190.962 39.5516C192.511 39.5516 193.827 39.8036 194.91 40.3076C196.011 40.793 196.898 41.4836 197.57 42.3796L195.61 44.3396C195.068 43.6863 194.424 43.1636 193.678 42.7716C192.95 42.361 192.044 42.1556 190.962 42.1556C189.804 42.1556 188.918 42.4076 188.302 42.9116C187.704 43.397 187.406 44.1156 187.406 45.0676C187.406 45.8703 187.639 46.505 188.106 46.9716C188.591 47.4196 189.44 47.7463 190.654 47.9516L192.726 48.3156C194.48 48.633 195.759 49.277 196.562 50.2476C197.364 51.1996 197.766 52.3663 197.766 53.7476C197.766 54.6436 197.607 55.465 197.29 56.2116C196.991 56.9583 196.534 57.593 195.918 58.1156C195.32 58.6383 194.574 59.049 193.678 59.3476C192.8 59.6276 191.792 59.7676 190.654 59.7676ZM218.323 39.8876H224.147C226.649 39.8876 228.497 40.7183 229.691 42.3796C230.905 44.041 231.511 46.4676 231.511 49.6596C231.511 52.8516 230.905 55.2783 229.691 56.9396C228.497 58.601 226.649 59.4316 224.147 59.4316H218.323V39.8876ZM223.951 56.8556C225.389 56.8556 226.453 56.3796 227.143 55.4276C227.853 54.457 228.207 53.0756 228.207 51.2836V48.0356C228.207 46.2436 227.853 44.8716 227.143 43.9196C226.453 42.949 225.389 42.4636 223.951 42.4636H221.431V56.8556H223.951ZM237.898 39.8876V51.8996C237.898 52.7023 237.917 53.4303 237.954 54.0836C238.01 54.737 238.15 55.297 238.374 55.7636C238.598 56.2116 238.934 56.557 239.382 56.7996C239.83 57.0423 240.446 57.1636 241.23 57.1636C242.014 57.1636 242.63 57.0423 243.078 56.7996C243.526 56.557 243.862 56.2116 244.086 55.7636C244.31 55.297 244.441 54.737 244.478 54.0836C244.534 53.4303 244.562 52.7023 244.562 51.8996V39.8876H247.698V51.3396C247.698 52.7396 247.614 53.9716 247.446 55.0356C247.297 56.081 246.989 56.9583 246.522 57.6676C246.055 58.3583 245.393 58.881 244.534 59.2356C243.694 59.5903 242.593 59.7676 241.23 59.7676C239.867 59.7676 238.757 59.5903 237.898 59.2356C237.058 58.881 236.405 58.3583 235.938 57.6676C235.471 56.9583 235.154 56.081 234.986 55.0356C234.837 53.9716 234.762 52.7396 234.762 51.3396V39.8876H237.898ZM251.985 59.4316V39.8876H259.293C261.159 39.8876 262.578 40.4103 263.549 41.4556C264.538 42.501 265.033 43.9383 265.033 45.7676C265.033 47.597 264.538 49.0343 263.549 50.0796C262.578 51.125 261.159 51.6476 259.293 51.6476H255.121V59.4316H251.985ZM255.121 49.0436H258.817C260.758 49.0436 261.729 48.1476 261.729 46.3556V45.1516C261.729 43.3783 260.758 42.4916 258.817 42.4916H255.121V49.0436ZM269.46 59.4316V39.8876H272.596V56.7996H281.5V59.4316H269.46ZM296.174 59.4316L294.69 54.2236H288.474L286.99 59.4316H283.798L289.51 39.8876H293.794L299.506 59.4316H296.174ZM291.694 43.0516H291.47L289.062 51.6196H294.102L291.694 43.0516ZM308.273 59.7676C306.574 59.7676 305.146 59.469 303.989 58.8716C302.832 58.2743 301.88 57.481 301.133 56.4916L303.149 54.5596C303.896 55.4556 304.689 56.1183 305.529 56.5476C306.369 56.9583 307.321 57.1636 308.385 57.1636C309.617 57.1636 310.56 56.8836 311.213 56.3236C311.885 55.7636 312.221 54.961 312.221 53.9156C312.221 53.0756 311.978 52.4316 311.493 51.9836C311.008 51.517 310.177 51.181 309.001 50.9756L306.873 50.6396C305.94 50.4903 305.156 50.2476 304.521 49.9116C303.886 49.557 303.373 49.1463 302.981 48.6796C302.589 48.1943 302.3 47.6623 302.113 47.0836C301.945 46.4863 301.861 45.861 301.861 45.2076C301.861 43.3596 302.458 41.9596 303.653 41.0076C304.848 40.037 306.49 39.5516 308.581 39.5516C310.13 39.5516 311.446 39.8036 312.529 40.3076C313.63 40.793 314.517 41.4836 315.189 42.3796L313.229 44.3396C312.688 43.6863 312.044 43.1636 311.297 42.7716C310.569 42.361 309.664 42.1556 308.581 42.1556C307.424 42.1556 306.537 42.4076 305.921 42.9116C305.324 43.397 305.025 44.1156 305.025 45.0676C305.025 45.8703 305.258 46.505 305.725 46.9716C306.21 47.4196 307.06 47.7463 308.273 47.9516L310.345 48.3156C312.1 48.633 313.378 49.277 314.181 50.2476C314.984 51.1996 315.385 52.3663 315.385 53.7476C315.385 54.6436 315.226 55.465 314.909 56.2116C314.61 56.9583 314.153 57.593 313.537 58.1156C312.94 58.6383 312.193 59.049 311.297 59.3476C310.42 59.6276 309.412 59.7676 308.273 59.7676ZM347.814 64.3316H344.23C342.961 64.3316 342.046 63.9956 341.486 63.3236C340.926 62.6703 340.646 61.8023 340.646 60.7196V59.6556C339.657 59.4876 338.798 59.1423 338.07 58.6196C337.342 58.097 336.736 57.4156 336.25 56.5756C335.784 55.717 335.438 54.709 335.214 53.5516C334.99 52.3943 334.878 51.097 334.878 49.6596C334.878 48.073 335.018 46.6543 335.298 45.4036C335.578 44.1343 336.008 43.0703 336.586 42.2116C337.184 41.353 337.93 40.6996 338.826 40.2516C339.741 39.785 340.814 39.5516 342.046 39.5516C343.278 39.5516 344.342 39.785 345.238 40.2516C346.153 40.6996 346.9 41.353 347.478 42.2116C348.076 43.0703 348.514 44.1343 348.794 45.4036C349.074 46.6543 349.214 48.073 349.214 49.6596C349.214 52.5343 348.748 54.8396 347.814 56.5756C346.881 58.3116 345.425 59.3383 343.446 59.6556V61.9796H347.814V64.3316ZM342.046 57.1636C343.446 57.1636 344.436 56.641 345.014 55.5956C345.593 54.5316 345.882 53.0943 345.882 51.2836V48.0076C345.882 46.2156 345.593 44.797 345.014 43.7516C344.436 42.6876 343.446 42.1556 342.046 42.1556C340.646 42.1556 339.657 42.6876 339.078 43.7516C338.5 44.797 338.21 46.2156 338.21 48.0076V51.3116C338.21 53.1036 338.5 54.5316 339.078 55.5956C339.657 56.641 340.646 57.1636 342.046 57.1636ZM355.517 39.8876V51.8996C355.517 52.7023 355.536 53.4303 355.573 54.0836C355.629 54.737 355.769 55.297 355.993 55.7636C356.217 56.2116 356.553 56.557 357.001 56.7996C357.449 57.0423 358.065 57.1636 358.849 57.1636C359.633 57.1636 360.249 57.0423 360.697 56.7996C361.145 56.557 361.481 56.2116 361.705 55.7636C361.929 55.297 362.06 54.737 362.097 54.0836C362.153 53.4303 362.181 52.7023 362.181 51.8996V39.8876H365.317V51.3396C365.317 52.7396 365.233 53.9716 365.065 55.0356C364.916 56.081 364.608 56.9583 364.141 57.6676C363.675 58.3583 363.012 58.881 362.153 59.2356C361.313 59.5903 360.212 59.7676 358.849 59.7676C357.487 59.7676 356.376 59.5903 355.517 59.2356C354.677 58.881 354.024 58.3583 353.557 57.6676C353.091 56.9583 352.773 56.081 352.605 55.0356C352.456 53.9716 352.381 52.7396 352.381 51.3396V39.8876H355.517ZM369.66 59.4316V39.8876H381.896V42.5196H372.796V48.2036H381.56V50.8356H372.796V56.7996H381.896V59.4316H369.66ZM403.265 59.4316V39.8876H415.501V42.5196H406.401V48.2036H415.165V50.8356H406.401V56.7996H415.501V59.4316H403.265ZM425.892 59.7676C424.193 59.7676 422.765 59.469 421.608 58.8716C420.451 58.2743 419.499 57.481 418.752 56.4916L420.768 54.5596C421.515 55.4556 422.308 56.1183 423.148 56.5476C423.988 56.9583 424.94 57.1636 426.004 57.1636C427.236 57.1636 428.179 56.8836 428.832 56.3236C429.504 55.7636 429.84 54.961 429.84 53.9156C429.84 53.0756 429.597 52.4316 429.112 51.9836C428.627 51.517 427.796 51.181 426.62 50.9756L424.492 50.6396C423.559 50.4903 422.775 50.2476 422.14 49.9116C421.505 49.557 420.992 49.1463 420.6 48.6796C420.208 48.1943 419.919 47.6623 419.732 47.0836C419.564 46.4863 419.48 45.861 419.48 45.2076C419.48 43.3596 420.077 41.9596 421.272 41.0076C422.467 40.037 424.109 39.5516 426.2 39.5516C427.749 39.5516 429.065 39.8036 430.148 40.3076C431.249 40.793 432.136 41.4836 432.808 42.3796L430.848 44.3396C430.307 43.6863 429.663 43.1636 428.916 42.7716C428.188 42.361 427.283 42.1556 426.2 42.1556C425.043 42.1556 424.156 42.4076 423.54 42.9116C422.943 43.397 422.644 44.1156 422.644 45.0676C422.644 45.8703 422.877 46.505 423.344 46.9716C423.829 47.4196 424.679 47.7463 425.892 47.9516L427.964 48.3156C429.719 48.633 430.997 49.277 431.8 50.2476C432.603 51.1996 433.004 52.3663 433.004 53.7476C433.004 54.6436 432.845 55.465 432.528 56.2116C432.229 56.9583 431.772 57.593 431.156 58.1156C430.559 58.6383 429.812 59.049 428.916 59.3476C428.039 59.6276 427.031 59.7676 425.892 59.7676ZM444.431 42.5196V59.4316H441.295V42.5196H435.163V39.8876H450.563V42.5196H444.431ZM464.202 59.4316L462.718 54.2236H456.502L455.018 59.4316H451.826L457.538 39.8876H461.822L467.534 59.4316H464.202ZM459.722 43.0516H459.498L457.09 51.6196H462.13L459.722 43.0516ZM461.738 37.7596C461.271 37.7596 460.87 37.6943 460.534 37.5636C460.198 37.4143 459.871 37.265 459.554 37.1156C459.124 36.9103 458.742 36.7516 458.406 36.6396C458.088 36.5276 457.78 36.4716 457.482 36.4716C457.164 36.4716 456.884 36.537 456.642 36.6676C456.399 36.7796 456.138 36.957 455.858 37.1996L454.71 35.7436C454.99 35.3143 455.363 34.941 455.83 34.6236C456.315 34.3063 456.903 34.1476 457.594 34.1476C458.06 34.1476 458.462 34.2223 458.798 34.3716C459.134 34.5023 459.46 34.6423 459.778 34.7916C460.207 34.997 460.58 35.1556 460.898 35.2676C461.234 35.3796 461.551 35.4356 461.85 35.4356C462.167 35.4356 462.447 35.3796 462.69 35.2676C462.932 35.137 463.194 34.9503 463.474 34.7076L464.622 36.1636C464.342 36.593 463.959 36.9663 463.474 37.2836C463.007 37.601 462.428 37.7596 461.738 37.7596ZM476.468 59.7676C475.236 59.7676 474.163 59.5436 473.248 59.0956C472.352 58.629 471.606 57.9663 471.008 57.1076C470.43 56.249 470 55.1943 469.72 53.9436C469.44 52.693 469.3 51.265 469.3 49.6596C469.3 48.073 469.44 46.6543 469.72 45.4036C470 44.1343 470.43 43.0703 471.008 42.2116C471.606 41.353 472.352 40.6996 473.248 40.2516C474.163 39.785 475.236 39.5516 476.468 39.5516C477.7 39.5516 478.764 39.785 479.66 40.2516C480.575 40.6996 481.322 41.353 481.9 42.2116C482.498 43.0703 482.936 44.1343 483.216 45.4036C483.496 46.6543 483.636 48.073 483.636 49.6596C483.636 51.265 483.496 52.693 483.216 53.9436C482.936 55.1943 482.498 56.249 481.9 57.1076C481.322 57.9663 480.575 58.629 479.66 59.0956C478.764 59.5436 477.7 59.7676 476.468 59.7676ZM476.468 57.1636C477.868 57.1636 478.858 56.641 479.436 55.5956C480.015 54.5316 480.304 53.0943 480.304 51.2836V48.0076C480.304 46.2156 480.015 44.797 479.436 43.7516C478.858 42.6876 477.868 42.1556 476.468 42.1556C475.068 42.1556 474.079 42.6876 473.5 43.7516C472.922 44.797 472.632 46.2156 472.632 48.0076V51.3116C472.632 53.1036 472.922 54.5316 473.5 55.5956C474.079 56.641 475.068 57.1636 476.468 57.1636ZM503.97 39.8876H509.794C512.295 39.8876 514.143 40.7183 515.338 42.3796C516.551 44.041 517.158 46.4676 517.158 49.6596C517.158 52.8516 516.551 55.2783 515.338 56.9396C514.143 58.601 512.295 59.4316 509.794 59.4316H503.97V39.8876ZM509.598 56.8556C511.035 56.8556 512.099 56.3796 512.79 55.4276C513.499 54.457 513.854 53.0756 513.854 51.2836V48.0356C513.854 46.2436 513.499 44.8716 512.79 43.9196C512.099 42.949 511.035 42.4636 509.598 42.4636H507.078V56.8556H509.598ZM520.885 59.4316V39.8876H533.121V42.5196H524.021V48.2036H532.785V50.8356H524.021V56.7996H533.121V59.4316H520.885ZM554.434 59.4316V39.8876H561.742C563.609 39.8876 565.027 40.4103 565.998 41.4556C566.987 42.501 567.482 43.9383 567.482 45.7676C567.482 47.597 566.987 49.0343 565.998 50.0796C565.027 51.125 563.609 51.6476 561.742 51.6476H557.57V59.4316H554.434ZM557.57 49.0436H561.266C563.207 49.0436 564.178 48.1476 564.178 46.3556V45.1516C564.178 43.3783 563.207 42.4916 561.266 42.4916H557.57V49.0436ZM581.821 59.4316L580.337 54.2236H574.121L572.637 59.4316H569.445L575.157 39.8876H579.441L585.153 59.4316H581.821ZM577.341 43.0516H577.117L574.709 51.6196H579.749L577.341 43.0516ZM591.148 59.4316H588.04V39.8876H595.348C597.214 39.8876 598.633 40.4103 599.604 41.4556C600.593 42.501 601.088 43.9383 601.088 45.7676C601.088 47.261 600.724 48.493 599.996 49.4636C599.268 50.4343 598.222 51.0316 596.86 51.2556L601.368 59.4316H597.896L593.752 51.5356H591.148V59.4316ZM594.9 49.0156C596.841 49.0156 597.812 48.129 597.812 46.3556V45.1516C597.812 43.3783 596.841 42.4916 594.9 42.4916H591.148V49.0156H594.9ZM615.426 59.4316L613.942 54.2236H607.726L606.242 59.4316H603.05L608.762 39.8876H613.046L618.758 59.4316H615.426ZM610.946 43.0516H610.722L608.314 51.6196H613.354L610.946 43.0516ZM621.617 39.8876H628.365C630.138 39.8876 631.51 40.345 632.481 41.2596C633.47 42.1743 633.965 43.425 633.965 45.0116C633.965 46.1503 633.685 47.0556 633.125 47.7276C632.565 48.3996 631.809 48.8756 630.857 49.1556V49.2956C631.996 49.557 632.91 50.061 633.601 50.8076C634.292 51.5356 634.637 52.5716 634.637 53.9156C634.637 54.7183 634.506 55.4556 634.245 56.1276C633.984 56.7996 633.61 57.3876 633.125 57.8916C632.64 58.377 632.052 58.7596 631.361 59.0396C630.689 59.301 629.942 59.4316 629.121 59.4316H621.617V39.8876ZM628.169 57.0236C629.214 57.0236 630.017 56.809 630.577 56.3796C631.137 55.9503 631.417 55.2596 631.417 54.3076V53.2996C631.417 52.3476 631.137 51.657 630.577 51.2276C630.017 50.7983 629.214 50.5836 628.169 50.5836H624.697V57.0236H628.169ZM627.721 48.2876C628.71 48.2876 629.457 48.101 629.961 47.7276C630.484 47.3356 630.745 46.6916 630.745 45.7956V44.7876C630.745 43.8916 630.484 43.257 629.961 42.8836C629.457 42.4916 628.71 42.2956 627.721 42.2956H624.697V48.2876H627.721ZM638.504 59.4316V39.8876H650.74V42.5196H641.64V48.2036H650.404V50.8356H641.64V56.7996H650.74V59.4316H638.504ZM644.916 38.4596L643.04 37.5636L645.588 32.5236L648.22 33.8116L644.916 38.4596ZM657.91 44.3956H657.658V59.4316H654.914V39.8876H658.946L664.686 54.9236H664.938V39.8876H667.682V59.4316H663.65L657.91 44.3956ZM677.933 59.7676C676.235 59.7676 674.807 59.469 673.649 58.8716C672.492 58.2743 671.54 57.481 670.793 56.4916L672.809 54.5596C673.556 55.4556 674.349 56.1183 675.189 56.5476C676.029 56.9583 676.981 57.1636 678.045 57.1636C679.277 57.1636 680.22 56.8836 680.873 56.3236C681.545 55.7636 681.881 54.961 681.881 53.9156C681.881 53.0756 681.639 52.4316 681.153 51.9836C680.668 51.517 679.837 51.181 678.661 50.9756L676.533 50.6396C675.6 50.4903 674.816 50.2476 674.181 49.9116C673.547 49.557 673.033 49.1463 672.641 48.6796C672.249 48.1943 671.96 47.6623 671.773 47.0836C671.605 46.4863 671.521 45.861 671.521 45.2076C671.521 43.3596 672.119 41.9596 673.313 41.0076C674.508 40.037 676.151 39.5516 678.241 39.5516C679.791 39.5516 681.107 39.8036 682.189 40.3076C683.291 40.793 684.177 41.4836 684.849 42.3796L682.889 44.3396C682.348 43.6863 681.704 43.1636 680.957 42.7716C680.229 42.361 679.324 42.1556 678.241 42.1556C677.084 42.1556 676.197 42.4076 675.581 42.9116C674.984 43.397 674.685 44.1156 674.685 45.0676C674.685 45.8703 674.919 46.505 675.385 46.9716C675.871 47.4196 676.72 47.7463 677.933 47.9516L680.005 48.3156C681.76 48.633 683.039 49.277 683.841 50.2476C684.644 51.1996 685.045 52.3663 685.045 53.7476C685.045 54.6436 684.887 55.465 684.569 56.2116C684.271 56.9583 683.813 57.593 683.197 58.1156C682.6 58.6383 681.853 59.049 680.957 59.3476C680.08 59.6276 679.072 59.7676 677.933 59.7676ZM705.715 59.4316V39.8876H717.951V42.5196H708.851V48.2036H717.615V50.8356H708.851V56.7996H717.951V59.4316H705.715ZM743.128 59.4316L737.612 39.8876H741L743.576 49.7436L745.284 56.3796H745.452L747.16 49.7436L749.764 39.8876H753.012L747.496 59.4316H743.128ZM766.651 59.4316L765.167 54.2236H758.951L757.467 59.4316H754.275L759.987 39.8876H764.271L769.983 59.4316H766.651ZM762.171 43.0516H761.947L759.539 51.6196H764.579L762.171 43.0516ZM764.187 37.7596C763.72 37.7596 763.319 37.6943 762.983 37.5636C762.647 37.4143 762.32 37.265 762.003 37.1156C761.574 36.9103 761.191 36.7516 760.855 36.6396C760.538 36.5276 760.23 36.4716 759.931 36.4716C759.614 36.4716 759.334 36.537 759.091 36.6676C758.848 36.7796 758.587 36.957 758.307 37.1996L757.159 35.7436C757.439 35.3143 757.812 34.941 758.279 34.6236C758.764 34.3063 759.352 34.1476 760.043 34.1476C760.51 34.1476 760.911 34.2223 761.247 34.3716C761.583 34.5023 761.91 34.6423 762.227 34.7916C762.656 34.997 763.03 35.1556 763.347 35.2676C763.683 35.3796 764 35.4356 764.299 35.4356C764.616 35.4356 764.896 35.3796 765.139 35.2676C765.382 35.137 765.643 34.9503 765.923 34.7076L767.071 36.1636C766.791 36.593 766.408 36.9663 765.923 37.2836C765.456 37.601 764.878 37.7596 764.187 37.7596ZM778.918 59.7676C777.686 59.7676 776.612 59.5436 775.698 59.0956C774.802 58.629 774.055 57.9663 773.458 57.1076C772.879 56.249 772.45 55.1943 772.17 53.9436C771.89 52.693 771.75 51.265 771.75 49.6596C771.75 48.073 771.89 46.6543 772.17 45.4036C772.45 44.1343 772.879 43.0703 773.458 42.2116C774.055 41.353 774.802 40.6996 775.698 40.2516C776.612 39.785 777.686 39.5516 778.918 39.5516C780.15 39.5516 781.214 39.785 782.11 40.2516C783.024 40.6996 783.771 41.353 784.35 42.2116C784.947 43.0703 785.386 44.1343 785.666 45.4036C785.946 46.6543 786.086 48.073 786.086 49.6596C786.086 51.265 785.946 52.693 785.666 53.9436C785.386 55.1943 784.947 56.249 784.35 57.1076C783.771 57.9663 783.024 58.629 782.11 59.0956C781.214 59.5436 780.15 59.7676 778.918 59.7676ZM778.918 57.1636C780.318 57.1636 781.307 56.641 781.886 55.5956C782.464 54.5316 782.754 53.0943 782.754 51.2836V48.0076C782.754 46.2156 782.464 44.797 781.886 43.7516C781.307 42.6876 780.318 42.1556 778.918 42.1556C777.518 42.1556 776.528 42.6876 775.95 43.7516C775.371 44.797 775.082 46.2156 775.082 48.0076V51.3116C775.082 53.1036 775.371 54.5316 775.95 55.5956C776.528 56.641 777.518 57.1636 778.918 57.1636ZM817.059 59.4316L815.575 54.2236H809.359L807.875 59.4316H804.683L810.395 39.8876H814.679L820.391 59.4316H817.059ZM812.579 43.0516H812.355L809.947 51.6196H814.987L812.579 43.0516ZM846.689 59.7676C844.206 59.7676 842.358 58.8903 841.145 57.1356C839.95 55.381 839.353 52.889 839.353 49.6596C839.353 46.4303 839.95 43.9383 841.145 42.1836C842.358 40.429 844.206 39.5516 846.689 39.5516C847.641 39.5516 848.462 39.6823 849.153 39.9436C849.862 40.1863 850.469 40.5316 850.973 40.9796C851.477 41.409 851.897 41.9223 852.233 42.5196C852.587 43.0983 852.877 43.7236 853.101 44.3956L850.273 45.3476C850.123 44.8996 849.955 44.4796 849.769 44.0876C849.582 43.6956 849.349 43.3596 849.069 43.0796C848.789 42.7996 848.453 42.5756 848.061 42.4076C847.687 42.2396 847.221 42.1556 846.661 42.1556C845.279 42.1556 844.271 42.6876 843.637 43.7516C843.002 44.797 842.685 46.2156 842.685 48.0076V51.3116C842.685 53.1036 843.002 54.5316 843.637 55.5956C844.271 56.641 845.279 57.1636 846.661 57.1636C847.221 57.1636 847.687 57.0796 848.061 56.9116C848.453 56.7436 848.789 56.5196 849.069 56.2396C849.349 55.9596 849.582 55.6236 849.769 55.2316C849.955 54.8396 850.123 54.4196 850.273 53.9716L853.101 54.9236C852.877 55.5956 852.587 56.2303 852.233 56.8276C851.897 57.4063 851.477 57.9196 850.973 58.3676C850.469 58.797 849.862 59.1423 849.153 59.4036C848.462 59.6463 847.641 59.7676 846.689 59.7676ZM867.467 59.4316L865.983 54.2236H859.767L858.283 59.4316H855.091L860.803 39.8876H865.087L870.799 59.4316H867.467ZM862.987 43.0516H862.763L860.355 51.6196H865.395L862.987 43.0516ZM876.346 44.3956H876.094V59.4316H873.35V39.8876H877.382L883.122 54.9236H883.374V39.8876H886.118V59.4316H882.086L876.346 44.3956ZM893.149 44.3956H892.897V59.4316H890.153V39.8876H894.185L899.925 54.9236H900.177V39.8876H902.921V59.4316H898.889L893.149 44.3956ZM907.348 59.4316V39.8876H919.584V42.5196H910.484V48.2036H919.248V50.8356H910.484V56.7996H919.584V59.4316H907.348ZM929.974 59.7676C928.276 59.7676 926.848 59.469 925.69 58.8716C924.533 58.2743 923.581 57.481 922.834 56.4916L924.85 54.5596C925.597 55.4556 926.39 56.1183 927.23 56.5476C928.07 56.9583 929.022 57.1636 930.086 57.1636C931.318 57.1636 932.261 56.8836 932.914 56.3236C933.586 55.7636 933.922 54.961 933.922 53.9156C933.922 53.0756 933.68 52.4316 933.194 51.9836C932.709 51.517 931.878 51.181 930.702 50.9756L928.574 50.6396C927.641 50.4903 926.857 50.2476 926.222 49.9116C925.588 49.557 925.074 49.1463 924.682 48.6796C924.29 48.1943 924.001 47.6623 923.814 47.0836C923.646 46.4863 923.562 45.861 923.562 45.2076C923.562 43.3596 924.16 41.9596 925.354 41.0076C926.549 40.037 928.192 39.5516 930.282 39.5516C931.832 39.5516 933.148 39.8036 934.23 40.3076C935.332 40.793 936.218 41.4836 936.89 42.3796L934.93 44.3396C934.389 43.6863 933.745 43.1636 932.998 42.7716C932.27 42.361 931.365 42.1556 930.282 42.1556C929.125 42.1556 928.238 42.4076 927.622 42.9116C927.025 43.397 926.726 44.1156 926.726 45.0676C926.726 45.8703 926.96 46.505 927.426 46.9716C927.912 47.4196 928.761 47.7463 929.974 47.9516L932.046 48.3156C933.801 48.633 935.08 49.277 935.882 50.2476C936.685 51.1996 937.086 52.3663 937.086 53.7476C937.086 54.6436 936.928 55.465 936.61 56.2116C936.312 56.9583 935.854 57.593 935.238 58.1156C934.641 58.6383 933.894 59.049 932.998 59.3476C932.121 59.6276 931.113 59.7676 929.974 59.7676ZM960.808 59.4316H957.7V39.8876H965.008C966.874 39.8876 968.293 40.4103 969.264 41.4556C970.253 42.501 970.748 43.9383 970.748 45.7676C970.748 47.261 970.384 48.493 969.656 49.4636C968.928 50.4343 967.882 51.0316 966.52 51.2556L971.028 59.4316H967.556L963.412 51.5356H960.808V59.4316ZM964.56 49.0156C966.501 49.0156 967.472 48.129 967.472 46.3556V45.1516C967.472 43.3783 966.501 42.4916 964.56 42.4916H960.808V49.0156H964.56ZM974.558 59.4316V39.8876H986.794V42.5196H977.694V48.2036H986.458V50.8356H977.694V56.7996H986.794V59.4316H974.558ZM991.305 59.4316V39.8876H998.613C1000.48 39.8876 1001.9 40.4103 1002.87 41.4556C1003.86 42.501 1004.35 43.9383 1004.35 45.7676C1004.35 47.597 1003.86 49.0343 1002.87 50.0796C1001.9 51.125 1000.48 51.6476 998.613 51.6476H994.441V59.4316H991.305ZM994.441 49.0436H998.137C1000.08 49.0436 1001.05 48.1476 1001.05 46.3556V45.1516C1001.05 43.3783 1000.08 42.4916 998.137 42.4916H994.441V49.0436ZM1011.22 59.4316H1008.11V39.8876H1015.42C1017.28 39.8876 1018.7 40.4103 1019.67 41.4556C1020.66 42.501 1021.16 43.9383 1021.16 45.7676C1021.16 47.261 1020.79 48.493 1020.06 49.4636C1019.34 50.4343 1018.29 51.0316 1016.93 51.2556L1021.44 59.4316H1017.96L1013.82 51.5356H1011.22V59.4316ZM1014.97 49.0156C1016.91 49.0156 1017.88 48.129 1017.88 46.3556V45.1516C1017.88 43.3783 1016.91 42.4916 1014.97 42.4916H1011.22V49.0156H1014.97ZM1024.97 59.4316V39.8876H1037.2V42.5196H1028.1V48.2036H1036.87V50.8356H1028.1V56.7996H1037.2V59.4316H1024.97ZM1047.59 59.7676C1045.89 59.7676 1044.47 59.469 1043.31 58.8716C1042.15 58.2743 1041.2 57.481 1040.45 56.4916L1042.47 54.5596C1043.22 55.4556 1044.01 56.1183 1044.85 56.5476C1045.69 56.9583 1046.64 57.1636 1047.71 57.1636C1048.94 57.1636 1049.88 56.8836 1050.53 56.3236C1051.21 55.7636 1051.54 54.961 1051.54 53.9156C1051.54 53.0756 1051.3 52.4316 1050.81 51.9836C1050.33 51.517 1049.5 51.181 1048.32 50.9756L1046.19 50.6396C1045.26 50.4903 1044.48 50.2476 1043.84 49.9116C1043.21 49.557 1042.69 49.1463 1042.3 48.6796C1041.91 48.1943 1041.62 47.6623 1041.43 47.0836C1041.27 46.4863 1041.18 45.861 1041.18 45.2076C1041.18 43.3596 1041.78 41.9596 1042.97 41.0076C1044.17 40.037 1045.81 39.5516 1047.9 39.5516C1049.45 39.5516 1050.77 39.8036 1051.85 40.3076C1052.95 40.793 1053.84 41.4836 1054.51 42.3796L1052.55 44.3396C1052.01 43.6863 1051.36 43.1636 1050.62 42.7716C1049.89 42.361 1048.98 42.1556 1047.9 42.1556C1046.74 42.1556 1045.86 42.4076 1045.24 42.9116C1044.64 43.397 1044.35 44.1156 1044.35 45.0676C1044.35 45.8703 1044.58 46.505 1045.05 46.9716C1045.53 47.4196 1046.38 47.7463 1047.59 47.9516L1049.67 48.3156C1051.42 48.633 1052.7 49.277 1053.5 50.2476C1054.3 51.1996 1054.71 52.3663 1054.71 53.7476C1054.71 54.6436 1054.55 55.465 1054.23 56.2116C1053.93 56.9583 1053.47 57.593 1052.86 58.1156C1052.26 58.6383 1051.51 59.049 1050.62 59.3476C1049.74 59.6276 1048.73 59.7676 1047.59 59.7676ZM1058.57 59.4316V39.8876H1070.81V42.5196H1061.71V48.2036H1070.47V50.8356H1061.71V56.7996H1070.81V59.4316H1058.57ZM1077.98 44.3956H1077.73V59.4316H1074.98V39.8876H1079.01L1084.75 54.9236H1085.01V39.8876H1087.75V59.4316H1083.72L1077.98 44.3956ZM1099.74 42.5196V59.4316H1096.6V42.5196H1090.47V39.8876H1105.87V42.5196H1099.74ZM1119.51 59.4316L1118.02 54.2236H1111.81L1110.32 59.4316H1107.13L1112.84 39.8876H1117.13L1122.84 59.4316H1119.51ZM1115.03 43.0516H1114.8L1112.4 51.6196H1117.44L1115.03 43.0516ZM1128.84 59.4316H1125.73V39.8876H1133.04C1134.9 39.8876 1136.32 40.4103 1137.29 41.4556C1138.28 42.501 1138.78 43.9383 1138.78 45.7676C1138.78 47.261 1138.41 48.493 1137.68 49.4636C1136.96 50.4343 1135.91 51.0316 1134.55 51.2556L1139.06 59.4316H1135.58L1131.44 51.5356H1128.84V59.4316ZM1132.59 49.0156C1134.53 49.0156 1135.5 48.129 1135.5 46.3556V45.1516C1135.5 43.3783 1134.53 42.4916 1132.59 42.4916H1128.84V49.0156H1132.59ZM1159.33 59.4316V39.8876H1166.64C1168.51 39.8876 1169.93 40.4103 1170.9 41.4556C1171.89 42.501 1172.38 43.9383 1172.38 45.7676C1172.38 47.597 1171.89 49.0343 1170.9 50.0796C1169.93 51.125 1168.51 51.6476 1166.64 51.6476H1162.47V59.4316H1159.33ZM1162.47 49.0436H1166.16C1168.11 49.0436 1169.08 48.1476 1169.08 46.3556V45.1516C1169.08 43.3783 1168.11 42.4916 1166.16 42.4916H1162.47V49.0436ZM1182.18 59.7676C1180.95 59.7676 1179.88 59.5436 1178.96 59.0956C1178.07 58.629 1177.32 57.9663 1176.72 57.1076C1176.14 56.249 1175.72 55.1943 1175.44 53.9436C1175.16 52.693 1175.02 51.265 1175.02 49.6596C1175.02 48.073 1175.16 46.6543 1175.44 45.4036C1175.72 44.1343 1176.14 43.0703 1176.72 42.2116C1177.32 41.353 1178.07 40.6996 1178.96 40.2516C1179.88 39.785 1180.95 39.5516 1182.18 39.5516C1183.42 39.5516 1184.48 39.785 1185.38 40.2516C1186.29 40.6996 1187.04 41.353 1187.62 42.2116C1188.21 43.0703 1188.65 44.1343 1188.93 45.4036C1189.21 46.6543 1189.35 48.073 1189.35 49.6596C1189.35 51.265 1189.21 52.693 1188.93 53.9436C1188.65 55.1943 1188.21 56.249 1187.62 57.1076C1187.04 57.9663 1186.29 58.629 1185.38 59.0956C1184.48 59.5436 1183.42 59.7676 1182.18 59.7676ZM1182.18 57.1636C1183.58 57.1636 1184.57 56.641 1185.15 55.5956C1185.73 54.5316 1186.02 53.0943 1186.02 51.2836V48.0076C1186.02 46.2156 1185.73 44.797 1185.15 43.7516C1184.57 42.6876 1183.58 42.1556 1182.18 42.1556C1180.78 42.1556 1179.79 42.6876 1179.22 43.7516C1178.64 44.797 1178.35 46.2156 1178.35 48.0076V51.3116C1178.35 53.1036 1178.64 54.5316 1179.22 55.5956C1179.79 56.641 1180.78 57.1636 1182.18 57.1636ZM1196.05 59.4316H1192.94V39.8876H1200.25C1202.11 39.8876 1203.53 40.4103 1204.5 41.4556C1205.49 42.501 1205.99 43.9383 1205.99 45.7676C1205.99 47.261 1205.62 48.493 1204.89 49.4636C1204.17 50.4343 1203.12 51.0316 1201.76 51.2556L1206.27 59.4316H1202.79L1198.65 51.5356H1196.05V59.4316ZM1199.8 49.0156C1201.74 49.0156 1202.71 48.129 1202.71 46.3556V45.1516C1202.71 43.3783 1201.74 42.4916 1199.8 42.4916H1196.05V49.0156H1199.8ZM1217.36 42.5196V59.4316H1214.22V42.5196H1208.09V39.8876H1223.49V42.5196H1217.36ZM1229.26 39.8876V51.8996C1229.26 52.7023 1229.28 53.4303 1229.32 54.0836C1229.37 54.737 1229.51 55.297 1229.74 55.7636C1229.96 56.2116 1230.3 56.557 1230.74 56.7996C1231.19 57.0423 1231.81 57.1636 1232.59 57.1636C1233.38 57.1636 1233.99 57.0423 1234.44 56.7996C1234.89 56.557 1235.22 56.2116 1235.45 55.7636C1235.67 55.297 1235.8 54.737 1235.84 54.0836C1235.9 53.4303 1235.92 52.7023 1235.92 51.8996V39.8876H1239.06V51.3396C1239.06 52.7396 1238.98 53.9716 1238.81 55.0356C1238.66 56.081 1238.35 56.9583 1237.88 57.6676C1237.42 58.3583 1236.75 58.881 1235.9 59.2356C1235.06 59.5903 1233.95 59.7676 1232.59 59.7676C1231.23 59.7676 1230.12 59.5903 1229.26 59.2356C1228.42 58.881 1227.77 58.3583 1227.3 57.6676C1226.83 56.9583 1226.52 56.081 1226.35 55.0356C1226.2 53.9716 1226.12 52.7396 1226.12 51.3396V39.8876H1229.26ZM1253.03 56.7436H1252.84C1252.67 57.1356 1252.46 57.5183 1252.22 57.8916C1252 58.2463 1251.71 58.5636 1251.35 58.8436C1251.02 59.1236 1250.61 59.3476 1250.12 59.5156C1249.64 59.6836 1249.08 59.7676 1248.44 59.7676C1246.41 59.7676 1244.88 58.8996 1243.85 57.1636C1242.82 55.4276 1242.31 52.973 1242.31 49.7996C1242.31 46.477 1242.9 43.9383 1244.07 42.1836C1245.25 40.429 1247.05 39.5516 1249.48 39.5516C1250.43 39.5516 1251.26 39.6823 1251.97 39.9436C1252.7 40.205 1253.31 40.5596 1253.82 41.0076C1254.32 41.437 1254.74 41.9503 1255.08 42.5476C1255.41 43.1263 1255.68 43.7423 1255.89 44.3956L1253.06 45.3476C1252.91 44.9183 1252.74 44.517 1252.56 44.1436C1252.37 43.7516 1252.14 43.4063 1251.86 43.1076C1251.6 42.809 1251.27 42.5756 1250.88 42.4076C1250.5 42.2396 1250.05 42.1556 1249.51 42.1556C1248.14 42.1556 1247.15 42.6876 1246.54 43.7516C1245.94 44.797 1245.64 46.2156 1245.64 48.0076V51.1156C1245.64 52.0116 1245.71 52.833 1245.84 53.5796C1245.97 54.3263 1246.18 54.9703 1246.48 55.5116C1246.8 56.0343 1247.2 56.445 1247.69 56.7436C1248.19 57.0423 1248.8 57.1916 1249.51 57.1916C1250.64 57.1916 1251.51 56.8556 1252.11 56.1836C1252.73 55.493 1253.03 54.6156 1253.03 53.5516V51.7876H1249.25V49.4356H1255.89V59.4316H1253.03V56.7436ZM1270.73 59.4316L1269.25 54.2236H1263.03L1261.55 59.4316H1258.36L1264.07 39.8876H1268.35L1274.06 59.4316H1270.73ZM1266.25 43.0516H1266.03L1263.62 51.6196H1268.66L1266.25 43.0516ZM1277.62 59.4316V39.8876H1280.76V56.7996H1289.66V59.4316H1277.62ZM296.652 77.3956H296.4V92.4316H293.656V72.8876H297.688L303.428 87.9236H303.68V72.8876H306.424V92.4316H302.392L296.652 77.3956ZM316.842 92.7676C315.61 92.7676 314.537 92.5436 313.622 92.0956C312.726 91.629 311.98 90.9663 311.382 90.1076C310.804 89.249 310.374 88.1943 310.094 86.9436C309.814 85.693 309.674 84.265 309.674 82.6596C309.674 81.073 309.814 79.6543 310.094 78.4036C310.374 77.1343 310.804 76.0703 311.382 75.2116C311.98 74.353 312.726 73.6996 313.622 73.2516C314.537 72.785 315.61 72.5516 316.842 72.5516C318.074 72.5516 319.138 72.785 320.034 73.2516C320.949 73.6996 321.696 74.353 322.274 75.2116C322.872 76.0703 323.31 77.1343 323.59 78.4036C323.87 79.6543 324.01 81.073 324.01 82.6596C324.01 84.265 323.87 85.693 323.59 86.9436C323.31 88.1943 322.872 89.249 322.274 90.1076C321.696 90.9663 320.949 91.629 320.034 92.0956C319.138 92.5436 318.074 92.7676 316.842 92.7676ZM316.842 90.1636C318.242 90.1636 319.232 89.641 319.81 88.5956C320.389 87.5316 320.678 86.0943 320.678 84.2836V81.0076C320.678 79.2156 320.389 77.797 319.81 76.7516C319.232 75.6876 318.242 75.1556 316.842 75.1556C315.442 75.1556 314.453 75.6876 313.874 76.7516C313.296 77.797 313.006 79.2156 313.006 81.0076V84.3116C313.006 86.1036 313.296 87.5316 313.874 88.5956C314.453 89.641 315.442 90.1636 316.842 90.1636ZM354.508 83.0796L354.592 77.1996H354.368L350.448 87.2516L346.528 77.1996H346.304L346.388 83.0796V92.4316H343.616V72.8876H347.452L350.448 80.6436H350.644L353.668 72.8876H357.28V92.4316H354.508V83.0796ZM371.787 92.4316L370.303 87.2236H364.087L362.603 92.4316H359.411L365.123 72.8876H369.407L375.119 92.4316H371.787ZM367.307 76.0516H367.083L364.675 84.6196H369.715L367.307 76.0516ZM377.893 92.4316V90.0516H382.485V75.2676H377.893V72.8876H390.213V75.2676H385.621V90.0516H390.213V92.4316H377.893ZM400.856 92.7676C399.624 92.7676 398.551 92.5436 397.636 92.0956C396.74 91.629 395.993 90.9663 395.396 90.1076C394.817 89.249 394.388 88.1943 394.108 86.9436C393.828 85.693 393.688 84.265 393.688 82.6596C393.688 81.073 393.828 79.6543 394.108 78.4036C394.388 77.1343 394.817 76.0703 395.396 75.2116C395.993 74.353 396.74 73.6996 397.636 73.2516C398.551 72.785 399.624 72.5516 400.856 72.5516C402.088 72.5516 403.152 72.785 404.048 73.2516C404.963 73.6996 405.709 74.353 406.288 75.2116C406.885 76.0703 407.324 77.1343 407.604 78.4036C407.884 79.6543 408.024 81.073 408.024 82.6596C408.024 84.265 407.884 85.693 407.604 86.9436C407.324 88.1943 406.885 89.249 406.288 90.1076C405.709 90.9663 404.963 91.629 404.048 92.0956C403.152 92.5436 402.088 92.7676 400.856 92.7676ZM400.856 90.1636C402.256 90.1636 403.245 89.641 403.824 88.5956C404.403 87.5316 404.692 86.0943 404.692 84.2836V81.0076C404.692 79.2156 404.403 77.797 403.824 76.7516C403.245 75.6876 402.256 75.1556 400.856 75.1556C399.456 75.1556 398.467 75.6876 397.888 76.7516C397.309 77.797 397.02 79.2156 397.02 81.0076V84.3116C397.02 86.1036 397.309 87.5316 397.888 88.5956C398.467 89.641 399.456 90.1636 400.856 90.1636ZM414.719 92.4316H411.611V72.8876H418.919C420.785 72.8876 422.204 73.4103 423.175 74.4556C424.164 75.501 424.659 76.9383 424.659 78.7676C424.659 80.261 424.295 81.493 423.567 82.4636C422.839 83.4343 421.793 84.0316 420.431 84.2556L424.939 92.4316H421.467L417.323 84.5356H414.719V92.4316ZM418.471 82.0156C420.412 82.0156 421.383 81.129 421.383 79.3556V78.1516C421.383 76.3783 420.412 75.4916 418.471 75.4916H414.719V82.0156H418.471ZM445.272 92.4316V72.8876H457.844V75.5196H448.408V81.2036H456.976V83.8356H448.408V92.4316H445.272ZM462.075 92.4316V72.8876H474.311V75.5196H465.211V81.2036H473.975V83.8356H465.211V89.7996H474.311V92.4316H462.075ZM484.702 92.7676C483.003 92.7676 481.575 92.469 480.418 91.8716C479.26 91.2743 478.308 90.481 477.562 89.4916L479.578 87.5596C480.324 88.4556 481.118 89.1183 481.958 89.5476C482.798 89.9583 483.75 90.1636 484.814 90.1636C486.046 90.1636 486.988 89.8836 487.642 89.3236C488.314 88.7636 488.65 87.961 488.65 86.9156C488.65 86.0756 488.407 85.4316 487.922 84.9836C487.436 84.517 486.606 84.181 485.43 83.9756L483.302 83.6396C482.368 83.4903 481.584 83.2476 480.95 82.9116C480.315 82.557 479.802 82.1463 479.41 81.6796C479.018 81.1943 478.728 80.6623 478.542 80.0836C478.374 79.4863 478.29 78.861 478.29 78.2076C478.29 76.3596 478.887 74.9596 480.082 74.0076C481.276 73.037 482.919 72.5516 485.01 72.5516C486.559 72.5516 487.875 72.8036 488.958 73.3076C490.059 73.793 490.946 74.4836 491.618 75.3796L489.658 77.3396C489.116 76.6863 488.472 76.1636 487.726 75.7716C486.998 75.361 486.092 75.1556 485.01 75.1556C483.852 75.1556 482.966 75.4076 482.35 75.9116C481.752 76.397 481.454 77.1156 481.454 78.0676C481.454 78.8703 481.687 79.505 482.154 79.9716C482.639 80.4196 483.488 80.7463 484.702 80.9516L486.774 81.3156C488.528 81.633 489.807 82.277 490.61 83.2476C491.412 84.1996 491.814 85.3663 491.814 86.7476C491.814 87.6436 491.655 88.465 491.338 89.2116C491.039 89.9583 490.582 90.593 489.966 91.1156C489.368 91.6383 488.622 92.049 487.726 92.3476C486.848 92.6276 485.84 92.7676 484.702 92.7676ZM503.24 75.5196V92.4316H500.104V75.5196H493.972V72.8876H509.372V75.5196H503.24ZM512.315 92.4316V90.0516H516.907V75.2676H512.315V72.8876H524.635V75.2676H520.043V90.0516H524.635V92.4316H512.315ZM533.094 92.4316L527.578 72.8876H530.966L533.542 82.7436L535.25 89.3796H535.418L537.126 82.7436L539.73 72.8876H542.978L537.462 92.4316H533.094ZM556.617 92.4316L555.133 87.2236H548.917L547.433 92.4316H544.241L549.953 72.8876H554.237L559.949 92.4316H556.617ZM552.137 76.0516H551.913L549.505 84.6196H554.545L552.137 76.0516ZM563.507 92.4316V72.8876H566.643V89.7996H575.547V92.4316H563.507ZM596.385 72.8876H602.209C604.71 72.8876 606.558 73.7183 607.753 75.3796C608.966 77.041 609.573 79.4676 609.573 82.6596C609.573 85.8516 608.966 88.2783 607.753 89.9396C606.558 91.601 604.71 92.4316 602.209 92.4316H596.385V72.8876ZM602.013 89.8556C603.45 89.8556 604.514 89.3796 605.205 88.4276C605.914 87.457 606.269 86.0756 606.269 84.2836V81.0356C606.269 79.2436 605.914 77.8716 605.205 76.9196C604.514 75.949 603.45 75.4636 602.013 75.4636H599.493V89.8556H602.013ZM613.3 92.4316V72.8876H625.536V75.5196H616.436V81.2036H625.2V83.8356H616.436V89.7996H625.536V92.4316H613.3ZM653.457 92.7676C650.974 92.7676 649.126 91.8903 647.913 90.1356C646.718 88.381 646.121 85.889 646.121 82.6596C646.121 79.4303 646.718 76.9383 647.913 75.1836C649.126 73.429 650.974 72.5516 653.457 72.5516C654.409 72.5516 655.23 72.6823 655.921 72.9436C656.63 73.1863 657.237 73.5316 657.741 73.9796C658.245 74.409 658.665 74.9223 659.001 75.5196C659.356 76.0983 659.645 76.7236 659.869 77.3956L657.041 78.3476C656.892 77.8996 656.724 77.4796 656.537 77.0876C656.35 76.6956 656.117 76.3596 655.837 76.0796C655.557 75.7996 655.221 75.5756 654.829 75.4076C654.456 75.2396 653.989 75.1556 653.429 75.1556C652.048 75.1556 651.04 75.6876 650.405 76.7516C649.77 77.797 649.453 79.2156 649.453 81.0076V84.3116C649.453 86.1036 649.77 87.5316 650.405 88.5956C651.04 89.641 652.048 90.1636 653.429 90.1636C653.989 90.1636 654.456 90.0796 654.829 89.9116C655.221 89.7436 655.557 89.5196 655.837 89.2396C656.117 88.9596 656.35 88.6236 656.537 88.2316C656.724 87.8396 656.892 87.4196 657.041 86.9716L659.869 87.9236C659.645 88.5956 659.356 89.2303 659.001 89.8276C658.665 90.4063 658.245 90.9196 657.741 91.3676C657.237 91.797 656.63 92.1423 655.921 92.4036C655.23 92.6463 654.409 92.7676 653.457 92.7676ZM666.76 92.4316H663.652V72.8876H670.96C672.826 72.8876 674.245 73.4103 675.216 74.4556C676.205 75.501 676.7 76.9383 676.7 78.7676C676.7 80.261 676.336 81.493 675.608 82.4636C674.88 83.4343 673.834 84.0316 672.472 84.2556L676.98 92.4316H673.508L669.364 84.5356H666.76V92.4316ZM670.512 82.0156C672.453 82.0156 673.424 81.129 673.424 79.3556V78.1516C673.424 76.3783 672.453 75.4916 670.512 75.4916H666.76V82.0156H670.512ZM680.343 92.4316V90.0516H684.935V75.2676H680.343V72.8876H692.663V75.2676H688.071V90.0516H692.663V92.4316H680.343ZM707.841 92.4316L706.357 87.2236H700.141L698.657 92.4316H695.465L701.177 72.8876H705.461L711.173 92.4316H707.841ZM703.361 76.0516H703.137L700.729 84.6196H705.769L703.361 76.0516ZM721.676 75.5196V92.4316H718.54V75.5196H712.408V72.8876H727.808V75.5196H721.676ZM730.751 92.4316V90.0516H735.343V75.2676H730.751V72.8876H743.071V75.2676H738.479V90.0516H743.071V92.4316H730.751ZM751.529 92.4316L746.013 72.8876H749.401L751.977 82.7436L753.685 89.3796H753.853L755.561 82.7436L758.165 72.8876H761.413L755.897 92.4316H751.529ZM764.356 92.4316V90.0516H768.948V75.2676H764.356V72.8876H776.676V75.2676H772.084V90.0516H776.676V92.4316H764.356ZM781.215 72.8876H787.039C789.54 72.8876 791.388 73.7183 792.583 75.3796C793.796 77.041 794.403 79.4676 794.403 82.6596C794.403 85.8516 793.796 88.2783 792.583 89.9396C791.388 91.601 789.54 92.4316 787.039 92.4316H781.215V72.8876ZM786.843 89.8556C788.28 89.8556 789.344 89.3796 790.035 88.4276C790.744 87.457 791.099 86.0756 791.099 84.2836V81.0356C791.099 79.2436 790.744 77.8716 790.035 76.9196C789.344 75.949 788.28 75.4636 786.843 75.4636H784.323V89.8556H786.843ZM808.658 92.4316L807.174 87.2236H800.958L799.474 92.4316H796.282L801.994 72.8876H806.278L811.99 92.4316H808.658ZM804.178 76.0516H803.954L801.546 84.6196H806.586L804.178 76.0516ZM814.82 72.8876H820.644C823.146 72.8876 824.994 73.7183 826.188 75.3796C827.402 77.041 828.008 79.4676 828.008 82.6596C828.008 85.8516 827.402 88.2783 826.188 89.9396C824.994 91.601 823.146 92.4316 820.644 92.4316H814.82V72.8876ZM820.448 89.8556C821.886 89.8556 822.95 89.3796 823.64 88.4276C824.35 87.457 824.704 86.0756 824.704 84.2836V81.0356C824.704 79.2436 824.35 77.8716 823.64 76.9196C822.95 75.949 821.886 75.4636 820.448 75.4636H817.928V89.8556H820.448ZM831.735 92.4316V72.8876H843.971V75.5196H834.871V81.2036H843.635V83.8356H834.871V89.7996H843.971V92.4316H831.735ZM865.229 72.8876H871.053C873.554 72.8876 875.402 73.7183 876.597 75.3796C877.81 77.041 878.417 79.4676 878.417 82.6596C878.417 85.8516 877.81 88.2783 876.597 89.9396C875.402 91.601 873.554 92.4316 871.053 92.4316H865.229V72.8876ZM870.857 89.8556C872.294 89.8556 873.358 89.3796 874.049 88.4276C874.758 87.457 875.113 86.0756 875.113 84.2836V81.0356C875.113 79.2436 874.758 77.8716 874.049 76.9196C873.358 75.949 872.294 75.4636 870.857 75.4636H868.337V89.8556H870.857ZM888.135 92.7676C886.903 92.7676 885.83 92.5436 884.915 92.0956C884.019 91.629 883.273 90.9663 882.675 90.1076C882.097 89.249 881.667 88.1943 881.387 86.9436C881.107 85.693 880.967 84.265 880.967 82.6596C880.967 81.073 881.107 79.6543 881.387 78.4036C881.667 77.1343 882.097 76.0703 882.675 75.2116C883.273 74.353 884.019 73.6996 884.915 73.2516C885.83 72.785 886.903 72.5516 888.135 72.5516C889.367 72.5516 890.431 72.785 891.327 73.2516C892.242 73.6996 892.989 74.353 893.567 75.2116C894.165 76.0703 894.603 77.1343 894.883 78.4036C895.163 79.6543 895.303 81.073 895.303 82.6596C895.303 84.265 895.163 85.693 894.883 86.9436C894.603 88.1943 894.165 89.249 893.567 90.1076C892.989 90.9663 892.242 91.629 891.327 92.0956C890.431 92.5436 889.367 92.7676 888.135 92.7676ZM888.135 90.1636C889.535 90.1636 890.525 89.641 891.103 88.5956C891.682 87.5316 891.971 86.0943 891.971 84.2836V81.0076C891.971 79.2156 891.682 77.797 891.103 76.7516C890.525 75.6876 889.535 75.1556 888.135 75.1556C886.735 75.1556 885.746 75.6876 885.167 76.7516C884.589 77.797 884.299 79.2156 884.299 81.0076V84.3116C884.299 86.1036 884.589 87.5316 885.167 88.5956C885.746 89.641 886.735 90.1636 888.135 90.1636ZM925.801 83.0796L925.885 77.1996H925.661L921.741 87.2516L917.821 77.1996H917.597L917.681 83.0796V92.4316H914.909V72.8876H918.745L921.741 80.6436H921.937L924.961 72.8876H928.573V92.4316H925.801V83.0796ZM935.212 72.8876V84.8996C935.212 85.7023 935.23 86.4303 935.268 87.0836C935.324 87.737 935.464 88.297 935.688 88.7636C935.912 89.2116 936.248 89.557 936.696 89.7996C937.144 90.0423 937.76 90.1636 938.544 90.1636C939.328 90.1636 939.944 90.0423 940.392 89.7996C940.84 89.557 941.176 89.2116 941.4 88.7636C941.624 88.297 941.754 87.737 941.792 87.0836C941.848 86.4303 941.876 85.7023 941.876 84.8996V72.8876H945.012V84.3396C945.012 85.7396 944.928 86.9716 944.76 88.0356C944.61 89.081 944.302 89.9583 943.836 90.6676C943.369 91.3583 942.706 91.881 941.848 92.2356C941.008 92.5903 939.906 92.7676 938.544 92.7676C937.181 92.7676 936.07 92.5903 935.212 92.2356C934.372 91.881 933.718 91.3583 933.252 90.6676C932.785 89.9583 932.468 89.081 932.3 88.0356C932.15 86.9716 932.076 85.7396 932.076 84.3396V72.8876H935.212ZM951.958 77.3956H951.706V92.4316H948.962V72.8876H952.994L958.734 87.9236H958.986V72.8876H961.73V92.4316H957.698L951.958 77.3956ZM966.045 72.8876H971.869C974.37 72.8876 976.218 73.7183 977.413 75.3796C978.626 77.041 979.233 79.4676 979.233 82.6596C979.233 85.8516 978.626 88.2783 977.413 89.9396C976.218 91.601 974.37 92.4316 971.869 92.4316H966.045V72.8876ZM971.673 89.8556C973.11 89.8556 974.174 89.3796 974.865 88.4276C975.574 87.457 975.929 86.0756 975.929 84.2836V81.0356C975.929 79.2436 975.574 77.8716 974.865 76.9196C974.174 75.949 973.11 75.4636 971.673 75.4636H969.153V89.8556H971.673ZM988.952 92.7676C987.72 92.7676 986.646 92.5436 985.732 92.0956C984.836 91.629 984.089 90.9663 983.492 90.1076C982.913 89.249 982.484 88.1943 982.204 86.9436C981.924 85.693 981.784 84.265 981.784 82.6596C981.784 81.073 981.924 79.6543 982.204 78.4036C982.484 77.1343 982.913 76.0703 983.492 75.2116C984.089 74.353 984.836 73.6996 985.732 73.2516C986.646 72.785 987.72 72.5516 988.952 72.5516C990.184 72.5516 991.248 72.785 992.144 73.2516C993.058 73.6996 993.805 74.353 994.384 75.2116C994.981 76.0703 995.42 77.1343 995.7 78.4036C995.98 79.6543 996.12 81.073 996.12 82.6596C996.12 84.265 995.98 85.693 995.7 86.9436C995.42 88.1943 994.981 89.249 994.384 90.1076C993.805 90.9663 993.058 91.629 992.144 92.0956C991.248 92.5436 990.184 92.7676 988.952 92.7676ZM988.952 90.1636C990.352 90.1636 991.341 89.641 991.92 88.5956C992.498 87.5316 992.788 86.0943 992.788 84.2836V81.0076C992.788 79.2156 992.498 77.797 991.92 76.7516C991.341 75.6876 990.352 75.1556 988.952 75.1556C987.552 75.1556 986.562 75.6876 985.984 76.7516C985.405 77.797 985.116 79.2156 985.116 81.0076V84.3116C985.116 86.1036 985.405 87.5316 985.984 88.5956C986.562 89.641 987.552 90.1636 988.952 90.1636ZM1005.22 85.7956L1004.07 78.5716V72.8876H1007.43V78.5716L1006.29 85.7956H1005.22ZM1005.75 92.7116C1004.9 92.7116 1004.29 92.5343 1003.93 92.1796C1003.58 91.825 1003.4 91.377 1003.4 90.8356V90.1636C1003.4 89.6223 1003.58 89.1743 1003.93 88.8196C1004.29 88.465 1004.9 88.2876 1005.75 88.2876C1006.61 88.2876 1007.22 88.465 1007.57 88.8196C1007.93 89.1743 1008.11 89.6223 1008.11 90.1636V90.8356C1008.11 91.377 1007.93 91.825 1007.57 92.1796C1007.22 92.5343 1006.61 92.7116 1005.75 92.7116Z" fill="black"/>
</svg>
