<svg width="989" height="20" viewBox="0 0 989 20" fill="none" xmlns="http://www.w3.org/2000/svg">
    <g filter="url(#filter0_i_0_1)">
        <path fill-rule="evenodd" clip-rule="evenodd" d="M0 9.99254C0 4.47378 4.57798 -0.000268936 10.224 -0.000268936C15.8702 -0.000268936 20.4471 4.47378 20.4471 9.99254C20.4471 15.5113 15.8702 19.9854 10.224 19.9854C4.57798 19.9854 0 15.5113 0 9.99254Z" fill="#2B302D"/>
    </g>
    <g filter="url(#filter1_i_0_1)">
        <path fill-rule="evenodd" clip-rule="evenodd" d="M967.565 9.99254C967.565 4.47378 972.143 -0.000268936 977.791 -0.000268936C983.436 -0.000268936 988.014 4.47378 988.014 9.99254C988.014 15.5113 983.436 19.9854 977.791 19.9854C972.143 19.9854 967.565 15.5113 967.565 9.99254Z" fill="#2B302D"/>
    </g>
    <g filter="url(#filter2_i_0_1)">
        <path fill-rule="evenodd" clip-rule="evenodd" d="M694.39 9.99254C694.39 4.47378 698.968 -0.000268936 704.613 -0.000268936C710.26 -0.000268936 714.838 4.47378 714.838 9.99254C714.838 15.5113 710.26 19.9854 704.613 19.9854C698.968 19.9854 694.39 15.5113 694.39 9.99254Z" fill="#2B302D"/>
    </g>
    <g filter="url(#filter3_i_0_1)">
        <path fill-rule="evenodd" clip-rule="evenodd" d="M282.991 9.99254C282.991 4.47378 287.568 -0.000268936 293.214 -0.000268936C298.86 -0.000268936 303.438 4.47378 303.438 9.99254C303.438 15.5113 298.86 19.9854 293.214 19.9854C287.568 19.9854 282.991 15.5113 282.991 9.99254Z" fill="#2B302D"/>
    </g>
    <g filter="url(#filter4_i_0_1)">
        <path fill-rule="evenodd" clip-rule="evenodd" d="M315.706 9.99318C315.706 4.47442 320.18 0.000368118 325.699 0.000368118H367.873C373.392 0.000368118 377.866 4.47442 377.866 9.99318C377.866 15.5123 373.392 19.9863 367.873 19.9863H325.699C320.18 19.9863 315.706 15.5123 315.706 9.99318Z" fill="#2B302D"/>
    </g>
    <g filter="url(#filter5_i_0_1)">
        <path fill-rule="evenodd" clip-rule="evenodd" d="M615.873 9.99318C615.873 4.47442 620.347 0.000368118 625.866 0.000368118H668.039C673.558 0.000368118 678.032 4.47442 678.032 9.99318C678.032 15.5123 673.558 19.9863 668.039 19.9863H625.866C620.347 19.9863 615.873 15.5123 615.873 9.99318Z" fill="#2B302D"/>
    </g>
    <defs>
        <filter id="filter0_i_0_1" x="0" y="0" width="21.4473" height="20.9854" filterUnits="userSpaceOnUse" color-interpolation-filters="sRGB">
            <feFlood flood-opacity="0" result="BackgroundImageFix"/>
            <feBlend mode="normal" in="SourceGraphic" in2="BackgroundImageFix" result="shape"/>
            <feColorMatrix in="SourceAlpha" type="matrix" values="0 0 0 0 0 0 0 0 0 0 0 0 0 0 0 0 0 0 127 0" result="hardAlpha"/>
            <feOffset dx="1" dy="1"/>
            <feGaussianBlur stdDeviation="0.5"/>
            <feComposite in2="hardAlpha" operator="arithmetic" k2="-1" k3="1"/>
            <feColorMatrix type="matrix" values="0 0 0 0 0 0 0 0 0 0 0 0 0 0 0 0 0 0 0.79 0"/>
            <feBlend mode="multiply" in2="shape" result="effect1_innerShadow_0_1"/>
        </filter>
        <filter id="filter1_i_0_1" x="967.565" y="0" width="21.4482" height="20.9854" filterUnits="userSpaceOnUse" color-interpolation-filters="sRGB">
            <feFlood flood-opacity="0" result="BackgroundImageFix"/>
            <feBlend mode="normal" in="SourceGraphic" in2="BackgroundImageFix" result="shape"/>
            <feColorMatrix in="SourceAlpha" type="matrix" values="0 0 0 0 0 0 0 0 0 0 0 0 0 0 0 0 0 0 127 0" result="hardAlpha"/>
            <feOffset dx="1" dy="1"/>
            <feGaussianBlur stdDeviation="0.5"/>
            <feComposite in2="hardAlpha" operator="arithmetic" k2="-1" k3="1"/>
            <feColorMatrix type="matrix" values="0 0 0 0 0 0 0 0 0 0 0 0 0 0 0 0 0 0 0.79 0"/>
            <feBlend mode="multiply" in2="shape" result="effect1_innerShadow_0_1"/>
        </filter>
        <filter id="filter2_i_0_1" x="694.39" y="0" width="21.4482" height="20.9854" filterUnits="userSpaceOnUse" color-interpolation-filters="sRGB">
            <feFlood flood-opacity="0" result="BackgroundImageFix"/>
            <feBlend mode="normal" in="SourceGraphic" in2="BackgroundImageFix" result="shape"/>
            <feColorMatrix in="SourceAlpha" type="matrix" values="0 0 0 0 0 0 0 0 0 0 0 0 0 0 0 0 0 0 127 0" result="hardAlpha"/>
            <feOffset dx="1" dy="1"/>
            <feGaussianBlur stdDeviation="0.5"/>
            <feComposite in2="hardAlpha" operator="arithmetic" k2="-1" k3="1"/>
            <feColorMatrix type="matrix" values="0 0 0 0 0 0 0 0 0 0 0 0 0 0 0 0 0 0 0.79 0"/>
            <feBlend mode="multiply" in2="shape" result="effect1_innerShadow_0_1"/>
        </filter>
        <filter id="filter3_i_0_1" x="282.991" y="0" width="21.4473" height="20.9854" filterUnits="userSpaceOnUse" color-interpolation-filters="sRGB">
            <feFlood flood-opacity="0" result="BackgroundImageFix"/>
            <feBlend mode="normal" in="SourceGraphic" in2="BackgroundImageFix" result="shape"/>
            <feColorMatrix in="SourceAlpha" type="matrix" values="0 0 0 0 0 0 0 0 0 0 0 0 0 0 0 0 0 0 127 0" result="hardAlpha"/>
            <feOffset dx="1" dy="1"/>
            <feGaussianBlur stdDeviation="0.5"/>
            <feComposite in2="hardAlpha" operator="arithmetic" k2="-1" k3="1"/>
            <feColorMatrix type="matrix" values="0 0 0 0 0 0 0 0 0 0 0 0 0 0 0 0 0 0 0.79 0"/>
            <feBlend mode="multiply" in2="shape" result="effect1_innerShadow_0_1"/>
        </filter>
        <filter id="filter4_i_0_1" x="315.706" y="0" width="63.1597" height="20.9863" filterUnits="userSpaceOnUse" color-interpolation-filters="sRGB">
            <feFlood flood-opacity="0" result="BackgroundImageFix"/>
            <feBlend mode="normal" in="SourceGraphic" in2="BackgroundImageFix" result="shape"/>
            <feColorMatrix in="SourceAlpha" type="matrix" values="0 0 0 0 0 0 0 0 0 0 0 0 0 0 0 0 0 0 127 0" result="hardAlpha"/>
            <feOffset dx="1" dy="1"/>
            <feGaussianBlur stdDeviation="0.5"/>
            <feComposite in2="hardAlpha" operator="arithmetic" k2="-1" k3="1"/>
            <feColorMatrix type="matrix" values="0 0 0 0 0 0 0 0 0 0 0 0 0 0 0 0 0 0 0.79 0"/>
            <feBlend mode="multiply" in2="shape" result="effect1_innerShadow_0_1"/>
        </filter>
        <filter id="filter5_i_0_1" x="615.873" y="0" width="63.1597" height="20.9863" filterUnits="userSpaceOnUse" color-interpolation-filters="sRGB">
            <feFlood flood-opacity="0" result="BackgroundImageFix"/>
            <feBlend mode="normal" in="SourceGraphic" in2="BackgroundImageFix" result="shape"/>
            <feColorMatrix in="SourceAlpha" type="matrix" values="0 0 0 0 0 0 0 0 0 0 0 0 0 0 0 0 0 0 127 0" result="hardAlpha"/>
            <feOffset dx="1" dy="1"/>
            <feGaussianBlur stdDeviation="0.5"/>
            <feComposite in2="hardAlpha" operator="arithmetic" k2="-1" k3="1"/>
            <feColorMatrix type="matrix" values="0 0 0 0 0 0 0 0 0 0 0 0 0 0 0 0 0 0 0.79 0"/>
            <feBlend mode="multiply" in2="shape" result="effect1_innerShadow_0_1"/>
        </filter>
    </defs>
</svg>
