<svg width="989" height="21" viewBox="0 0 989 21" fill="none" xmlns="http://www.w3.org/2000/svg">
    <path fill-rule="evenodd" clip-rule="evenodd" d="M0 10.2278C0 4.5794 4.57797 -4.95911e-05 10.2266 -4.95911e-05C15.8751 -4.95911e-05 20.4531 4.5794 20.4531 10.2278C20.4531 15.8755 15.8751 20.4546 10.2266 20.4546C4.57797 20.4546 0 15.8755 0 10.2278Z" fill="#FFFAFA"/>
    <path fill-rule="evenodd" clip-rule="evenodd" d="M967.902 10.2278C967.902 4.5794 972.481 -4.95911e-05 978.129 -4.95911e-05C983.778 -4.95911e-05 988.357 4.5794 988.357 10.2278C988.357 15.8755 983.778 20.4546 978.129 20.4546C972.481 20.4546 967.902 15.8755 967.902 10.2278Z" fill="#FFFAFA"/>
    <path fill-rule="evenodd" clip-rule="evenodd" d="M694.631 10.2278C694.631 4.5794 699.21 -4.95911e-05 704.857 -4.95911e-05C710.507 -4.95911e-05 715.086 4.5794 715.086 10.2278C715.086 15.8755 710.507 20.4546 704.857 20.4546C699.21 20.4546 694.631 15.8755 694.631 10.2278Z" fill="#FFFAFA"/>
    <path fill-rule="evenodd" clip-rule="evenodd" d="M283.088 10.2278C283.088 4.5794 287.668 -4.95911e-05 293.315 -4.95911e-05C298.963 -4.95911e-05 303.542 4.5794 303.542 10.2278C303.542 15.8755 298.963 20.4546 293.315 20.4546C287.668 20.4546 283.088 15.8755 283.088 10.2278Z" fill="#FFFAFA"/>
    <path fill-rule="evenodd" clip-rule="evenodd" d="M315.816 10.2275C315.816 4.57903 320.395 0.000329971 326.043 0.000329971H367.77C373.418 0.000329971 377.997 4.57903 377.997 10.2275C377.997 15.8759 373.418 20.4546 367.77 20.4546H326.043C320.395 20.4546 315.816 15.8759 315.816 10.2275Z" fill="#FFFAFA"/>
    <path fill-rule="evenodd" clip-rule="evenodd" d="M616.086 10.2275C616.086 4.57903 620.665 0.000329971 626.314 0.000329971H668.041C673.689 0.000329971 678.268 4.57903 678.268 10.2275C678.268 15.8759 673.689 20.4546 668.041 20.4546H626.314C620.665 20.4546 616.086 15.8759 616.086 10.2275Z" fill="#FFFAFA"/>
</svg>
