<svg width="1524" height="68" viewBox="0 0 1524 68" fill="none" xmlns="http://www.w3.org/2000/svg">
    <path d="M94.21 -56.1074C98.4077 -56.1095 103.684 -56.4911 107.484 -56.1113C108.529 -56.0069 109.53 -55.7801 110.57 -55.5186C111.593 -55.2615 112.685 -54.9621 113.816 -54.7529C114.189 -54.684 114.565 -54.6641 114.928 -54.7637C115.32 -54.8716 115.583 -55.0875 115.766 -55.2832C116.099 -55.6402 116.089 -55.7204 116.268 -55.8525C116.32 -55.8551 116.394 -55.8563 116.496 -55.8525C116.788 -55.8416 117.203 -55.7975 117.743 -55.7168C118.817 -55.5561 120.286 -55.2658 122.04 -54.8789C125.543 -54.1062 130.114 -52.9642 134.795 -51.7568C144.015 -49.3783 153.736 -46.7245 156.302 -46.2119L158.281 -45.5508C160.287 -42.8405 161.598 -39.5862 162.521 -36.2441C162.56 -36.1006 162.612 -35.8233 162.687 -35.4619C162.732 -35.2406 162.798 -34.9264 162.877 -34.6748C163.018 -32.5871 163.158 -31.1834 163.032 -29.8203C162.912 -28.5186 162.54 -27.2436 161.592 -25.5244C159.462 -23.427 157.105 -22.5162 154.516 -21.9561C153.185 -21.6683 151.819 -21.4771 150.373 -21.2588C148.941 -21.0427 147.446 -20.8019 145.933 -20.4141C142.284 -19.4789 138.369 -17.1634 135.033 -14.2783C131.722 -11.4141 128.886 -7.90502 127.428 -4.45801C126.49 -2.91338 124.955 0.263877 123.636 3.43848C122.964 5.05509 122.339 6.69237 121.871 8.1377C121.437 9.48012 121.113 10.7396 121.044 11.6758C119.359 16.868 118.716 23.7701 117.938 29.1934L117.778 30.2656C117.7 30.7778 117.498 32.156 117.313 33.499C117.145 34.7298 116.975 36.0413 116.953 36.5566C116.176 43.0862 115.427 50.0412 113.383 56.042L113.327 56.2021L111.896 59.4971C111.84 59.5844 111.795 59.6517 111.682 59.8301C111.622 59.9233 111.529 60.0695 111.454 60.2109C110.551 61.3386 109.61 62.481 108.543 63.376C107.526 64.2291 106.458 64.8048 105.281 64.9395L105.045 64.96C101.537 65.1814 97.7229 65.0778 94.1104 65.0723H94.1094L73.1943 65.0527H73.1934L3.05078 65.0625L-123.166 65.0586L-165.102 65.0615C-171.722 65.0619 -179.287 65.2479 -185.779 65.0664H-185.778C-188.744 64.9369 -190.553 63.844 -191.93 62.2227C-193.363 60.5339 -194.334 58.278 -195.542 55.6768C-197.254 50.6742 -197.794 45.5106 -198.509 40.1367C-199.588 32.0201 -200.41 23.3509 -202.192 15.0137C-203.979 6.65637 -206.746 -1.46932 -211.771 -8.56543C-215.64 -14.0302 -221.148 -18.5291 -227.769 -20.3467L-228.413 -20.5146C-230.886 -21.1216 -233.583 -21.3573 -235.923 -21.7646C-238.932 -22.2885 -242.14 -23.6153 -243.768 -25.9639C-245.425 -28.3559 -245.385 -31.8581 -244.829 -34.9805C-244.584 -36.3569 -243.942 -38.683 -243.064 -40.8613C-242.627 -41.9478 -242.141 -42.9726 -241.631 -43.8125C-241.128 -44.6408 -240.648 -45.2086 -240.232 -45.5088C-240.224 -45.512 -240.214 -45.5154 -240.203 -45.5195C-240.123 -45.5493 -240.004 -45.59 -239.844 -45.6416C-239.524 -45.7442 -239.074 -45.8786 -238.506 -46.042C-237.371 -46.3683 -235.793 -46.8011 -233.912 -47.3037C-230.152 -48.3085 -225.196 -49.5895 -220.183 -50.8574C-215.169 -52.1253 -210.102 -53.3794 -206.117 -54.3291C-204.124 -54.804 -202.406 -55.2017 -201.103 -55.4873C-199.761 -55.7812 -198.941 -55.9368 -198.682 -55.957C-198.666 -55.9579 -198.542 -55.9494 -198.159 -55.5713C-198.031 -55.4441 -197.795 -55.193 -197.607 -55.0312C-197.45 -54.8954 -197.029 -54.542 -196.454 -54.5791C-195.272 -54.6554 -194.159 -55.0401 -193.187 -55.3652C-192.171 -55.7047 -191.276 -55.9927 -190.338 -56.0449C-184.532 -56.3678 -178.638 -56.1186 -172.725 -56.1123H-172.724L-140.506 -56.1025H-140.505L-20.4492 -56.1055L64.9766 -56.1045L94.21 -56.1074Z" fill="#9562E5" stroke="black" stroke-width="2"/>
    <g clip-path="url(#clip0_0_1)">
        <path d="M74.983 23.9854C75.2526 23.9835 75.7318 24.0029 75.9814 23.9824C76.0157 24.2022 75.9831 24.7244 75.9963 24.9862C76.0977 25.0161 76.717 25.0014 76.8551 25.0007L76.9909 25.0064C77.0158 25.0917 77 25.833 77.0044 25.9873C77.3267 25.991 77.6523 25.9973 77.9743 25.9973C78.0228 26.0684 77.9951 26.8077 78.0075 26.9759L78.0099 26.9906C78.2069 27.0398 78.7721 26.9816 79.0022 27.0136C78.9889 27.3055 79.0028 27.6959 79.0044 27.9952C79.1233 27.9963 79.9226 27.9878 79.9955 28.0105C80.0137 28.1206 80.0024 28.7787 80.0078 28.9583C80.1657 28.9612 80.8545 28.9474 80.9607 28.9753C80.9702 29.0443 80.9711 29.892 80.9638 29.9616C81.2493 29.9764 81.7271 29.9494 81.9692 29.9761L81.9667 30.0534L81.9689 30.9658C82.2184 30.9705 82.468 30.9699 82.7174 30.9641C82.7884 30.9619 82.9245 30.9324 82.9647 30.9482C82.9816 31.1077 82.9792 31.8081 82.9687 31.9673C83.1216 31.9673 83.8937 31.9468 83.9646 32.0034C83.9872 32.4849 83.9601 33.0814 83.9597 33.5793L83.9592 36.9703L83.9599 40.6508C83.9616 41.3759 83.9813 42.2463 83.9536 42.9653H65V31.9698C65.3022 31.973 65.6999 31.9634 65.9943 31.9825C65.9877 31.8672 65.9806 31.0628 65.9974 30.9673C66.321 30.9611 66.6726 30.9715 66.9982 30.975C66.993 30.6395 66.9968 30.3117 66.9971 29.9768L67.0035 29.9594C67.2546 29.9883 67.7174 29.9667 67.9952 29.9778C67.9912 29.6307 67.9896 29.3105 68.0007 28.963C68.3202 28.9552 68.6801 28.9665 69.0026 28.9693C68.9952 28.6779 68.9952 28.2981 69.0058 28.0098C69.0907 27.9816 69.8679 28.0004 69.9952 28.0077C69.9984 27.7838 69.9764 27.2096 70.0054 27.0103C70.1362 26.9853 70.7972 27.0047 70.9629 27.0103C70.954 26.6774 70.9676 26.3399 70.9549 26.0076L70.9797 25.9878C71.3007 26.0018 71.6417 25.985 71.9728 25.9998C71.9746 25.67 71.9621 25.3355 71.97 25.0065L71.9951 24.9985C72.2966 24.9999 72.6373 24.9934 72.9354 25.0041L72.9479 25.0003C72.9956 24.9314 72.9273 24.1281 72.9754 23.987C73.2756 23.9853 73.6976 24.0034 73.9801 23.9839C74.1388 23.9966 74.8451 24.0084 74.983 23.9854ZM69.0227 37.979C69.0179 38.29 69.0268 38.6453 69.0161 38.9481C69.3597 38.9536 69.7033 38.9555 70.0468 38.9537C70.9357 38.9658 71.8423 38.957 72.7322 38.957L79.9836 38.9555C80.0054 38.6449 79.9738 38.2717 79.9926 37.9391C79.9911 37.6238 79.9918 37.3084 79.9945 36.993C79.9734 36.6561 79.9775 36.3411 79.9857 36.004C77.3796 36.036 74.7369 35.9745 72.125 36.0027C71.4699 36.028 70.6497 36.0055 69.9822 36.0044C69.6904 36.0042 69.3033 36.0167 69.0204 36.0029C69.0195 36.2437 69.0048 36.7589 69.0255 36.9771C69.0008 37.2838 69.0058 37.6687 69.0227 37.979Z" fill="#1B1A1B"/>
        <path d="M69.1826 37.9613C69.7358 37.9519 70.1834 37.996 70.7121 37.9966L76.2171 37.9977L77.9703 37.9963C78.2861 37.9949 78.7241 38.0019 79.0306 37.9695C78.9856 38.0122 78.987 38.0096 78.9842 38.0759C78.9725 38.3559 78.9871 38.6502 78.9937 38.9297C78.2531 38.9628 77.3134 38.9335 76.5518 38.9332L72.3617 38.9331C71.5985 38.9332 70.8031 38.9216 70.0434 38.9376C69.9637 38.8602 70.0563 38.1693 70.0008 38.0064C69.9017 37.9438 69.361 38.0016 69.1826 37.9613Z" fill="#1B1A1B"/>
        <path d="M69.9824 36.0037C70.6499 36.0047 71.4701 36.0273 72.1252 36.002V36.0238C71.8906 36.0314 70.193 36.0081 70.1333 36.0553C70.3377 36.1072 71.5689 36.074 71.8589 36.0739L76.827 36.0717L78.3269 36.0714C78.4307 36.0715 78.9344 36.0663 79.0169 36.0764C78.9958 36.2307 78.9775 36.743 79.0635 36.8623C79.0036 36.9213 76.912 36.8994 76.6583 36.8995L72.3868 36.9006C71.6083 36.9008 70.7821 36.8865 70.0093 36.908C69.9826 36.8027 70.0506 36.2295 70.0442 36.083C70.0441 36.0825 69.9886 36.0116 69.9824 36.0037ZM70.4712 36.8767L76.3793 36.8801L78.0722 36.8823C78.3563 36.8828 78.8432 36.898 79.1074 36.8565C78.9028 36.8179 78.7907 36.792 78.5789 36.7937C77.7945 36.8353 76.8928 36.8153 76.0975 36.8152L72.042 36.8145C71.7483 36.8144 70.2446 36.7919 70.0811 36.8463L70.4712 36.8767Z" fill="#1B1A1B"/>
        <path d="M78.5789 36.794C78.7907 36.7923 78.9028 36.8182 79.1074 36.8568C78.8432 36.8983 78.3563 36.8832 78.0722 36.8827L76.3793 36.8805L70.4712 36.877L70.0811 36.8466C70.2446 36.7923 71.7483 36.8148 72.042 36.8148L76.0975 36.8155C76.8928 36.8157 77.7945 36.8356 78.5789 36.794Z" fill="#1B1A1B"/>
        <path d="M72.1248 36.0027C74.7366 35.9745 77.3793 36.0361 79.9855 36.0041C79.9772 36.3412 79.9731 36.6561 79.9943 36.9931C79.9171 36.9501 79.6843 36.9659 79.5845 36.9648C79.024 36.957 78.4635 36.954 77.9029 36.9559L72.736 36.9559C71.8846 36.9561 70.9514 36.9775 70.108 36.9547C70.0499 36.9465 69.984 36.9462 69.9248 36.9443L70.0088 36.9088C70.7817 36.8873 71.6078 36.9016 72.3864 36.9013L76.6578 36.9003C76.9116 36.9001 79.0032 36.9221 79.063 36.8631C78.977 36.7438 78.9954 36.2314 79.0164 36.0772C79.0524 36.0653 79.0545 36.0628 79.0852 36.0398C78.9795 36 76.6463 36.0213 76.3687 36.0213L73.6521 36.02C73.1579 36.0198 72.6156 36.0092 72.1248 36.0246V36.0027Z" fill="#1B1A1B"/>
        <path d="M79.0302 37.969C79.1928 37.9562 79.9138 37.9783 79.9921 37.9385C79.9733 38.271 80.005 38.6442 79.9831 38.9549L72.7317 38.9564C71.8418 38.9564 70.9352 38.9652 70.0464 38.9531L70.043 38.9371C70.8027 38.921 71.5981 38.9326 72.3613 38.9325L76.5514 38.9326C77.3131 38.9329 78.2527 38.9622 78.9933 38.9292C78.9867 38.6496 78.9721 38.3553 78.9838 38.0753C78.9866 38.0091 78.9852 38.0116 79.0302 37.969Z" fill="#1B1A1B"/>
        <path d="M69.0222 37.9782C69.0535 37.9737 69.1557 37.9567 69.1822 37.9605C69.3606 38.0008 69.9013 37.943 70.0004 38.0057C70.0559 38.1685 69.9633 38.8594 70.043 38.9369L70.0464 38.9529C69.7028 38.9546 69.3592 38.9528 69.0156 38.9473C69.0263 38.6445 69.0174 38.2892 69.0222 37.9782Z" fill="#1B1A1B"/>
        <path d="M69.0205 36.0029C69.3034 36.0167 69.6905 36.0042 69.9823 36.0045C69.9886 36.0124 70.044 36.0833 70.0441 36.0838C70.0506 36.2302 69.9825 36.8035 70.0092 36.9088L69.9252 36.9444C69.9844 36.9462 70.0503 36.9465 70.1084 36.9547C69.9658 36.9737 69.1481 36.9999 69.0256 36.9772C69.005 36.7589 69.0197 36.2437 69.0205 36.0029Z" fill="#1B1A1B"/>
        <path d="M72.1248 36.0246C72.6156 36.0093 73.1579 36.0198 73.6521 36.02L76.3687 36.0213C76.6463 36.0213 78.9795 36 79.0852 36.0398C79.0545 36.0628 79.0524 36.0653 79.0164 36.0772C78.934 36.0671 78.4303 36.0723 78.3265 36.0722L76.8266 36.0725L71.8585 36.0747C71.5685 36.0748 70.3372 36.1079 70.1328 36.0561C70.1926 36.0089 71.8902 36.0322 72.1248 36.0246Z" fill="#1B1A1B"/>
        <path d="M73.9785 23H74.9903C74.9935 23.1554 75.0007 23.8624 74.9828 23.985C74.8449 24.008 74.1385 23.9962 73.9799 23.9835C73.9966 23.7003 73.9849 23.2903 73.9785 23Z" fill="#1B1A1B"/>
        <path d="M82.9648 30.9473C83.1148 30.988 83.7643 30.956 83.9951 30.9724C83.9571 31.1151 83.9478 31.8651 83.9647 32.0025C83.8938 31.9459 83.1217 31.9664 82.9688 31.9664C82.9793 31.8072 82.9817 31.1068 82.9648 30.9473Z" fill="#1B1A1B"/>
        <path d="M73.0141 23H73.9789C73.9854 23.2903 73.997 23.7003 73.9803 23.9835C73.6978 24.003 73.2758 23.9849 72.9755 23.9866L72.9658 23.9823C73.0086 23.9101 72.9357 23.2648 73.0141 23Z" fill="#1B1A1B"/>
        <path d="M80.9723 28.9727C81.3022 28.9764 81.632 28.9764 81.9619 28.9727C81.96 29.1262 81.9455 29.8718 81.9694 29.9757C81.7273 29.949 81.2496 29.976 80.964 29.9612C80.9713 29.8916 80.9705 29.0439 80.9609 28.9749L80.9723 28.9727Z" fill="#1B1A1B"/>
        <path d="M65 30.9848C65.2734 30.9737 65.7378 31.0055 65.9974 30.9668C65.9806 31.0623 65.9877 31.8667 65.9943 31.982C65.6999 31.9629 65.3022 31.9725 65 31.9693V30.9848Z" fill="#1B1A1B"/>
        <path d="M74.9909 23H75.9768C75.9984 23.301 75.9872 23.6641 75.9847 23.9706L75.9818 23.982C75.7322 24.0025 75.2529 23.9831 74.9834 23.985C75.0014 23.8624 74.9942 23.1554 74.9909 23Z" fill="#1B1A1B"/>
        <path d="M65.9998 29.9943C66.3296 29.9816 66.6616 29.9896 66.9968 29.9766C66.9965 30.3115 66.9927 30.6393 66.9979 30.9748C66.6723 30.9713 66.3207 30.9609 65.9971 30.9671C66.0101 30.6766 66.002 30.2866 65.9998 29.9943Z" fill="#1B1A1B"/>
        <path d="M67.0208 28.9852C67.2625 28.9747 67.7948 28.9954 68.0011 28.9629C67.99 29.3104 67.9916 29.6306 67.9956 29.9777C67.7178 29.9666 67.255 29.9883 67.0039 29.9593C67.0272 29.6244 67.0049 29.3171 67.0208 28.9852Z" fill="#1B1A1B"/>
        <path d="M77 25.0039C77.2107 25.0286 77.7738 25.0299 77.9887 25.011C77.9874 25.3293 77.98 25.681 77.9963 25.9971L77.9745 25.9969C77.6526 25.9969 77.3269 25.9906 77.0047 25.9869C77.0003 25.8326 77.0161 25.0912 76.9912 25.0059L77 25.0039Z" fill="#1B1A1B"/>
        <path d="M79.0018 27.0127C79.3275 27.03 79.6538 27.0317 79.9797 27.0178C79.9776 27.2394 79.9629 27.8232 80.0053 28.008L79.9951 28.0096C79.9222 27.9869 79.1229 27.9954 79.004 27.9943C79.0023 27.695 78.9885 27.3046 79.0018 27.0127Z" fill="#1B1A1B"/>
        <path d="M82.1524 29.9881C82.371 29.9848 82.7432 29.9877 82.9508 29.9619C82.9532 30.1692 82.9329 30.7814 82.9648 30.9477C82.9246 30.9319 82.7885 30.9614 82.7176 30.9636C82.4681 30.9695 82.2185 30.97 81.9691 30.9653L81.9668 30.0529L81.9818 30.0534C82.0386 30.055 82.2075 30.0452 82.2488 30.0061L82.1524 29.9881Z" fill="#1B1A1B"/>
        <path d="M71.0098 25.0172C71.3298 25.0248 71.6501 25.021 71.9699 25.0059C71.962 25.3349 71.9745 25.6693 71.9726 25.9991C71.6416 25.9843 71.3005 26.0012 70.9796 25.9872C70.9779 25.6787 71.0018 25.3319 71.0098 25.0172Z" fill="#1B1A1B"/>
        <path d="M69.9962 27.0059L70.0051 27.0101C69.9761 27.2094 69.9981 27.7835 69.9949 28.0075C69.8676 28.0002 69.0904 27.9813 69.0055 28.0095L68.9941 28.0091C69.0464 27.9322 69.021 27.1909 69.027 27.0258C69.2418 27.0362 69.7912 27.0325 69.9962 27.0059Z" fill="#1B1A1B"/>
        <path d="M68.9948 28.0088L69.0061 28.0092C68.9955 28.2975 68.9955 28.6773 69.0029 28.9688C68.6804 28.9659 68.3205 28.9547 68.001 28.9625C68.0164 28.6798 68.0074 28.3153 68.0084 28.0266C68.332 28.009 68.6697 28.0112 68.9948 28.0088Z" fill="#1B1A1B"/>
        <path d="M70.0261 26.0338C70.2886 26.0349 70.7018 26.0441 70.9545 26.0068C70.9672 26.3392 70.9536 26.6766 70.9626 27.0096C70.7968 27.004 70.1358 26.9846 70.005 27.0096L69.9961 27.0054C70.0469 26.9101 70.0277 26.1941 70.0261 26.0338Z" fill="#1B1A1B"/>
        <path d="M80.0053 28.0081C80.2851 28.0099 80.6806 28.0223 80.9509 28.0029C80.9444 28.1687 80.9297 28.8387 80.9717 28.9723L80.9603 28.9745C80.8541 28.9466 80.1654 28.9605 80.0074 28.9575C80.0021 28.778 80.0133 28.1199 79.9951 28.0098L80.0053 28.0081Z" fill="#1B1A1B"/>
        <path d="M75.9843 23.9707C76.119 24.0304 76.7368 23.9956 76.9634 24.0321C76.9874 24.232 76.9747 24.9255 76.9997 25.004L76.991 25.006L76.8551 25.0004C76.843 24.9289 76.8562 24.9343 76.8118 24.8992C76.5326 24.8584 76.2472 24.8443 75.9963 24.9858C75.9831 24.7241 76.0157 24.2019 75.9814 23.9821L75.9843 23.9707Z" fill="#1B1A1B"/>
        <path d="M72.9654 23.9824L72.9751 23.9866C72.927 24.1278 72.9953 24.9311 72.9476 25L72.9351 25.0038C72.9063 24.9484 72.8897 24.8912 72.8209 24.8942C72.6914 24.9 72.1407 24.8584 72.0506 24.8835C72.0349 24.9342 72.0313 24.9437 72.0016 24.9881L71.9948 24.9982L71.9697 25.0062C71.9992 24.8125 71.978 24.2612 71.9917 24C72.124 24.0003 72.9026 24.0185 72.9654 23.9824Z" fill="#1B1A1B"/>
        <path d="M78.0078 26.9759L78.0402 26.9643C78.1816 26.811 78.038 26.2964 78.1008 26.1114C78.1371 26.0044 78.782 26.1255 78.909 26.0498C78.9009 26.1493 78.8767 26.1648 78.864 26.2604C78.8407 26.4354 78.9324 26.7894 78.8288 26.9207C78.6282 27.0089 78.194 26.9552 78.0102 26.9906L78.0078 26.9759Z" fill="#1B1A1B"/>
        <path d="M78.9673 26.0371C78.9846 26.2873 78.9425 26.7963 79.0021 27.0132C78.772 26.9812 78.2068 27.0394 78.0098 26.9902C78.1936 26.9548 78.6278 27.0084 78.8284 26.9203C78.932 26.7889 78.8403 26.4349 78.8636 26.2599C78.8763 26.1643 78.9005 26.1489 78.9086 26.0494L78.9673 26.0371Z" fill="#1B1A1B"/>
        <path d="M77.9746 25.9971L77.9964 25.9973C78.3174 26.0567 78.6779 25.9988 78.9677 26.0373L78.909 26.0496C78.7821 26.1252 78.1372 26.0042 78.1009 26.1112C78.0381 26.2961 78.1816 26.8108 78.0403 26.964L78.0079 26.9757C77.9955 26.8075 78.0231 26.0682 77.9746 25.9971Z" fill="#1B1A1B"/>
        <path d="M71.9951 24.9978L72.0019 24.9878C72.0316 24.9433 72.0352 24.9338 72.0509 24.8831C72.141 24.8581 72.6917 24.8996 72.8212 24.8939C72.89 24.8908 72.9066 24.9481 72.9355 25.0034C72.6373 24.9927 72.2967 24.9992 71.9951 24.9978Z" fill="#1B1A1B"/>
        <path d="M75.9961 24.9856C76.247 24.8441 76.5325 24.8582 76.8117 24.899C76.856 24.9341 76.8428 24.9287 76.855 25.0002C76.7169 25.0009 76.0975 25.0156 75.9961 24.9856Z" fill="#1B1A1B"/>
        <path d="M81.9693 29.9756C82.01 29.9778 82.1182 29.9811 82.1524 29.9881L82.2488 30.0061C82.2075 30.0451 82.0386 30.055 81.9818 30.0534L81.9668 30.0529L81.9693 29.9756Z" fill="#1B1A1B"/>
    </g>
    <path d="M430.21 -56.1074C434.408 -56.1095 439.684 -56.4911 443.484 -56.1113C444.529 -56.0069 445.53 -55.7801 446.57 -55.5186C447.593 -55.2615 448.685 -54.9621 449.816 -54.7529C450.189 -54.684 450.565 -54.6641 450.928 -54.7637C451.32 -54.8716 451.583 -55.0875 451.766 -55.2832C452.099 -55.6402 452.089 -55.7204 452.268 -55.8525C452.32 -55.8551 452.394 -55.8563 452.496 -55.8525C452.788 -55.8416 453.203 -55.7975 453.743 -55.7168C454.817 -55.5561 456.286 -55.2658 458.04 -54.8789C461.543 -54.1062 466.114 -52.9642 470.795 -51.7568C480.015 -49.3783 489.736 -46.7245 492.302 -46.2119L494.281 -45.5508C496.287 -42.8405 497.598 -39.5862 498.521 -36.2441C498.56 -36.1006 498.612 -35.8233 498.687 -35.4619C498.732 -35.2406 498.798 -34.9264 498.877 -34.6748C499.018 -32.5871 499.158 -31.1834 499.032 -29.8203C498.912 -28.5186 498.54 -27.2436 497.592 -25.5244C495.462 -23.427 493.105 -22.5162 490.516 -21.9561C489.185 -21.6683 487.819 -21.4771 486.373 -21.2588C484.941 -21.0427 483.446 -20.8019 481.933 -20.4141C478.284 -19.4789 474.369 -17.1634 471.033 -14.2783C467.722 -11.4141 464.886 -7.90502 463.428 -4.45801C462.49 -2.91338 460.955 0.263877 459.636 3.43848C458.964 5.05509 458.339 6.69237 457.871 8.1377C457.437 9.48012 457.113 10.7396 457.044 11.6758C455.359 16.868 454.716 23.7701 453.938 29.1934L453.778 30.2656C453.7 30.7778 453.498 32.156 453.313 33.499C453.145 34.7298 452.975 36.0413 452.953 36.5566C452.176 43.0862 451.427 50.0412 449.383 56.042L449.327 56.2021L447.896 59.4971C447.84 59.5844 447.795 59.6517 447.682 59.8301C447.622 59.9233 447.529 60.0695 447.454 60.2109C446.551 61.3386 445.61 62.481 444.543 63.376C443.526 64.2291 442.458 64.8048 441.281 64.9395L441.045 64.96C437.537 65.1814 433.723 65.0778 430.11 65.0723H430.109L409.194 65.0527H409.193L339.051 65.0625L212.834 65.0586L170.898 65.0615C164.278 65.0619 156.713 65.2479 150.221 65.0664H150.222C147.256 64.9369 145.447 63.844 144.07 62.2227C142.637 60.5339 141.666 58.278 140.458 55.6768C138.746 50.6742 138.206 45.5106 137.491 40.1367C136.412 32.0201 135.59 23.3509 133.808 15.0137C132.021 6.65637 129.254 -1.46932 124.229 -8.56543C120.36 -14.0302 114.852 -18.5291 108.231 -20.3467L107.587 -20.5146C105.114 -21.1216 102.417 -21.3573 100.077 -21.7646C97.0677 -22.2885 93.8596 -23.6153 92.2324 -25.9639C90.5755 -28.3559 90.6146 -31.8581 91.1709 -34.9805C91.4161 -36.3569 92.0584 -38.683 92.9355 -40.8613C93.373 -41.9478 93.8593 -42.9726 94.3691 -43.8125C94.872 -44.6408 95.3519 -45.2086 95.7676 -45.5088C95.7759 -45.512 95.7857 -45.5154 95.7969 -45.5195C95.8766 -45.5493 95.9957 -45.59 96.1562 -45.6416C96.4755 -45.7442 96.9259 -45.8786 97.4941 -46.042C98.6292 -46.3683 100.207 -46.8011 102.088 -47.3037C105.848 -48.3085 110.804 -49.5895 115.817 -50.8574C120.831 -52.1253 125.898 -53.3794 129.883 -54.3291C131.876 -54.804 133.594 -55.2017 134.897 -55.4873C136.239 -55.7812 137.059 -55.9368 137.318 -55.957C137.334 -55.9579 137.458 -55.9494 137.841 -55.5713C137.969 -55.4441 138.205 -55.193 138.393 -55.0312C138.55 -54.8954 138.971 -54.542 139.546 -54.5791C140.728 -54.6554 141.841 -55.0401 142.813 -55.3652C143.829 -55.7047 144.724 -55.9927 145.662 -56.0449C151.468 -56.3678 157.362 -56.1186 163.275 -56.1123H163.276L195.494 -56.1025H195.495L315.551 -56.1055L400.977 -56.1045L430.21 -56.1074Z" fill="#9562E5" stroke="black" stroke-width="2"/>
    <path d="M771.21 -56.1074C775.408 -56.1095 780.684 -56.4911 784.484 -56.1113C785.529 -56.0069 786.53 -55.7801 787.57 -55.5186C788.593 -55.2615 789.685 -54.9621 790.816 -54.7529C791.189 -54.684 791.565 -54.6641 791.928 -54.7637C792.32 -54.8716 792.583 -55.0875 792.766 -55.2832C793.099 -55.6402 793.089 -55.7204 793.268 -55.8525C793.32 -55.8551 793.394 -55.8563 793.496 -55.8525C793.788 -55.8416 794.203 -55.7975 794.743 -55.7168C795.817 -55.5561 797.286 -55.2658 799.04 -54.8789C802.543 -54.1062 807.114 -52.9642 811.795 -51.7568C821.015 -49.3783 830.736 -46.7245 833.302 -46.2119L835.281 -45.5508C837.287 -42.8405 838.598 -39.5862 839.521 -36.2441C839.56 -36.1006 839.612 -35.8233 839.687 -35.4619C839.732 -35.2406 839.798 -34.9264 839.877 -34.6748C840.018 -32.5871 840.158 -31.1834 840.032 -29.8203C839.912 -28.5186 839.54 -27.2436 838.592 -25.5244C836.462 -23.427 834.105 -22.5162 831.516 -21.9561C830.185 -21.6683 828.819 -21.4771 827.373 -21.2588C825.941 -21.0427 824.446 -20.8019 822.933 -20.4141C819.284 -19.4789 815.369 -17.1634 812.033 -14.2783C808.722 -11.4141 805.886 -7.90502 804.428 -4.45801C803.49 -2.91338 801.955 0.263877 800.636 3.43848C799.964 5.05509 799.339 6.69237 798.871 8.1377C798.437 9.48012 798.113 10.7396 798.044 11.6758C796.359 16.868 795.716 23.7701 794.938 29.1934L794.778 30.2656C794.7 30.7778 794.498 32.156 794.313 33.499C794.145 34.7298 793.975 36.0413 793.953 36.5566C793.176 43.0862 792.427 50.0412 790.383 56.042L790.327 56.2021L788.896 59.4971C788.84 59.5844 788.795 59.6517 788.682 59.8301C788.622 59.9233 788.529 60.0695 788.454 60.2109C787.551 61.3386 786.61 62.481 785.543 63.376C784.526 64.2291 783.458 64.8048 782.281 64.9395L782.045 64.96C778.537 65.1814 774.723 65.0778 771.11 65.0723H771.109L750.194 65.0527H750.193L680.051 65.0625L553.834 65.0586L511.898 65.0615C505.278 65.0619 497.713 65.2479 491.221 65.0664H491.222C488.256 64.9369 486.447 63.844 485.07 62.2227C483.637 60.5339 482.666 58.278 481.458 55.6768C479.746 50.6742 479.206 45.5106 478.491 40.1367C477.412 32.0201 476.59 23.3509 474.808 15.0137C473.021 6.65637 470.254 -1.46932 465.229 -8.56543C461.36 -14.0302 455.852 -18.5291 449.231 -20.3467L448.587 -20.5146C446.114 -21.1216 443.417 -21.3573 441.077 -21.7646C438.068 -22.2885 434.86 -23.6153 433.232 -25.9639C431.575 -28.3559 431.615 -31.8581 432.171 -34.9805C432.416 -36.3569 433.058 -38.683 433.936 -40.8613C434.373 -41.9478 434.859 -42.9726 435.369 -43.8125C435.872 -44.6408 436.352 -45.2086 436.768 -45.5088C436.776 -45.512 436.786 -45.5154 436.797 -45.5195C436.877 -45.5493 436.996 -45.59 437.156 -45.6416C437.476 -45.7442 437.926 -45.8786 438.494 -46.042C439.629 -46.3683 441.207 -46.8011 443.088 -47.3037C446.848 -48.3085 451.804 -49.5895 456.817 -50.8574C461.831 -52.1253 466.898 -53.3794 470.883 -54.3291C472.876 -54.804 474.594 -55.2017 475.897 -55.4873C477.239 -55.7812 478.059 -55.9368 478.318 -55.957C478.334 -55.9579 478.458 -55.9494 478.841 -55.5713C478.969 -55.4441 479.205 -55.193 479.393 -55.0312C479.55 -54.8954 479.971 -54.542 480.546 -54.5791C481.728 -54.6554 482.841 -55.0401 483.813 -55.3652C484.829 -55.7047 485.724 -55.9927 486.662 -56.0449C492.468 -56.3678 498.362 -56.1186 504.275 -56.1123H504.276L536.494 -56.1025H536.495L656.551 -56.1055L741.977 -56.1045L771.21 -56.1074Z" fill="#9562E5" stroke="black" stroke-width="2"/>
    <path d="M1111.21 -55.1074C1115.41 -55.1095 1120.68 -55.4911 1124.48 -55.1113C1125.53 -55.0069 1126.53 -54.7801 1127.57 -54.5186C1128.59 -54.2615 1129.68 -53.9621 1130.82 -53.7529C1131.19 -53.684 1131.57 -53.6641 1131.93 -53.7637C1132.32 -53.8716 1132.58 -54.0875 1132.77 -54.2832C1133.1 -54.6402 1133.09 -54.7204 1133.27 -54.8525C1133.32 -54.8551 1133.39 -54.8563 1133.5 -54.8525C1133.79 -54.8416 1134.2 -54.7975 1134.74 -54.7168C1135.82 -54.5561 1137.29 -54.2658 1139.04 -53.8789C1142.54 -53.1062 1147.11 -51.9642 1151.79 -50.7568C1161.02 -48.3783 1170.74 -45.7245 1173.3 -45.2119L1175.28 -44.5508C1177.29 -41.8405 1178.6 -38.5862 1179.52 -35.2441C1179.56 -35.1006 1179.61 -34.8233 1179.69 -34.4619C1179.73 -34.2406 1179.8 -33.9264 1179.88 -33.6748C1180.02 -31.5871 1180.16 -30.1834 1180.03 -28.8203C1179.91 -27.5186 1179.54 -26.2436 1178.59 -24.5244C1176.46 -22.427 1174.11 -21.5162 1171.52 -20.9561C1170.19 -20.6683 1168.82 -20.4771 1167.37 -20.2588C1165.94 -20.0427 1164.45 -19.8019 1162.93 -19.4141C1159.28 -18.4789 1155.37 -16.1634 1152.03 -13.2783C1148.72 -10.4141 1145.89 -6.90502 1144.43 -3.45801C1143.49 -1.91338 1141.95 1.26388 1140.64 4.43848C1139.96 6.05509 1139.34 7.69237 1138.87 9.1377C1138.44 10.4801 1138.11 11.7396 1138.04 12.6758C1136.36 17.868 1135.72 24.7701 1134.94 30.1934L1134.78 31.2656C1134.7 31.7778 1134.5 33.156 1134.31 34.499C1134.14 35.7298 1133.98 37.0413 1133.95 37.5566C1133.18 44.0862 1132.43 51.0412 1130.38 57.042L1130.33 57.2021L1128.9 60.4971C1128.84 60.5844 1128.8 60.6517 1128.68 60.8301C1128.62 60.9233 1128.53 61.0695 1128.45 61.2109C1127.55 62.3386 1126.61 63.481 1125.54 64.376C1124.53 65.2291 1123.46 65.8048 1122.28 65.9395L1122.04 65.96C1118.54 66.1814 1114.72 66.0778 1111.11 66.0723H1111.11L1090.19 66.0527H1090.19L1020.05 66.0625L893.834 66.0586L851.898 66.0615C845.278 66.0619 837.713 66.2479 831.221 66.0664H831.222C828.256 65.9369 826.447 64.844 825.07 63.2227C823.637 61.5339 822.666 59.278 821.458 56.6768C819.746 51.6742 819.206 46.5106 818.491 41.1367C817.412 33.0201 816.59 24.3509 814.808 16.0137C813.021 7.65637 810.254 -0.469322 805.229 -7.56543C801.36 -13.0302 795.852 -17.5291 789.231 -19.3467L788.587 -19.5146C786.114 -20.1216 783.417 -20.3573 781.077 -20.7646C778.068 -21.2885 774.86 -22.6153 773.232 -24.9639C771.575 -27.3559 771.615 -30.8581 772.171 -33.9805C772.416 -35.3569 773.058 -37.683 773.936 -39.8613C774.373 -40.9478 774.859 -41.9726 775.369 -42.8125C775.872 -43.6408 776.352 -44.2086 776.768 -44.5088C776.776 -44.512 776.786 -44.5154 776.797 -44.5195C776.877 -44.5493 776.996 -44.59 777.156 -44.6416C777.476 -44.7442 777.926 -44.8786 778.494 -45.042C779.629 -45.3683 781.207 -45.8011 783.088 -46.3037C786.848 -47.3085 791.804 -48.5895 796.817 -49.8574C801.831 -51.1253 806.898 -52.3794 810.883 -53.3291C812.876 -53.804 814.594 -54.2017 815.897 -54.4873C817.239 -54.7812 818.059 -54.9368 818.318 -54.957C818.334 -54.9579 818.458 -54.9494 818.841 -54.5713C818.969 -54.4441 819.205 -54.193 819.393 -54.0312C819.55 -53.8954 819.971 -53.542 820.546 -53.5791C821.728 -53.6554 822.841 -54.0401 823.813 -54.3652C824.829 -54.7047 825.724 -54.9927 826.662 -55.0449C832.468 -55.3678 838.362 -55.1186 844.275 -55.1123H844.276L876.494 -55.1025H876.495L996.551 -55.1055L1081.98 -55.1045L1111.21 -55.1074Z" fill="#9562E5" stroke="black" stroke-width="2"/>
    <path d="M1452.21 -56.1074C1456.41 -56.1095 1461.68 -56.4911 1465.48 -56.1113C1466.53 -56.0069 1467.53 -55.7801 1468.57 -55.5186C1469.59 -55.2615 1470.68 -54.9621 1471.82 -54.7529C1472.19 -54.684 1472.57 -54.6641 1472.93 -54.7637C1473.32 -54.8716 1473.58 -55.0875 1473.77 -55.2832C1474.1 -55.6402 1474.09 -55.7204 1474.27 -55.8525C1474.32 -55.8551 1474.39 -55.8563 1474.5 -55.8525C1474.79 -55.8416 1475.2 -55.7975 1475.74 -55.7168C1476.82 -55.5561 1478.29 -55.2658 1480.04 -54.8789C1483.54 -54.1062 1488.11 -52.9642 1492.79 -51.7568C1502.02 -49.3783 1511.74 -46.7245 1514.3 -46.2119L1516.28 -45.5508C1518.29 -42.8405 1519.6 -39.5862 1520.52 -36.2441C1520.56 -36.1006 1520.61 -35.8233 1520.69 -35.4619C1520.73 -35.2406 1520.8 -34.9264 1520.88 -34.6748C1521.02 -32.5871 1521.16 -31.1834 1521.03 -29.8203C1520.91 -28.5186 1520.54 -27.2436 1519.59 -25.5244C1517.46 -23.427 1515.11 -22.5162 1512.52 -21.9561C1511.19 -21.6683 1509.82 -21.4771 1508.37 -21.2588C1506.94 -21.0427 1505.45 -20.8019 1503.93 -20.4141C1500.28 -19.4789 1496.37 -17.1634 1493.03 -14.2783C1489.72 -11.4141 1486.89 -7.90502 1485.43 -4.45801C1484.49 -2.91338 1482.95 0.263877 1481.64 3.43848C1480.96 5.05509 1480.34 6.69237 1479.87 8.1377C1479.44 9.48012 1479.11 10.7396 1479.04 11.6758C1477.36 16.868 1476.72 23.7701 1475.94 29.1934L1475.78 30.2656C1475.7 30.7778 1475.5 32.156 1475.31 33.499C1475.14 34.7298 1474.98 36.0413 1474.95 36.5566C1474.18 43.0862 1473.43 50.0412 1471.38 56.042L1471.33 56.2021L1469.9 59.4971C1469.84 59.5844 1469.8 59.6517 1469.68 59.8301C1469.62 59.9233 1469.53 60.0695 1469.45 60.2109C1468.55 61.3386 1467.61 62.481 1466.54 63.376C1465.53 64.2291 1464.46 64.8048 1463.28 64.9395L1463.04 64.96C1459.54 65.1814 1455.72 65.0778 1452.11 65.0723H1452.11L1431.19 65.0527H1431.19L1361.05 65.0625L1234.83 65.0586L1192.9 65.0615C1186.28 65.0619 1178.71 65.2479 1172.22 65.0664H1172.22C1169.26 64.9369 1167.45 63.844 1166.07 62.2227C1164.64 60.5339 1163.67 58.278 1162.46 55.6768C1160.75 50.6742 1160.21 45.5106 1159.49 40.1367C1158.41 32.0201 1157.59 23.3509 1155.81 15.0137C1154.02 6.65637 1151.25 -1.46932 1146.23 -8.56543C1142.36 -14.0302 1136.85 -18.5291 1130.23 -20.3467L1129.59 -20.5146C1127.11 -21.1216 1124.42 -21.3573 1122.08 -21.7646C1119.07 -22.2885 1115.86 -23.6153 1114.23 -25.9639C1112.58 -28.3559 1112.61 -31.8581 1113.17 -34.9805C1113.42 -36.3569 1114.06 -38.683 1114.94 -40.8613C1115.37 -41.9478 1115.86 -42.9726 1116.37 -43.8125C1116.87 -44.6408 1117.35 -45.2086 1117.77 -45.5088C1117.78 -45.512 1117.79 -45.5154 1117.8 -45.5195C1117.88 -45.5493 1118 -45.59 1118.16 -45.6416C1118.48 -45.7442 1118.93 -45.8786 1119.49 -46.042C1120.63 -46.3683 1122.21 -46.8011 1124.09 -47.3037C1127.85 -48.3085 1132.8 -49.5895 1137.82 -50.8574C1142.83 -52.1253 1147.9 -53.3794 1151.88 -54.3291C1153.88 -54.804 1155.59 -55.2017 1156.9 -55.4873C1158.24 -55.7812 1159.06 -55.9368 1159.32 -55.957C1159.33 -55.9579 1159.46 -55.9494 1159.84 -55.5713C1159.97 -55.4441 1160.21 -55.193 1160.39 -55.0312C1160.55 -54.8954 1160.97 -54.542 1161.55 -54.5791C1162.73 -54.6554 1163.84 -55.0401 1164.81 -55.3652C1165.83 -55.7047 1166.72 -55.9927 1167.66 -56.0449C1173.47 -56.3678 1179.36 -56.1186 1185.28 -56.1123H1185.28L1217.49 -56.1025H1217.5L1337.55 -56.1055L1422.98 -56.1045L1452.21 -56.1074Z" fill="#9562E5" stroke="black" stroke-width="2"/>
    <defs>
        <clipPath id="clip0_0_1">
            <rect width="19" height="19.9648" fill="white" transform="translate(65 23)"/>
        </clipPath>
    </defs>
</svg>
