<svg width="500" height="274" viewBox="0 0 500 274" fill="none" xmlns="http://www.w3.org/2000/svg">
    <path d="M7.48713 117.367H13.1024C17.2203 117.367 20.5894 120.689 20.5894 124.854V128.129C20.5894 132.294 17.2203 135.616 13.1024 135.616H0.935983V130.937H13.1024C14.6466 130.937 15.91 129.673 15.91 128.129V124.854C15.91 123.309 14.6466 122.046 13.1024 122.046H7.48713C3.36927 122.046 0.000104635 118.677 0.000104635 114.559V111.283C0.000104635 107.166 3.36927 103.796 7.48713 103.796H19.6535V108.476H7.48713C5.89614 108.476 4.6795 109.786 4.6795 111.283V114.559C4.6795 116.056 5.89614 117.367 7.48713 117.367ZM41.538 135.616V101.584H62.0768V105.24H45.6591V116.739H61.0133V120.395H45.6591V131.96H62.3427V135.616H41.538ZM55.2305 98.5267L51.7742 93.8739L48.3178 98.5267H44.5956V98.2608L49.9795 91.3481H53.5688L58.9528 98.2608V98.5267H55.2305ZM210.39 111.283V128.129C210.39 129.673 211.607 130.937 213.198 130.937H226.3V135.616H213.198C209.08 135.616 205.711 132.294 205.711 128.129V111.283C205.711 107.166 209.08 103.796 213.198 103.796H218.813C222.931 103.796 226.3 107.166 226.3 111.283H221.62C221.62 109.786 220.357 108.476 218.813 108.476H213.198C211.607 108.476 210.39 109.786 210.39 111.283ZM262.781 128.129V103.796H267.46V128.129C267.46 132.294 264.091 135.616 259.973 135.616H254.358C250.24 135.616 246.871 132.294 246.871 128.129V103.796H251.55V128.129C251.55 129.673 252.767 130.937 254.358 130.937H259.973C261.517 130.937 262.781 129.673 262.781 128.129ZM308.621 135.616H288.031V103.796H292.711V130.937H308.621V135.616ZM342.294 103.796C346.412 103.796 349.781 107.166 349.781 111.283V115.495C349.781 119.659 346.412 122.982 342.294 122.982H333.871V135.616H329.192V103.796H342.294ZM333.871 118.302H342.294C343.838 118.302 345.102 117.039 345.102 115.495V111.283C345.102 109.786 343.838 108.476 342.294 108.476H333.871V118.302ZM391.877 135.616H387.057L384.952 124.854H376.295L374.189 135.616H369.416L375.359 103.796H385.934L391.877 135.616ZM379.524 108.476L377.231 120.174H384.016L381.676 108.476H379.524ZM424.615 103.796C428.732 103.796 432.102 107.166 432.102 111.283V128.129C432.102 132.294 428.732 135.616 424.615 135.616H411.512V103.796H424.615ZM416.192 130.937H424.615C426.159 130.937 427.422 129.673 427.422 128.129V111.283C427.422 109.786 426.159 108.476 424.615 108.476H416.192V130.937ZM460.16 103.796H465.775C469.893 103.796 473.262 107.166 473.262 111.283V128.129C473.262 132.294 469.893 135.616 465.775 135.616H460.16C456.042 135.616 452.673 132.294 452.673 128.129V111.283C452.673 107.166 456.042 103.796 460.16 103.796ZM460.16 130.937H465.775C467.319 130.937 468.583 129.673 468.583 128.129V111.283C468.583 109.786 467.319 108.476 465.775 108.476H460.16C458.569 108.476 457.352 109.786 457.352 111.283V128.129C457.352 129.673 458.569 130.937 460.16 130.937ZM13.1024 154.796C17.2203 154.796 20.5894 158.166 20.5894 162.283V179.129C20.5894 183.294 17.2203 186.616 13.1024 186.616H0.000104635V154.796H13.1024ZM4.6795 181.937H13.1024C14.6466 181.937 15.91 180.673 15.91 179.129V162.283C15.91 160.786 14.6466 159.476 13.1024 159.476H4.6795V181.937ZM61.7498 186.616H41.1605V154.796H61.7498V159.476H45.8399V167.431H59.878V172.11H45.8399V181.937H61.7498V186.616ZM384.482 179.129V154.796H389.161V179.129C389.161 183.294 385.792 186.616 381.674 186.616H376.059C371.941 186.616 368.572 183.294 368.572 179.129V154.796H373.251V179.129C373.251 180.673 374.468 181.937 376.059 181.937H381.674C383.218 181.937 384.482 180.673 384.482 179.129ZM414.411 186.616H409.732V154.796H414.411L420.027 164.296L425.642 154.796H430.321V186.616H425.642V163.687L421.711 170.426H418.295L414.411 163.687V186.616ZM472.418 186.616H467.598L465.492 175.854H456.835L454.729 186.616H449.956L455.899 154.796H466.475L472.418 186.616ZM460.064 159.476L457.771 171.174H464.556L462.216 159.476H460.064ZM10.2948 220.302H20.5894V230.129C20.5894 234.294 17.2203 237.616 13.1024 237.616H7.48713C3.36927 237.616 0.000104635 234.294 0.000104635 230.129V213.283C0.000104635 209.166 3.36927 205.796 7.48713 205.796H13.1024C17.2203 205.796 20.5894 209.166 20.5894 213.283H15.91C15.91 211.786 14.6466 210.476 13.1024 210.476H7.48713C5.89614 210.476 4.6795 211.786 4.6795 213.283V230.129C4.6795 231.673 5.89614 232.937 7.48713 232.937H13.1024C14.6466 232.937 15.91 231.673 15.91 230.129V224.982H10.2948V220.302ZM63.1536 237.616L57.8659 237.663L51.2212 225.029H45.8399V237.663H41.1605V205.843H54.2628C58.3806 205.843 61.7498 209.166 61.7498 213.33V217.542C61.7498 220.911 59.4569 223.812 56.3217 224.701L63.1536 237.616ZM54.216 210.523H45.7931V220.349H54.216C55.807 220.349 57.0236 219.039 57.0236 217.542V213.33C57.0236 211.786 55.807 210.523 54.216 210.523ZM103.846 237.616H99.0263L96.9205 226.854H88.2637L86.1579 237.616H81.385L87.3278 205.796H97.9032L103.846 237.616ZM91.4924 210.476L89.1995 222.174H95.9847L93.645 210.476H91.4924ZM139.391 227.134V205.843H144.071V237.663H139.391L128.161 216.372V237.663H123.481V205.843H128.161L139.391 227.134ZM177.744 205.796C181.862 205.796 185.231 209.166 185.231 213.283V230.129C185.231 234.294 181.862 237.616 177.744 237.616H164.642V205.796H177.744ZM169.321 232.937H177.744C179.288 232.937 180.551 231.673 180.551 230.129V213.283C180.551 211.786 179.288 210.476 177.744 210.476H169.321V232.937ZM226.391 237.616H205.802V205.796H226.391V210.476H210.481V218.431H224.519V223.11H210.481V232.937H226.391V237.616ZM308.712 237.616H288.123V232.937H296.078V210.476H288.123V205.796H308.712V210.476H300.757V232.937H308.712V237.616ZM342.385 205.796C346.503 205.796 349.872 209.166 349.872 213.283V230.129C349.872 234.294 346.503 237.616 342.385 237.616H329.283V205.796H342.385ZM333.962 232.937H342.385C343.929 232.937 345.193 231.673 345.193 230.129V213.283C345.193 211.786 343.929 210.476 342.385 210.476H333.962V232.937ZM391.033 237.616H370.443V205.796H391.033V210.476H375.123V218.431H389.161V223.11H375.123V232.937H391.033V237.616ZM432.193 237.616H411.604V232.937H419.559V210.476H411.604V205.796H432.193V210.476H424.238V232.937H432.193V237.616ZM474.289 237.616H469.47L467.364 226.854H458.707L456.601 237.616H451.828L457.771 205.796H468.346L474.289 237.616ZM461.936 210.476L459.643 222.174H466.428L464.088 210.476H461.936Z" fill="#F8F3E0"/>
    <path d="M275.37 187.67C275.95 187.604 276.517 187.675 277.071 187.883C277.787 188.239 278.515 188.867 279.256 189.766C279.713 190.406 280.175 191.162 280.643 192.035C281.287 193.366 281.903 194.932 282.49 196.732C282.993 198.381 283.38 200.035 283.65 201.694C283.811 202.659 283.909 203.529 283.945 204.305C283.998 205.469 283.942 206.385 283.779 207.053C283.655 207.759 283.223 208.07 282.48 207.987C281.734 207.827 281.421 207.356 281.541 206.573C281.578 206.532 281.596 206.512 281.596 206.512C281.73 206.039 281.776 205.337 281.733 204.406C281.738 203.667 281.683 202.873 281.566 202.023C281.299 200.441 280.975 198.882 280.594 197.344C280.087 195.618 279.532 194.108 278.929 192.813C278.583 192.052 278.204 191.408 277.791 190.883C277.294 190.206 276.825 189.741 276.386 189.489C275.832 189.281 275.31 189.325 274.818 189.619C274.403 189.91 273.902 190.419 273.313 191.146C272.472 192.312 271.758 193.705 271.172 195.326C270.162 197.899 269.45 201.041 269.037 204.753C268.875 206.316 268.755 207.954 268.678 209.668C268.636 210.448 268.614 211.245 268.613 212.062C268.645 212.76 268.644 213.168 268.611 213.287L268.669 214.567C268.818 217.826 269.141 221.057 269.637 224.261C270.651 231.134 272.224 237.477 274.356 243.289C275.51 246.424 276.851 249.395 278.379 252.202C280.039 255.352 281.814 258.051 283.705 260.297C286.131 263.18 288.575 265.187 291.037 266.318C292.546 267.026 294.038 267.347 295.512 267.28C296.987 267.212 298.423 266.738 299.821 265.858C302.162 264.351 304.193 262.004 305.913 258.815C307.233 256.228 308.281 253.206 309.056 249.75C309.697 246.766 310.172 243.556 310.482 240.121C310.596 238.366 310.677 236.73 310.724 235.212C310.685 234.358 310.668 233.562 310.673 232.823C310.615 232.398 310.577 231.992 310.559 231.604C310.538 231.138 310.522 230.789 310.511 230.556L310.45 230.501C310.3 229.769 310.591 229.328 311.323 229.178C312.092 228.987 312.553 229.297 312.706 230.106C312.758 230.376 312.818 230.839 312.887 231.497C312.904 231.885 312.885 232.314 312.829 232.783C312.864 233.559 312.863 234.375 312.824 235.232C312.747 236.946 312.629 238.623 312.471 240.263C312.128 243.817 311.579 247.107 310.823 250.135C309.866 253.872 308.708 257.016 307.347 259.566C306.561 261.079 305.615 262.483 304.507 263.778C303.252 265.235 301.924 266.364 300.522 267.167C298.895 268.136 297.246 268.639 295.576 268.676C293.906 268.714 292.198 268.345 290.452 267.569C287.791 266.33 285.205 264.194 282.695 261.16C280.76 258.799 278.922 256.006 277.18 252.781C275.69 249.934 274.365 246.904 273.208 243.691C270.94 237.458 269.306 231.06 268.307 224.497C267.807 221.215 267.48 217.906 267.328 214.57C267.163 211.817 267.264 208.489 267.63 204.584C267.999 200.758 268.666 197.501 269.632 194.813C270.289 193.033 271.055 191.502 271.929 190.218C272.148 189.897 272.424 189.554 272.757 189.189C273.127 188.783 273.501 188.455 273.878 188.204C274.37 187.91 274.867 187.731 275.37 187.67ZM332.016 176.438C332.109 175.928 332.392 175.74 332.864 175.874C333.374 175.967 333.582 176.269 333.489 176.778C333.322 177.369 333.054 178.314 332.686 179.614C332.277 180.877 331.952 181.844 331.71 182.516L330.851 185.413L329.871 188.198C328.329 192.74 326.846 196.442 325.422 199.306C325.314 199.506 324.849 200.382 324.026 201.936C323.152 203.22 322.548 204.044 322.215 204.41C321.996 204.731 321.665 205.135 321.221 205.621C321.035 205.824 320.641 206.134 320.038 206.55C318.947 207.339 317.975 207.752 317.121 207.791C316.039 207.919 314.997 207.675 313.997 207.06C313.159 206.592 312.37 205.909 311.629 205.01C311.22 204.562 310.807 204.037 310.391 203.434C310.391 203.434 310.52 204.556 310.778 206.799C311.177 210.435 311.335 213.032 311.251 214.591C311.172 215.411 311.028 216.098 310.82 216.652C310.646 217.087 310.409 217.428 310.109 217.675C309.846 217.882 309.599 217.99 309.366 218.001C309.055 218.015 308.78 217.95 308.54 217.805C308.223 217.664 307.919 217.387 307.628 216.972C307.421 216.71 307.233 216.427 307.064 216.124C306.81 215.669 306.51 215.06 306.164 214.299C305.381 212.468 304.51 210.001 303.552 206.896C303.324 206.167 303.574 205.689 304.302 205.462C305.031 205.234 305.509 205.484 305.736 206.213C305.74 206.29 305.762 206.348 305.802 206.385L305.747 206.445C305.908 207.41 306.158 208.642 306.499 210.143C306.829 211.411 307.194 212.599 307.595 213.708C307.779 214.322 307.999 214.895 308.257 215.428C308.599 216.112 308.89 216.526 309.13 216.671L309.191 216.726L309.363 216.66C309.514 216.575 309.624 216.415 309.691 216.178C309.865 215.743 309.995 215.193 310.082 214.528C310.154 213.553 310.154 212.289 310.083 210.737C309.997 209.692 309.842 208.435 309.619 206.968C309.144 204.23 308.527 201.77 307.766 199.589C307.461 198.864 307.672 198.388 308.4 198.16C309.125 197.855 309.62 198.046 309.884 198.734C309.929 198.848 309.954 198.983 309.961 199.138C309.965 199.216 309.972 199.371 309.983 199.604C309.993 199.837 310.019 199.972 310.059 200.009C310.677 201.613 311.48 203.015 312.468 204.214C313.912 206.053 315.449 206.935 317.079 206.86C317.818 206.865 318.638 206.536 319.541 205.873C320.103 205.42 320.459 205.112 320.607 204.95C321.055 204.54 321.388 204.175 321.606 203.854C321.902 203.53 322.469 202.746 323.306 201.502C324.17 199.986 324.656 199.128 324.763 198.928C326.224 196.024 327.65 192.343 329.04 187.886C330.062 184.73 331.054 180.913 332.016 176.438ZM362.667 143.338C362.73 143.024 362.9 142.919 363.177 143.023C363.414 143.09 363.498 143.242 363.431 143.478C361.742 151.603 359.775 159.176 357.531 166.199C356.17 170.46 354.802 174.118 353.426 177.174C352.472 179.278 351.562 181.05 350.695 182.489C349.353 184.611 348.044 186.167 346.768 187.159C345.754 187.944 344.704 188.361 343.618 188.411C342.569 188.42 341.507 188.157 340.433 187.623C338.883 186.878 337.343 185.51 335.814 183.519C333.945 180.922 332.131 177.37 330.37 172.864C329.09 169.54 327.889 165.804 326.767 161.657C325.729 157.662 324.853 153.814 324.14 150.115C324.027 149.342 324.356 148.9 325.129 148.787C325.86 148.636 326.301 148.927 326.451 149.659L326.396 149.72L326.457 149.775C327.052 153.441 327.847 157.215 328.84 161.096C329.845 165.21 330.948 168.93 332.15 172.257C333.749 176.616 335.44 180.018 337.223 182.464C338.55 184.269 339.87 185.511 341.184 186.19C341.981 186.62 342.768 186.817 343.543 186.781C344.319 186.746 345.064 186.459 345.778 185.921C346.984 185.089 348.223 183.691 349.494 181.728C350.364 180.366 351.278 178.672 352.235 176.646C353.652 173.626 355.043 170.025 356.406 165.842C358.732 158.893 360.819 151.392 362.667 143.338ZM391.56 110.821C391.852 110.419 392.2 110.365 392.602 110.657C393.041 110.909 393.114 111.236 392.822 111.638C392.862 111.675 392.864 111.714 392.827 111.755C392.605 111.998 391.559 113.348 389.688 115.805C389.248 116.37 388.662 117.174 387.933 118.218C387.203 119.262 386.784 119.884 386.677 120.083C385.621 121.648 384.656 123.072 383.781 124.356C383.711 124.515 383.333 125.173 382.647 126.332C381.958 127.413 381.452 128.253 381.129 128.851C379.213 132.009 377.682 135.073 376.535 138.041C376.464 138.2 376.36 138.477 376.223 138.872C376.336 139.644 376.43 140.437 376.506 141.25C376.655 142.798 376.721 144.233 376.703 145.556C376.665 146.413 376.564 147.175 376.4 147.844C376.269 148.394 376.095 148.83 375.876 149.151C375.839 149.191 375.804 149.271 375.771 149.389L375.715 149.45L375.543 149.516C375.432 149.638 375.319 149.72 375.205 149.765C375.09 149.809 374.955 149.834 374.8 149.841C374.682 149.808 374.564 149.774 374.445 149.741C374.368 149.744 374.309 149.728 374.268 149.691C374.15 149.657 374.05 149.603 373.969 149.529C373.888 149.455 373.807 149.381 373.726 149.307C373.641 149.156 373.556 149.004 373.472 148.852C373.343 148.586 373.275 148.375 373.268 148.22C373.227 148.183 373.207 148.165 373.207 148.165C373.204 148.087 373.202 148.048 373.202 148.048C373.097 146.615 373.365 144.814 374.004 142.647C374.101 142.215 374.306 141.583 374.618 140.753C374.561 139.511 374.43 138.351 374.225 137.272C373.999 135.727 373.704 134.38 373.341 133.23C373.113 132.502 372.872 131.911 372.618 131.456C372.449 131.152 372.303 130.945 372.182 130.834C372.023 130.764 371.905 130.73 371.827 130.734C371.749 130.737 371.6 130.861 371.377 131.104C371.192 131.307 371.029 131.567 370.888 131.885C370.603 132.442 370.358 133.036 370.153 133.668C369.547 135.717 369.206 138.454 369.129 141.878C369.013 146.976 369.46 152.515 370.472 158.495C370.984 161.193 371.594 163.905 372.302 166.633C372.636 167.979 373.045 169.282 373.53 170.542C374.07 172.15 374.609 173.312 375.147 174.026C375.597 174.51 375.62 175.015 375.217 175.539C374.887 175.981 374.464 176.078 373.947 175.83C373.711 175.763 373.511 175.655 373.349 175.507C373.187 175.359 373.065 175.248 372.984 175.174L372.431 174.558C372.092 173.951 371.86 173.554 371.735 173.365C371.481 172.91 371.115 172.13 370.637 171.025C370.152 169.764 369.593 168.176 368.961 166.261C368.282 164.154 367.34 160.99 366.136 156.769L363.539 147.149C362.321 142.617 361.455 139.411 360.942 137.529C360.751 136.761 361.021 136.301 361.753 136.151C362.481 135.923 362.959 136.174 363.187 136.902C363.15 136.942 363.152 136.981 363.192 137.018C363.593 139.838 364.208 143.075 365.036 146.731C365.636 149.658 366.406 152.888 367.345 156.422C368.321 159.915 369.32 163.057 370.342 165.848C370.342 165.848 370.362 165.867 370.403 165.904C370.447 166.018 370.45 166.096 370.413 166.136C370.055 164.248 369.649 161.759 369.197 158.67C368.275 152.103 367.824 146.487 367.844 141.821C367.917 138.318 368.273 135.484 368.913 133.316C369.151 132.567 369.411 131.874 369.693 131.24C369.908 130.841 370.106 130.501 370.287 130.221C370.658 129.815 371.033 129.526 371.414 129.353C371.721 129.261 372.031 129.247 372.345 129.311C372.581 129.378 372.821 129.522 373.065 129.744C373.349 130.003 373.616 130.322 373.866 130.699C374.202 131.228 374.525 131.932 374.838 132.812C375.249 134.154 375.63 135.692 375.982 137.425C377.355 134.291 378.869 131.287 380.526 128.412C380.849 127.814 381.355 126.974 382.044 125.893C382.693 124.775 383.052 124.137 383.123 123.978L385.896 119.594L388.725 115.15C390.433 112.545 391.378 111.102 391.56 110.821ZM375.524 147.826C375.524 147.826 375.506 147.846 375.469 147.886C375.509 147.923 375.529 147.942 375.529 147.942C375.489 147.905 375.487 147.866 375.524 147.826ZM374.614 145.768C374.644 145.572 374.638 145.456 374.598 145.419C374.635 145.378 374.65 145.28 374.643 145.125C374.639 145.048 374.656 144.988 374.693 144.948C374.656 144.988 374.621 145.068 374.587 145.186C374.591 145.264 374.594 145.341 374.598 145.419C374.638 145.456 374.66 145.513 374.664 145.591C374.627 145.631 374.61 145.69 374.614 145.768ZM417.13 83.0455C417.264 82.5729 417.587 82.422 418.101 82.5929C418.573 82.7268 418.743 83.0301 418.609 83.5027C418.609 83.5027 418.59 83.523 418.553 83.5636C416.923 87.8756 415.722 90.9433 414.95 92.7669C413.225 96.6945 411.788 99.6953 410.639 101.769C409.778 103.364 408.93 104.783 408.092 106.026C407.074 107.55 406.026 108.861 404.948 109.96C403.575 111.384 402.182 112.38 400.77 112.95C399.432 113.439 398.129 113.44 396.863 112.954C397.678 115.482 398.265 117.691 398.624 119.579C398.855 120.385 398.983 121.06 399.008 121.603C399.07 122.105 399.087 122.493 399.061 122.767C399.038 123.118 398.955 123.413 398.81 123.653C398.773 123.693 398.736 123.734 398.699 123.775L398.643 123.835C398.569 123.917 398.514 123.977 398.477 124.018C398.325 124.103 398.174 124.187 398.022 124.272C397.715 124.364 397.384 124.36 397.03 124.259C396.794 124.192 396.556 124.086 396.316 123.942C396.072 123.72 395.787 123.422 395.459 123.048C395.049 122.6 394.653 122.016 394.27 121.295C392.997 118.943 392.041 116.323 391.404 113.437C391.049 111.626 390.924 110.174 391.03 109.08C391.16 108.53 391.314 108.076 391.492 107.718C391.855 107.157 392.364 106.803 393.018 106.657C393.48 106.558 393.986 106.574 394.536 106.704C394.968 106.801 395.384 106.957 395.782 107.172C396.063 107.354 396.249 107.598 396.341 107.905C396.392 108.174 396.347 108.468 396.206 108.785C396.061 109.025 395.856 109.21 395.59 109.338C395.283 109.43 394.989 109.385 394.709 109.204C394.668 109.167 394.648 109.148 394.648 109.148C394.128 108.822 393.735 108.723 393.468 108.852C393.391 108.856 393.352 108.858 393.352 108.858C393.281 109.016 393.213 109.214 393.146 109.45C393.03 110.311 393.105 111.532 393.372 113.114C393.843 115.774 394.655 118.225 395.807 120.466C396.109 121.113 396.444 121.642 396.813 122.053C396.978 122.279 397.142 122.466 397.305 122.614C397.386 122.688 397.447 122.743 397.487 122.78C397.524 122.74 397.541 122.681 397.537 122.603C397.567 122.407 397.555 122.136 397.5 121.788C397.475 121.245 397.388 120.608 397.238 119.876C396.869 117.755 396.225 115.16 395.307 112.092L395.363 112.031C395.035 111.657 395.019 111.308 395.315 110.984C395.648 110.619 395.997 110.603 396.363 110.936C396.403 110.973 396.423 110.991 396.423 110.991L396.484 111.047C396.687 111.232 396.949 111.434 397.27 111.652C397.547 111.756 397.863 111.859 398.217 111.959C398.963 112.119 399.7 112.086 400.428 111.858C401.693 111.45 402.995 110.594 404.335 109.288C405.415 108.267 406.447 107.015 407.428 105.532C407.502 105.45 407.938 104.77 408.734 103.489C408.772 103.449 408.953 103.168 409.279 102.648C409.565 102.091 409.778 101.653 409.919 101.336C411.458 98.4275 412.799 95.4505 413.942 92.4048C415.06 89.6324 416.122 86.5126 417.13 83.0455ZM451.789 45.3103C451.805 44.8042 452.065 44.559 452.572 44.5747C453.078 44.5904 453.323 44.8514 453.307 45.3575C453.014 49.9971 452.632 54.4075 452.163 58.5886C451.607 63.4347 450.93 67.7614 450.132 71.5688C448.973 76.8311 447.65 81.0513 446.162 84.2294C445.027 86.6138 443.771 88.4789 442.394 89.8248C441.462 90.6838 440.5 91.3303 439.509 91.7644C438.363 92.2056 437.221 92.3161 436.084 92.0959C434.987 91.9128 433.898 91.4767 432.817 90.7875C431.975 90.2428 431.125 89.5041 430.266 88.5715C428.92 87.1947 427.596 85.4281 426.292 83.2718C424.9 80.8862 423.551 78.1683 422.245 75.1179C422.215 75.3137 422.233 75.7016 422.299 76.2818C422.323 76.8249 422.363 77.2701 422.418 77.6175L422.796 85.8808C422.87 87.5101 422.934 88.9067 422.987 90.0706C422.986 90.887 422.979 91.5871 422.967 92.1708C422.988 92.6363 423.004 92.9855 423.015 93.2183C422.985 93.414 422.955 93.6098 422.925 93.8055C422.928 93.8831 422.915 94.0198 422.885 94.2155C422.885 94.2155 422.869 94.2746 422.835 94.3927C422.724 94.5144 422.668 94.5753 422.668 94.5753L422.502 94.7579C422.239 94.9642 421.914 95.0763 421.526 95.094C421.212 95.0306 420.935 94.9267 420.695 94.7821C420.411 94.523 420.105 94.2065 419.777 93.8328C419.442 93.3038 419.081 92.64 418.695 91.8413C418.172 90.6211 417.741 89.2608 417.4 87.7602C416.968 85.9528 416.747 84.5245 416.738 83.4753C416.729 82.4261 416.865 81.584 417.147 80.9491C417.433 80.3918 417.862 80.0028 418.435 79.7823C418.701 79.6535 418.99 79.582 419.3 79.5678C419.455 79.5607 419.61 79.5536 419.765 79.5465C419.961 79.5764 420.118 79.6081 420.236 79.6416C420.949 79.92 421.186 80.434 420.948 81.1835C420.707 81.8554 420.211 82.0725 419.462 81.8346C419.421 81.7976 419.401 81.7791 419.401 81.7791C419.323 81.7826 419.285 81.7844 419.285 81.7844C419.207 81.7879 419.113 81.8506 419.002 81.9723C418.824 82.3303 418.73 82.8399 418.722 83.5012C418.66 84.7092 418.778 86.0061 419.074 87.3921C419.371 88.7781 419.74 90.0441 420.181 91.1902C420.486 91.9149 420.766 92.5047 421.02 92.9596C421.189 93.2628 421.354 93.4497 421.512 93.5202L421.573 93.5757C421.566 93.4206 421.579 93.2839 421.613 93.1657C421.602 92.933 421.606 92.6023 421.626 92.1738C421.638 91.5901 421.645 90.89 421.646 90.0736C421.597 88.9873 421.553 87.6092 421.516 85.9393C421.45 83.6486 421.305 80.9145 421.082 77.7369C420.935 75.3722 420.775 73.1442 420.602 71.0528C419.054 66.9639 417.756 62.8052 416.707 58.5768C416.095 56.2334 415.646 54.0769 415.362 52.1072C415.187 50.8323 415.058 49.7108 414.975 48.7427C414.943 48.0444 414.955 47.4607 415.012 46.9916C415.034 46.6407 415.059 46.3286 415.085 46.0552C415.186 45.7008 415.31 45.4424 415.458 45.2801C415.488 45.0844 415.579 44.9442 415.73 44.8595C415.767 44.8189 415.843 44.7766 415.958 44.7325C415.958 44.7325 415.976 44.7122 416.013 44.6716C416.165 44.5869 416.298 44.5225 416.413 44.4784C416.527 44.4343 416.662 44.4087 416.817 44.4016C417.013 44.4315 417.17 44.4632 417.288 44.4967C417.366 44.4931 417.486 44.5654 417.648 44.7135C417.807 44.784 417.906 44.8378 417.947 44.8748C418.109 45.0229 418.192 45.1357 418.196 45.2133C418.402 45.476 418.616 45.8939 418.836 46.4669C419.057 47.04 419.244 47.7312 419.398 48.5405C419.684 49.6937 419.941 51.0815 420.171 52.7037C420.531 55.4863 420.833 58.2521 421.075 61.0012C421.39 64.4857 421.712 68.1253 422.041 71.92C423.551 76.0495 425.233 79.6659 427.085 82.769C428.348 84.8883 429.633 86.6178 430.938 87.9577C432.734 89.8194 434.494 90.9052 436.218 91.2151C438.142 91.6325 439.997 90.9452 441.781 89.1531C443.083 87.8884 444.267 86.1432 445.332 83.9174C446.89 80.5807 448.157 76.4213 449.135 71.4394C449.892 67.595 450.51 63.2515 450.988 58.4091C451.347 54.3496 451.614 49.9833 451.789 45.3103ZM417.151 46.6022C417.188 46.5617 417.207 46.5414 417.207 46.5414C417.17 46.582 417.151 46.6022 417.151 46.6022ZM417.861 58.2908C418.487 60.9446 419.256 63.7279 420.167 66.6409C419.953 64.5125 419.753 62.6945 419.568 61.1868C419.135 57.6689 418.719 54.9472 418.32 53.0216C418.016 51.4805 417.741 50.1518 417.496 49.0357C417.228 48.2704 417.005 47.6586 416.829 47.2001C416.744 47.0485 416.68 46.9154 416.636 46.8008C416.599 46.8413 416.56 46.8431 416.519 46.8061C416.486 46.9242 416.471 47.0221 416.474 47.0997C416.418 47.5688 416.384 48.0952 416.372 48.6789C416.414 49.6099 416.521 50.6741 416.692 51.8714C416.936 53.8041 417.326 55.9439 417.861 58.2908ZM470.549 24.508C470.761 24.0318 471.106 23.9383 471.586 24.2273C472.062 24.4388 472.174 24.7641 471.922 25.2033C471.885 25.2439 471.867 25.2641 471.867 25.2641C471.611 25.6257 471.246 26.1478 470.772 26.8303C470.298 27.5129 469.95 27.9759 469.727 28.2193C469.583 28.4592 469.274 28.9204 468.799 29.6029C468.285 30.2485 467.879 30.7335 467.583 31.0581C465.746 33.3968 464.198 35.2559 462.94 36.6352C461.159 38.5049 459.447 40.1771 457.804 41.6517C456.757 42.5548 455.839 43.316 455.051 43.9352C454.711 44.1451 454.372 44.3938 454.036 44.6814C454.438 44.974 454.903 45.3609 455.43 45.8422C456.204 46.6232 456.869 47.5647 457.425 48.6667C458.058 49.7651 458.496 50.8336 458.738 51.8722C458.888 52.604 458.937 53.2432 458.884 53.7899C458.902 54.1778 458.821 54.5508 458.643 54.9088C458.428 55.3074 458.151 55.6117 457.811 55.8216C457.393 56.0351 456.949 56.1137 456.48 56.0574C456.092 56.0751 455.697 55.9377 455.295 55.645C454.852 55.3154 454.421 54.8103 454.001 54.1297C453.46 53.3381 452.965 52.2916 452.516 50.9904C451.969 49.2271 451.603 47.5916 451.417 46.084C451.181 46.017 451.021 45.9077 450.936 45.7561C450.682 45.3012 450.743 44.9485 451.121 44.698C451.198 44.6944 451.256 44.6724 451.293 44.6318C451.252 44.5948 451.249 44.5172 451.282 44.3991C451.238 44.2844 451.214 44.1883 451.211 44.1108C451.216 43.3719 451.606 42.9847 452.382 42.9492C452.848 42.928 453.207 43.1448 453.461 43.5997C453.802 43.3897 454.123 43.2001 454.427 43.0307C455.218 42.4891 456.178 41.8038 457.307 40.9747C458.957 39.6552 460.652 38.0421 462.392 36.1354C463.54 34.8778 464.334 33.9668 464.775 33.4024C465.215 32.838 465.891 31.8935 466.803 30.5689C467.062 30.285 467.736 29.3017 468.825 27.6191C469.578 26.224 470.153 25.187 470.549 24.508ZM454.647 46.5777C454.279 46.167 453.913 45.8338 453.552 45.5782C453.66 47.0894 453.947 48.6896 454.413 50.3788C454.739 51.5691 455.094 52.5247 455.477 53.2459C455.771 53.7378 456.059 54.0745 456.339 54.2561C456.542 54.4412 456.758 54.4896 456.988 54.4014C457.217 54.3132 457.341 54.0548 457.36 53.6263C457.42 53.2348 457.399 52.7692 457.296 52.2297C457.136 51.2651 456.818 50.2689 456.343 49.2409C455.832 48.2536 455.266 47.3658 454.647 46.5777Z" fill="#272727"/>
</svg>
