<svg width="430" height="88" viewBox="0 0 430 88" fill="none" xmlns="http://www.w3.org/2000/svg">
    <path d="M310.453 82.5318C310.453 80.2959 311.966 78.4274 313.996 77.9602C313.352 77.1591 311.805 76.7254 310.485 76.692V73.2217C315.413 73.2217 319.763 76.7254 319.44 82.5318C319.312 85.1012 317.442 87.2035 314.963 87.2035C312.482 87.2035 310.453 85.1012 310.453 82.5318Z" fill="black"/>
    <path d="M36.0799 70.2061H-5.81294e-05V62.0061H13.9399V22.6461H-5.81294e-05V14.4461H36.0799V22.6461H22.1399V62.0061H36.0799V70.2061ZM77.0479 51.8381V14.5281H85.2479V70.2881H77.0479L57.3679 32.9781V70.2881H49.1679V14.5281H57.3679L77.0479 51.8381ZM111.456 38.2261H121.296C128.512 38.2261 134.416 44.0481 134.416 51.3461V57.0861C134.416 64.3841 128.512 70.2061 121.296 70.2061H99.9759V62.0061H121.296C124.002 62.0061 126.216 59.7921 126.216 57.0861V51.3461C126.216 48.6401 124.002 46.4261 121.296 46.4261H111.456C104.24 46.4261 98.3359 40.5221 98.3359 33.3061V27.5661C98.3359 20.3501 104.24 14.4461 111.456 14.4461H132.776V22.6461H111.456C108.668 22.6461 106.536 24.9421 106.536 27.5661V33.3061C106.536 35.9301 108.668 38.2261 111.456 38.2261ZM155.704 27.5661V57.0861C155.704 59.7921 157.836 62.0061 160.624 62.0061H183.584V70.2061H160.624C153.408 70.2061 147.504 64.3841 147.504 57.0861V27.5661C147.504 20.3501 153.408 14.4461 160.624 14.4461H170.464C177.68 14.4461 183.584 20.3501 183.584 27.5661H175.384C175.384 24.9421 173.17 22.6461 170.464 22.6461H160.624C157.836 22.6461 155.704 24.9421 155.704 27.5661ZM235.212 70.2061L225.946 70.2881L214.302 48.1481H204.872V70.2881H196.672V14.5281H219.632C226.848 14.5281 232.752 20.3501 232.752 27.6481V35.0281C232.752 40.9321 228.734 46.0161 223.24 47.5741L235.212 70.2061ZM219.55 22.7281H204.79V39.9481H219.55C222.338 39.9481 224.47 37.6521 224.47 35.0281V27.6481C224.47 24.9421 222.338 22.7281 219.55 22.7281ZM281.92 70.2061H245.84V62.0061H259.78V22.6461H245.84V14.4461H281.92V22.6461H267.98V62.0061H281.92V70.2061ZM303.208 27.5661V57.0861C303.208 59.7921 305.34 62.0061 308.128 62.0061H331.088V70.2061H308.128C300.912 70.2061 295.008 64.3841 295.008 57.0861V27.5661C295.008 20.3501 300.912 14.4461 308.128 14.4461H317.968C325.184 14.4461 331.088 20.3501 331.088 27.5661H322.888C322.888 24.9421 320.674 22.6461 317.968 22.6461H308.128C305.34 22.6461 303.208 24.9421 303.208 27.5661ZM381.896 70.2061H373.45L369.76 51.3461H354.59L350.9 70.2061H342.536L352.95 14.4461H371.482L381.896 70.2061ZM360.248 22.6461L356.23 43.1461H368.12L364.02 22.6461H360.248ZM406.464 14.4461H416.304C423.52 14.4461 429.424 20.3501 429.424 27.5661V57.0861C429.424 64.3841 423.52 70.2061 416.304 70.2061H406.464C399.248 70.2061 393.344 64.3841 393.344 57.0861V27.5661C393.344 20.3501 399.248 14.4461 406.464 14.4461ZM406.464 62.0061H416.304C419.01 62.0061 421.224 59.7921 421.224 57.0861V27.5661C421.224 24.9421 419.01 22.6461 416.304 22.6461H406.464C403.676 22.6461 401.544 24.9421 401.544 27.5661V57.0861C401.544 59.7921 403.676 62.0061 406.464 62.0061Z" fill="black"/>
    <path d="M356.651 0L356.652 5.18655L370.136 5.18617V0.00038L356.651 0Z" fill="black"/>
</svg>
