<svg width="681" height="147" viewBox="0 0 681 147" fill="none" xmlns="http://www.w3.org/2000/svg">
    <path d="M101.487 1.87394C100.629 1.09817 99.598 0.63682 98.6201 0.36849C97.634 0.10473 96.6656 0.00137 95.7389 0C94.8347 0.00799 93.9614 0.0397 93.0857 0.13576C89.5842 0.49376 86.2538 1.48195 83.0968 2.74393C76.777 5.30237 71.0631 8.89416 65.657 12.7981C60.2854 16.7837 55.1062 20.8905 50.293 25.5957C45.5427 30.2465 41.0265 35.132 36.7657 40.2296C28.2395 50.4214 20.7328 61.4558 14.3987 73.1479C11.2429 78.9999 8.43292 85.0486 6.07086 91.2849C3.72425 97.5227 1.82201 103.965 0.778766 110.611C-0.228774 117.227 -0.511554 124.168 1.48819 130.848C2.49687 134.151 4.13303 137.387 6.60313 139.968C9.03179 142.585 12.2219 144.434 15.563 145.498C18.9185 146.56 22.4081 146.9 25.83 146.865C29.2435 146.803 32.6559 146.371 35.9756 145.583C42.6104 144.013 48.8279 141.302 54.7688 138.21C60.7095 135.093 66.3639 131.498 71.7891 127.595C74.5029 125.643 77.1525 123.606 79.7462 121.478C81.0449 120.418 82.327 119.334 83.5888 118.204C84.2208 117.639 84.8458 117.063 85.4684 116.463C86.1017 115.835 86.6851 115.292 87.3801 114.426C87.3992 114.402 87.4229 114.371 87.4419 114.347C88.1929 113.324 87.9719 111.885 86.9489 111.133C85.9259 110.381 84.487 110.602 83.7349 111.625L83.7123 111.657C83.3915 112.094 82.8034 112.717 82.2771 113.262C81.7281 113.824 81.1577 114.384 80.5756 114.937C79.4111 116.046 78.2051 117.132 76.979 118.197C74.5254 120.328 71.9792 122.364 69.3807 124.33C64.1789 128.256 58.7443 131.887 53.0626 135.035C47.3831 138.169 41.4079 140.809 35.2045 142.38C29.063 143.887 22.4057 144.35 16.4648 142.619C13.5147 141.719 10.7938 140.186 8.68835 137.983C6.55918 135.809 5.04902 133.023 4.13532 130.035C2.28893 124.011 2.47433 117.398 3.42602 111.024C4.40151 104.615 6.22295 98.3163 8.49357 92.1951C10.7784 86.0742 13.5135 80.1102 16.5979 74.3289C22.7336 62.7412 30.3177 51.9366 38.756 41.9042C42.9881 36.8932 47.4699 32.0978 52.1774 27.537L53.9549 25.8394C54.5026 25.2987 55.1419 24.7705 55.7573 24.2292C56.9978 23.158 58.2488 22.1025 59.5155 21.0657C62.0462 18.9896 64.6447 16.9995 67.3204 15.13C72.6589 11.3976 78.2777 8.01139 84.2541 5.70736C87.2352 4.56835 90.3161 3.72323 93.3947 3.46175C94.938 3.34036 96.504 3.29747 97.6958 3.6598C98.9338 4.01961 99.6206 4.67149 99.9604 5.75345C100.293 6.86006 100.184 8.32922 99.8689 9.76918C99.5433 11.2231 99.0301 12.6922 98.4146 14.134C97.1801 17.024 95.5808 19.8211 93.8283 22.5105C92.0698 25.1978 90.1355 27.7877 88.0586 30.2163C87.013 31.4238 85.9282 32.5904 84.8019 33.6617C83.7005 34.7135 82.4528 35.7631 81.4358 36.2812L81.3669 36.3171C81.3348 36.3335 81.3016 36.3515 81.2694 36.3693C80.1692 37.0043 79.7914 38.41 80.427 39.5098C81.0615 40.6102 82.4671 40.9876 83.5674 40.3526C85.4458 39.2695 86.6542 38.0538 87.9089 36.8083C89.1315 35.5604 90.2472 34.2642 91.3225 32.9404C93.466 30.2955 95.4192 27.5329 97.2014 24.6495C98.9754 21.7628 100.595 18.7669 101.872 15.5482C102.509 13.938 103.054 12.2674 103.405 10.489C103.726 8.71323 103.919 6.78134 103.296 4.70411C102.964 3.67577 102.349 2.64308 101.487 1.87394Z" fill="#D60A4D"/>
    <path d="M195.758 72.5223C195.342 71.7842 194.407 71.5209 193.669 71.9359L193.629 71.958C186.702 75.8476 179.67 79.5779 172.425 82.8286C165.182 86.0638 157.781 89.0149 150.144 91.0542C148.241 91.6071 146.296 91.9158 144.37 92.3212C142.429 92.5809 140.486 92.8998 138.543 92.9115C137.568 92.992 136.608 92.9318 135.65 92.857C134.678 92.8483 133.757 92.627 132.827 92.4494C131.019 92.0029 129.241 91.2723 128.021 89.9702C125.465 87.428 125.17 83.3595 125.838 79.663C126.446 76.4623 127.586 73.2675 129.039 70.3292C129.448 69.8982 129.85 69.4642 130.267 69.0357C130.412 68.8844 130.547 68.7039 130.651 68.5095C131.254 67.3769 130.824 65.9705 129.693 65.3684C128.561 64.7651 127.154 65.1952 126.551 66.3262L126.541 66.3458C124.148 70.8393 121.186 75.0538 117.992 79.0075C116.364 80.9642 114.694 82.8822 112.908 84.6795C111.13 86.4722 109.303 88.2329 107.315 89.6674C106.329 90.3729 105.281 91.0166 104.288 91.3481C103.795 91.5201 103.339 91.5516 103.06 91.4941C102.935 91.4617 102.795 91.3768 102.844 91.4003C102.858 91.4113 102.83 91.3896 102.81 91.242C102.72 90.5789 103.078 89.3112 103.518 88.2466C103.969 87.1377 104.512 86.0229 105.119 84.9361C106.33 82.7569 107.688 80.624 109.15 78.5589C110.599 76.4967 112.107 74.4245 113.699 72.5036L113.715 72.4851C113.783 72.4005 113.848 72.3108 113.906 72.2152C114.564 71.1266 114.214 69.7088 113.125 69.0512C112.036 68.3932 110.618 68.7432 109.96 69.8322C107.24 74.3303 104.644 78.7779 102.385 83.5512C101.839 84.7534 101.299 85.9668 100.857 87.2621C100.636 87.9103 100.438 88.5784 100.295 89.2976C100.165 90.0206 100.041 90.7848 100.229 91.7574C100.33 92.235 100.577 92.8287 101.062 93.2784C101.582 93.7411 102.065 93.8876 102.559 94.0021C103.549 94.1655 104.399 93.9633 105.107 93.7057C106.533 93.1659 107.655 92.384 108.729 91.5756C112.953 88.2927 116.314 84.368 119.772 80.5257C121.276 78.8439 122.768 77.165 124.276 75.4914C123.969 76.7477 123.705 78.0168 123.535 79.3212C123.263 81.3777 123.223 83.5176 123.651 85.6337C124.066 87.7385 125.073 89.8356 126.706 91.3438C128.307 92.9252 130.431 93.6425 132.442 94.1381C133.471 94.3261 134.499 94.5493 135.528 94.5509C136.558 94.6195 137.587 94.6686 138.603 94.5744C140.651 94.5372 142.647 94.1849 144.649 93.8942C146.617 93.4584 148.611 93.1155 150.532 92.5336C158.309 90.4888 165.788 87.5943 173.16 84.5079L178.684 82.1683L184.143 79.6881C187.818 78.1026 191.381 76.2978 195.043 74.6769C195.086 74.6577 195.131 74.6351 195.175 74.6114C195.91 74.198 196.172 73.2625 195.758 72.5223Z" fill="#D60A4D"/>
    <path d="M285.387 74.2502C285.172 73.8596 284.68 73.7174 284.289 73.9326L284.275 73.9397C270.588 81.4842 256.549 88.4732 242.178 94.5748C234.985 97.6024 227.688 100.398 220.25 102.604C216.531 103.692 212.771 104.643 208.991 105.239C205.235 105.818 201.358 106.132 197.877 105.368C196.144 104.996 194.594 104.251 193.515 103.142C192.453 101.986 191.628 100.369 191.224 98.6962C190.344 95.297 190.764 91.4898 191.566 87.8387C193.282 80.4748 196.604 73.4037 200.252 66.6011C203.944 59.7931 208.105 53.2157 212.508 46.8022C216.911 40.4031 221.57 34.1073 226.426 28.1065L226.46 28.064C226.465 28.0581 226.471 28.0506 226.476 28.0449C227.257 27.0448 227.082 25.6005 226.081 24.8186C225.082 24.0362 223.637 24.2128 222.855 25.2124C217.954 31.4742 213.389 37.8649 209.013 44.4455C204.655 51.0233 200.532 57.7745 196.864 64.8064C193.245 71.8483 189.919 79.1505 188.193 87.1106C187.404 91.0763 186.93 95.3082 188.074 99.5384C188.648 101.652 189.63 103.643 191.25 105.356C192.94 107.042 195.13 107.955 197.215 108.374C201.439 109.213 205.522 108.75 209.466 108.096C213.418 107.407 217.255 106.37 221.037 105.199C228.59 102.83 235.908 99.8925 243.109 96.7303C257.492 90.356 271.44 83.1405 285.081 75.3427C285.463 75.1232 285.601 74.6365 285.387 74.2502Z" fill="#D60A4D"/>
    <path d="M371.551 74.1277C368.107 74.6702 364.657 75.133 361.214 75.6281L350.892 77.1972L340.603 78.9541C337.189 79.6363 333.756 80.1958 330.361 80.9777C323.767 82.3613 317.244 84.0844 310.794 86.1133C312.78 83.6176 314.646 81.0174 316.262 78.1868C316.974 76.9013 317.643 75.5752 318.124 74.0622C318.352 73.2962 318.557 72.4908 318.538 71.5097C318.509 71.0132 318.443 70.4708 318.171 69.9048C317.9 69.3464 317.429 68.8246 316.894 68.5273C315.819 67.9446 314.866 67.9752 314.038 68.0181C313.198 68.0765 312.446 68.2556 311.711 68.4454C310.26 68.8363 308.868 69.3766 307.541 69.9974C302.24 72.5243 297.74 76.0849 293.418 79.7597C284.857 87.2306 277.223 95.5801 269.89 104.17C266.646 108.049 263.432 111.963 260.401 116.037C260.51 115.826 260.618 115.612 260.729 115.401C263.829 109.589 267.286 103.939 270.91 98.403C274.542 92.8707 278.29 87.4086 282.238 82.087C286.147 76.7454 290.169 71.4588 294.393 66.3807L294.412 66.3581C294.466 66.2931 294.517 66.2233 294.564 66.1503C295.257 65.0848 294.954 63.6589 293.887 62.966C292.822 62.273 291.395 62.5756 290.703 63.6425C287.059 69.2499 283.382 74.7764 279.702 80.3217L268.773 97.0144C265.183 102.619 261.598 108.224 258.208 113.99C256.511 116.875 254.855 119.79 253.336 122.838C252.587 124.371 251.823 125.903 251.226 127.595C250.891 128.405 250.668 129.335 250.421 130.243L250.181 131.77C250.159 132.096 250.171 132.456 250.194 132.819C250.113 133.305 250.19 133.78 250.391 134.195C250.722 135.089 251.59 135.714 252.592 135.672C253.765 135.624 254.681 134.686 254.742 133.537C255.241 131.359 256.503 128.817 257.779 126.484C259.095 124.075 260.541 121.695 262.088 119.388C265.172 114.757 268.464 110.232 271.95 105.863C278.94 97.1481 286.576 88.8839 295.052 81.6711C299.3 78.1194 303.764 74.699 308.662 72.4347C309.878 71.8779 311.127 71.412 312.39 71.0828C313.015 70.9217 313.645 70.8115 314.209 70.7907C314.768 70.7572 315.288 70.8526 315.446 70.9726C315.558 71.065 315.604 71.1097 315.63 71.5686C315.63 71.9957 315.492 72.5761 315.298 73.1447C314.892 74.3015 314.266 75.4871 313.579 76.6357C312.188 78.9377 310.532 81.144 308.785 83.268C307.294 85.0831 305.7 86.8204 304.047 88.4903C302.792 88.9914 301.535 89.494 300.318 90.1087C297.137 91.6401 293.937 93.3585 291.237 96.0812C291.193 96.125 291.148 96.1779 291.11 96.2277C291.072 96.2639 291.029 96.2941 290.994 96.3333C290.552 96.8693 290.469 97.1488 290.328 97.4693C290.211 97.7817 290.125 98.0733 290.065 98.4568C290.036 98.6437 290.011 98.8714 290.022 99.1781C290.031 99.3451 290.047 99.5295 290.113 99.7889C290.155 99.9367 290.206 100.083 290.269 100.222C290.366 100.427 290.502 100.637 290.654 100.814C290.814 101.005 291.094 101.231 291.356 101.368C291.621 101.509 291.874 101.577 292.153 101.621C292.308 101.643 292.434 101.646 292.412 101.643L292.477 101.642L292.605 101.638C292.774 101.63 292.959 101.623 293.111 101.601C294.312 101.406 295.083 100.999 295.824 100.605C297.264 99.7893 298.447 98.8906 299.595 97.9485C301.863 96.059 303.901 94.027 305.851 91.9167C306.894 90.7597 307.917 89.5891 308.921 88.4027C309.493 88.1793 310.065 87.9537 310.644 87.746C317.129 85.3987 323.851 83.6632 330.646 82.3506C334.026 81.617 337.457 81.1036 340.858 80.4682C344.283 79.9409 347.715 79.478 351.151 79.047C354.598 78.6858 358.031 78.2226 361.485 77.9424C364.942 77.6818 368.393 77.3893 371.85 77.1764L371.884 77.1735C371.931 77.1712 371.979 77.1659 372.026 77.1575C372.863 77.0256 373.435 76.2405 373.302 75.4034C373.173 74.568 372.389 73.9958 371.551 74.1277Z" fill="#D60A4D"/>
    <path fill-rule="evenodd" clip-rule="evenodd" d="M294.555 99.2153C294.539 99.2445 294.505 99.2942 294.416 99.4065C294.468 99.3456 294.507 99.2787 294.555 99.2153Z" fill="#D60A4D"/>
    <path fill-rule="evenodd" clip-rule="evenodd" d="M296.551 95.1033C296.717 94.9723 296.858 94.8244 297.03 94.6996C297.282 94.5055 297.555 94.3309 297.815 94.1429C297.564 94.3398 297.316 94.5447 297.062 94.7341C296.893 94.8584 296.723 94.9805 296.551 95.1033Z" fill="#D60A4D"/>
    <path d="M449.299 76.3261C448.943 75.5578 448.03 75.2242 447.264 75.5809L447.249 75.5884C441.267 78.3659 435.201 80.9702 429.021 83.2639C422.853 85.5894 416.547 87.5391 410.163 89.102C408.569 89.5091 406.955 89.8059 405.352 90.1621C403.733 90.4126 402.119 90.7325 400.492 90.8906C397.247 91.3075 393.975 91.48 390.755 91.2707C387.552 91.0277 384.352 90.3051 381.757 88.7319C380.462 87.9532 379.418 86.8731 378.71 85.6521C378.36 85.0388 378.085 84.3867 377.931 83.7091C377.776 83.0707 377.714 82.2547 377.78 81.7904L377.792 81.7046C377.803 81.6298 377.808 81.5543 377.807 81.4781C377.796 80.6272 377.098 79.9475 376.249 79.9585C375.452 79.9683 374.823 80.5916 374.757 81.372C374.733 81.4023 374.701 81.4187 374.681 81.452L374.671 81.4673C371.787 85.9846 368.786 90.4922 365.528 94.6793C364.711 95.7152 363.868 96.7369 362.994 97.6418C362.563 98.0861 362.101 98.5189 361.706 98.7936C361.641 98.8463 361.574 98.8821 361.517 98.9104C361.518 98.907 361.522 98.9091 361.511 98.8854C361.485 98.8162 361.44 98.6533 361.425 98.4384C361.398 98.0017 361.447 97.4383 361.561 96.8643C361.784 95.7045 362.188 94.4877 362.653 93.2964C364.586 88.517 367.352 83.8955 370.527 79.8086C372.115 77.8142 373.919 75.817 375.756 74.6732C376.223 74.3825 376.583 74.2577 376.778 74.2468C376.971 74.2529 376.923 74.2534 377.065 74.3538C377.362 74.5267 377.929 75.6657 378.068 76.4947L378.073 76.5198C378.081 76.5716 378.093 76.6224 378.106 76.6747C378.405 77.9093 379.649 78.6645 380.884 78.3638C382.118 78.0633 382.874 76.8198 382.573 75.5852C382.338 74.618 382.067 73.9289 381.642 73.1046C381.213 72.3188 380.655 71.486 379.696 70.7841C378.762 70.0611 377.299 69.7211 376.157 69.9358C375.007 70.1195 374.134 70.6244 373.467 71.0559C370.774 72.9086 369.047 75.1311 367.334 77.3841C364.045 81.9476 361.359 86.7864 359.409 92.0937C358.942 93.4354 358.525 94.8066 358.284 96.3107C358.169 97.0657 358.096 97.8595 358.188 98.771C358.242 99.2283 358.346 99.7339 358.607 100.276C358.858 100.812 359.356 101.4 359.991 101.718C360.301 101.878 360.625 101.977 360.924 102.027C361.083 102.062 361.215 102.064 361.359 102.074L361.587 102.084C361.711 102.08 361.837 102.069 361.96 102.053C362.798 101.874 363.161 101.565 363.529 101.314C364.221 100.787 364.719 100.258 365.212 99.7197C366.179 98.6462 367.017 97.5462 367.837 96.4337C370.56 92.6632 373.003 88.786 375.366 84.8465C376.337 87.4515 378.323 89.486 380.602 90.699C383.781 92.4202 387.273 92.9647 390.643 93.0952C394.032 93.2629 397.397 93.0269 400.705 92.5517C404.02 92.0915 407.294 91.4578 410.543 90.7268C417.041 89.2519 423.382 87.2395 429.702 85.1885C435.999 83.0675 442.215 80.7315 448.446 78.411C448.482 78.3978 448.522 78.3818 448.557 78.3654C449.322 78.0058 449.656 77.0945 449.299 76.3261Z" fill="#D60A4D"/>
    <path d="M552.244 77.5536C551.704 76.9008 550.738 76.8084 550.086 77.3473C543.296 82.9365 536.385 88.3771 529.309 93.5912C522.194 98.7464 514.915 103.68 507.353 108.129C499.797 112.552 491.901 116.516 483.569 119.009C479.413 120.215 475.092 121.015 470.857 120.699C466.667 120.427 462.457 118.656 460.33 115.073C458.164 111.536 457.891 107.051 458.251 102.806C458.637 98.51 459.677 94.2549 460.981 90.098C463.408 82.4838 466.713 75.1414 470.451 68.0418C475.561 62.8092 480.637 57.5381 485.668 52.2127C489.48 48.1475 493.202 43.9962 496.851 39.7354C498.674 37.6007 500.458 35.4235 502.147 33.101C502.992 31.9324 503.8 30.7295 504.557 29.3614C504.919 28.6219 505.303 27.9689 505.554 26.8803C505.619 26.6175 505.649 26.2412 505.673 25.9245C505.682 25.7559 505.645 25.4785 505.612 25.2603C505.56 25.0141 505.558 24.8364 505.402 24.5204C505.27 24.2336 505.1 23.9518 504.911 23.7054C504.703 23.4788 504.448 23.273 504.182 23.0973C503.889 22.8972 503.681 22.834 503.46 22.7653C503.444 22.7605 503.427 22.7573 503.41 22.7521C503.37 22.7361 503.325 22.7341 503.283 22.7215C503.116 22.6743 502.947 22.6273 502.778 22.5956C502.422 22.5522 502.076 22.6022 501.759 22.7124C501.076 22.8313 500.585 23.0845 500.12 23.3168C499.531 23.6344 499.027 23.9858 498.547 24.3495C497.591 25.0766 496.742 25.8563 495.925 26.6551C494.301 28.2568 492.818 29.9403 491.389 31.6597C488.541 35.1037 485.917 38.6916 483.407 42.3484C478.456 49.5457 473.931 57.0186 469.862 64.7391C466.785 67.9587 463.686 71.1567 460.57 74.3378C456.685 78.2947 452.76 82.2143 448.725 86.0115C446.714 87.9169 444.695 89.8134 442.65 91.6693C441.629 92.5968 440.601 93.5177 439.564 94.4094C439.046 94.8509 438.525 95.2951 438.006 95.7024C437.773 95.8895 437.538 96.0634 437.324 96.2135C437.32 96.1829 437.312 96.1688 437.313 96.1245C437.289 95.7554 437.39 95.1651 437.545 94.5974C437.888 93.4274 438.424 92.2172 439.026 91.0405C440.244 88.6806 441.728 86.4026 443.335 84.2473C444.932 82.0998 446.76 80.0598 448.683 78.461C449.614 77.6964 450.675 77.0945 451.408 76.9766C451.777 76.9097 451.929 77.0012 452.006 77.0694C452.052 77.1009 452.097 77.1593 452.154 77.2405C452.183 77.2773 452.21 77.33 452.235 77.3761C452.247 77.3964 452.304 77.5397 452.242 77.4101C452.705 78.592 454.037 79.177 455.219 78.7143C456.401 78.2522 456.985 76.9202 456.523 75.7383C456.325 75.2897 456.207 75.13 456.029 74.8608C455.858 74.621 455.676 74.3949 455.465 74.1815C455.05 73.7555 454.544 73.3718 453.96 73.1103C452.79 72.552 451.473 72.5741 450.497 72.8328C448.519 73.375 447.237 74.4366 446.077 75.4645C443.843 77.5611 442.164 79.8761 440.509 82.2191C438.89 84.5823 437.426 87.0337 436.199 89.6631C435.593 90.9839 435.039 92.3424 434.66 93.855C434.495 94.6328 434.332 95.4298 434.439 96.4458C434.486 96.932 434.651 97.5627 435.104 98.1406C435.562 98.7158 436.31 99.0777 436.878 99.1331L437.313 99.1813C437.36 99.234 438.126 99.0813 438.232 98.9816C438.498 98.8431 438.714 98.7037 438.859 98.594C439.2 98.3537 439.484 98.1313 439.766 97.8994C440.333 97.4408 440.862 96.9763 441.395 96.5108C442.452 95.5776 443.48 94.631 444.502 93.6788C446.545 91.7738 448.55 89.844 450.543 87.9014L462.432 76.188C463.614 75.0148 464.763 73.8107 465.936 72.6284C463.348 78.1119 461.019 83.7264 459.197 89.5401C457.885 93.7924 456.831 98.1586 456.446 102.654C456.262 104.899 456.255 107.182 456.583 109.454C456.905 111.718 457.593 113.995 458.845 116.003C460.093 118.011 461.938 119.65 464.036 120.701C466.139 121.748 468.429 122.291 470.711 122.476C475.289 122.838 479.791 122.004 484.083 120.785C492.687 118.274 500.656 114.223 508.365 109.88C516.068 105.494 523.47 100.628 530.706 95.5404C537.953 90.4715 545.041 85.1792 552.006 79.7365C552.013 79.7305 552.029 79.7187 552.037 79.7111C552.688 79.1722 552.781 78.2066 552.244 77.5536Z" fill="#D60A4D"/>
    <path fill-rule="evenodd" clip-rule="evenodd" d="M502.055 27.1215C502.051 27.1201 502.049 27.1183 502.045 27.1169C502.108 27.1299 502.169 27.1507 502.233 27.1591C502.174 27.1603 502.111 27.1484 502.055 27.1215Z" fill="#D60A4D"/>
    <path fill-rule="evenodd" clip-rule="evenodd" d="M485.404 43.7503C487.967 40.2 490.638 36.7259 493.488 33.4417C494.915 31.8048 496.39 30.2118 497.94 28.7542C498.715 28.0303 499.512 27.3373 500.326 26.7484C500.488 26.6312 500.65 26.5232 500.813 26.4174C500.88 26.4904 500.943 26.5629 501.016 26.627C500.926 26.8785 500.808 27.1587 500.698 27.4174C500.185 28.5192 499.49 29.6582 498.762 30.7778C497.29 33.0225 495.659 35.2294 493.976 37.4029C490.608 41.752 486.978 45.9336 483.332 50.0983C480.926 52.8511 478.463 55.5545 475.978 58.2391C478.932 53.2849 482.059 48.4373 485.404 43.7503Z" fill="#D60A4D"/>
    <path d="M608.213 78.9753C608.018 78.1482 607.189 77.6367 606.362 77.831L606.296 77.8473C603.988 78.3926 601.661 78.8699 599.331 79.3461C596.984 79.6993 594.638 80.1049 592.278 80.366C589.916 80.6254 587.55 80.894 585.172 80.9713C582.799 81.1445 580.421 81.1237 578.042 81.1196C573.292 81.0315 568.538 80.6617 563.872 79.8227C561.545 79.3735 559.231 78.877 556.967 78.2278C556.251 78.0106 555.531 77.7779 554.814 77.5376C555.158 76.7228 555.02 75.7495 554.375 75.0641C553.504 74.1418 552.049 74.0971 551.125 74.9694C550.863 75.2153 550.64 75.4768 550.388 75.7273C550.323 75.6959 550.256 75.6657 550.186 75.6436C549.376 75.3803 548.507 75.8241 548.246 76.6336C548.109 77.0562 548.172 77.4906 548.372 77.8504C546.153 80.3918 544.299 83.1074 542.605 85.9937C541.468 88.013 540.424 90.1041 539.734 92.4748C539.408 93.6681 539.131 94.9342 539.286 96.4396C539.372 97.1839 539.601 98.0267 540.142 98.7776C540.684 99.5406 541.451 100.059 542.268 100.342C543.129 100.644 544.088 100.613 544.861 100.382C545.635 100.148 546.274 99.7791 546.817 99.3734C547.903 98.5543 548.7 97.6051 549.406 96.629C550.798 94.6652 551.796 92.5583 552.585 90.382C553.361 88.2024 553.917 85.9446 554.104 83.6016C554.179 82.3971 554.191 81.1182 553.963 79.8585C554.785 80.0431 555.607 80.2179 556.444 80.3744C558.82 80.8821 561.218 81.2284 563.614 81.5241C568.405 82.1167 573.211 82.4078 578.019 82.5224C582.829 82.6374 587.633 82.4366 592.439 82.1838C594.845 82.0736 597.233 81.7772 599.641 81.609C602.041 81.3866 604.429 81.063 606.843 80.8625C606.916 80.8559 606.997 80.8435 607.07 80.8262C607.896 80.6311 608.408 79.802 608.213 78.9753Z" fill="#D60A4D"/>
    <path fill-rule="evenodd" clip-rule="evenodd" d="M551.908 83.3764C551.634 85.4468 551.018 87.5048 550.204 89.46C549.385 91.4104 548.354 93.2921 547.092 94.8854C546.465 95.6744 545.76 96.3917 545.042 96.8697C544.304 97.3662 543.676 97.4689 543.359 97.2914C542.891 97.0497 542.753 96.841 542.679 96.1077C542.638 95.393 542.838 94.4477 543.156 93.5287C543.798 91.6641 544.83 89.7963 545.961 88.016C547.711 85.3279 549.755 82.6924 551.987 80.4395C552.08 81.3932 552.032 82.4024 551.908 83.3764Z" fill="#D60A4D"/>
    <path d="M680.976 80.2585C680.879 79.8686 680.483 79.6329 680.093 79.7315C666.498 83.156 652.921 86.6771 639.446 90.6273C635.648 91.7442 631.86 92.9088 628.089 94.1363C625.68 91.6463 623.065 89.5497 620.442 87.5208C619.033 86.4389 617.612 85.3911 616.192 84.3521C614.78 83.3228 613.49 82.3321 612.333 81.2255C611.773 80.6767 611.23 80.1134 610.822 79.55C610.409 79.0004 610.112 78.4172 610.061 78.0827C610.025 77.7167 610.022 77.8354 610.167 77.6394C610.251 77.5495 610.413 77.4247 610.626 77.312C610.805 77.2043 611.175 77.0724 611.266 77.0521L611.323 77.0398C611.357 77.0318 611.393 77.0224 611.428 77.0115C612.649 76.6672 613.36 75.3963 613.016 74.1749C612.67 72.9528 611.4 72.243 610.177 72.5873C609.425 72.8011 608.98 73.0046 608.395 73.3263C607.845 73.6412 607.291 74.043 606.789 74.6039C606.29 75.1588 605.854 75.9117 605.665 76.7336C605.47 77.5556 605.526 78.3681 605.682 79.0501C606.014 80.4337 606.661 81.382 607.294 82.2246C607.938 83.0654 608.634 83.7486 609.338 84.4123C610.739 85.7005 612.27 86.8089 613.706 87.8156C615.131 88.8184 616.549 89.8262 617.938 90.8534C619.972 92.3641 621.985 93.9097 623.814 95.5584C622.331 96.0657 620.848 96.5815 619.372 97.1152C616.06 98.3348 612.772 99.6419 609.533 101.144C606.318 102.705 603.104 104.354 600.282 106.999C599.587 107.68 598.917 108.443 598.389 109.427C597.862 110.37 597.487 111.713 597.839 113.066C598.195 114.426 599.139 115.364 600.026 115.991C600.938 116.613 601.883 117.015 602.82 117.313C606.587 118.445 610.334 118.346 613.988 117.82C617.629 117.246 621.219 116.095 624.476 114.223C626.069 113.319 627.63 112.284 629.087 110.996C630.522 109.717 631.917 108.07 632.605 105.901C633.305 103.714 632.896 101.241 631.978 99.4272C631.387 98.1703 630.641 97.0949 629.84 96.1029C633.238 94.9394 636.659 93.8287 640.091 92.7531C653.442 88.5727 666.939 84.8075 680.459 81.1404C680.841 81.0352 681.073 80.6434 680.976 80.2585Z" fill="#D60A4D"/>
    <path fill-rule="evenodd" clip-rule="evenodd" d="M628.977 104.819C628.629 106.011 627.755 107.215 626.602 108.265C625.451 109.319 624.1 110.269 622.662 111.115C619.871 112.798 616.694 113.891 613.434 114.47C610.197 115.017 606.749 115.114 603.762 114.262C602.299 113.867 600.981 113.004 600.823 112.263C600.553 111.579 601.266 110.198 602.386 109.12C604.644 106.903 607.703 105.185 610.746 103.656C613.837 102.151 617.042 100.807 620.284 99.5473C622.121 98.845 623.969 98.1675 625.824 97.5038C628.035 99.811 629.705 102.53 628.977 104.819Z" fill="#D60A4D"/>
</svg>
